M48
;Layer_Color=9474304
;FILE_FORMAT=2:5
INCH,TZ
;TYPE=PLATED
T1F00S00C0.01181
T2F00S00C0.02756
T3F00S00C0.04331
%
T01
X48819Y15630
X52756
X52244Y18982
X62599Y19567
X67520Y17014
X88189Y15630
X92126
X100000
Y23504
Y31378
X101969Y35315
X100000Y39252
X98032Y43189
X91102Y40551
X82854Y45669
X85413Y48819
X94095Y51063
X96063Y55000
X100000
X103937
X107874
X111811
X115748
X113780Y58937
X115748Y62874
X111811
X113780Y66811
X115748Y70748
X111811
X109843Y74685
X113780
X101969
X98032
X94095
X96063Y70748
X100000
X98032Y66811
X91102Y63921
X94095Y58937
X92126Y55000
X75177Y47441
X72618Y43622
X75177Y39653
X62382Y44803
X59823Y47441
X57496Y40079
X54528
X49134Y43189
X49134Y47441
X51102Y58543
X57496Y65709
X60709Y63622
X73701Y61870
X113780Y51063
X115748Y47126
X111811
X113780Y43189
X115748Y39252
X111811
X91102Y23150
X86221Y3819
X98701Y2756
X25161Y12807
X18500Y12657
X15646
X3543Y11693
X5512Y15630
X3543Y19567
X7480
X5512Y23504
X11417Y27441
X13386Y31378
X11417Y35315
X10433Y44803
X10429Y48039
X11417Y58937
X7480Y66811
X3543
X5512Y70748
X9449
X7480Y74685
X3543
X5512Y7756
X3543Y3819
X5512Y78622
X9449
X3543Y82559
X5512Y86496
X21260Y78622
X86221Y82559
X98032
X101969
X105906
X109843
X113780
X115748Y86496
X111811
X107874
X103937
X100000
X96063
Y78622
X100000
X103937
X107874
X111811
X115748
T02
X14547Y37106
Y53445
T03
X51102Y5276
X61102
X71102
X81102
X91102
X105787Y20276
Y30276
Y40276
Y50276
Y60276
Y70276
X43031Y55276
X33031
Y45276
Y35276
X43031
Y45276
X41102Y5276
X31102
X21102
X11102
Y85276
X21102
X31102
X41102
X51102
X61102
X71102
X81102
X91102
M30
