G04*
G04 #@! TF.GenerationSoftware,Altium Limited,Altium Designer,19.1.7 (138)*
G04*
G04 Layer_Physical_Order=1*
G04 Layer_Color=255*
%FSLAX25Y25*%
%MOIN*%
G70*
G01*
G75*
%ADD11C,0.00984*%
%ADD13C,0.00787*%
%ADD16R,0.03543X0.03937*%
%ADD17R,0.04724X0.04724*%
%ADD18R,0.03740X0.03937*%
%ADD19R,0.03543X0.03740*%
%ADD20R,0.03740X0.03543*%
%ADD21R,0.05315X0.01575*%
%ADD22R,0.05906X0.07087*%
%ADD23R,0.05906X0.07480*%
%ADD24R,0.06299X0.04921*%
%ADD25R,0.03347X0.05512*%
%ADD26O,0.01575X0.08268*%
%ADD43C,0.01575*%
%ADD44C,0.01181*%
%ADD45C,0.07000*%
%ADD46R,0.07000X0.07000*%
%ADD47C,0.02756*%
%ADD48R,0.06400X0.06400*%
%ADD49C,0.06400*%
%ADD50R,0.06400X0.06400*%
%ADD51C,0.02362*%
G36*
X71553Y82108D02*
X70933Y82016D01*
X68419Y81507D01*
X68201Y81428D01*
X68041Y81351D01*
X67938Y81277D01*
X67103Y82112D01*
X67178Y82214D01*
X67255Y82375D01*
X67333Y82592D01*
X67414Y82867D01*
X67580Y83590D01*
X67843Y85106D01*
X67934Y85726D01*
X71553Y82108D01*
D02*
G37*
G36*
X63324Y82898D02*
X62173Y81106D01*
X62049Y80844D01*
X61961Y80615D01*
X61907Y80418D01*
X61890Y80254D01*
X60315D01*
X60297Y80418D01*
X60244Y80615D01*
X60155Y80844D01*
X60031Y81106D01*
X59872Y81400D01*
X59447Y82084D01*
X58880Y82898D01*
X58543Y83354D01*
X63661D01*
X63324Y82898D01*
D02*
G37*
G36*
X46063Y76811D02*
X47008Y75866D01*
X47008Y63583D01*
X45295Y61870D01*
X38333D01*
X36614Y60152D01*
Y52918D01*
X35350Y51653D01*
X30900Y51653D01*
X29528Y53026D01*
X29528Y62441D01*
X26260Y65709D01*
Y73740D01*
X26969Y74449D01*
X37913Y74449D01*
X40276Y76811D01*
X46063Y76811D01*
D02*
G37*
G36*
X57662Y64539D02*
X57548Y64520D01*
X57437Y64494D01*
X57330Y64462D01*
X57227Y64424D01*
X57127Y64380D01*
X57032Y64329D01*
X56941Y64273D01*
X56853Y64210D01*
X56769Y64142D01*
X56689Y64067D01*
X55854Y64902D01*
X55929Y64982D01*
X55998Y65065D01*
X56060Y65153D01*
X56117Y65245D01*
X56167Y65340D01*
X56211Y65439D01*
X56249Y65542D01*
X56281Y65649D01*
X56307Y65760D01*
X56327Y65875D01*
X57662Y64539D01*
D02*
G37*
G36*
X62440Y69271D02*
X62901Y68963D01*
X63445Y68855D01*
X63921D01*
Y67701D01*
X66864D01*
X68597Y65968D01*
X68390Y65468D01*
X65606D01*
X65139Y65375D01*
X64743Y65111D01*
X62988Y63355D01*
X62527Y63602D01*
X62531Y63622D01*
X62392Y64319D01*
X61997Y64911D01*
X61406Y65306D01*
X60709Y65444D01*
X60011Y65306D01*
X59708Y65103D01*
X59258Y65404D01*
X59319Y65709D01*
X59180Y66406D01*
X58785Y66997D01*
X58193Y67392D01*
X57808Y67469D01*
X57857Y67969D01*
X57874D01*
X58418Y68077D01*
X58879Y68385D01*
X61102Y70609D01*
X62440Y69271D01*
D02*
G37*
G36*
X90393Y62977D02*
X90347Y63007D01*
X90291Y63033D01*
X90226Y63057D01*
X90152Y63077D01*
X90069Y63095D01*
X89976Y63109D01*
X89763Y63128D01*
X89513Y63134D01*
Y64709D01*
X89643Y64710D01*
X89976Y64734D01*
X90069Y64748D01*
X90152Y64765D01*
X90226Y64786D01*
X90291Y64809D01*
X90347Y64836D01*
X90393Y64866D01*
Y62977D01*
D02*
G37*
G36*
X60795Y62444D02*
X60666Y62431D01*
X60543Y62412D01*
X60426Y62386D01*
X60314Y62354D01*
X60209Y62315D01*
X60109Y62270D01*
X60014Y62219D01*
X59926Y62161D01*
X59843Y62096D01*
X59766Y62025D01*
X59037Y62966D01*
X59116Y63050D01*
X59257Y63221D01*
X59318Y63309D01*
X59372Y63398D01*
X59421Y63489D01*
X59463Y63581D01*
X59500Y63675D01*
X59530Y63770D01*
X59553Y63867D01*
X60795Y62444D01*
D02*
G37*
G36*
X74457Y62785D02*
X74512Y62758D01*
X74577Y62734D01*
X74651Y62714D01*
X74735Y62697D01*
X74827Y62683D01*
X75040Y62664D01*
X75290Y62657D01*
Y61083D01*
X75160Y61081D01*
X74827Y61058D01*
X74735Y61043D01*
X74651Y61026D01*
X74577Y61006D01*
X74512Y60982D01*
X74457Y60956D01*
X74410Y60926D01*
Y62814D01*
X74457Y62785D01*
D02*
G37*
G36*
X57184Y67469D02*
X56799Y67392D01*
X56207Y66997D01*
X55812Y66406D01*
X55751Y66099D01*
X55680Y65986D01*
X55664Y65890D01*
X55647Y65818D01*
X55626Y65750D01*
X55603Y65687D01*
X55576Y65627D01*
X55547Y65570D01*
X55514Y65517D01*
X55476Y65465D01*
X55435Y65415D01*
X55375Y65351D01*
X55353Y65291D01*
X53842Y63780D01*
X53577Y63384D01*
X53484Y62917D01*
Y59501D01*
X53392Y59363D01*
X53332Y59060D01*
X52822Y59060D01*
X52786Y59241D01*
X52391Y59832D01*
X51800Y60227D01*
X51507Y60285D01*
X51464Y60315D01*
X51432Y60343D01*
X51414Y60350D01*
X51408Y60354D01*
X51399Y60356D01*
X51395Y60358D01*
X51370Y60372D01*
X51331Y60398D01*
X51291Y60427D01*
X51073Y60616D01*
X50994Y60693D01*
X50941Y60715D01*
X50292Y61363D01*
X49831Y61671D01*
X49288Y61779D01*
X46786D01*
X46594Y62241D01*
X47472Y63119D01*
X47664Y63583D01*
Y67969D01*
X57135D01*
X57184Y67469D01*
D02*
G37*
G36*
X50628Y60133D02*
X50880Y59914D01*
X50956Y59859D01*
X51027Y59812D01*
X51094Y59774D01*
X51157Y59745D01*
X51215Y59724D01*
X51269Y59713D01*
X49933Y58377D01*
X49921Y58431D01*
X49901Y58489D01*
X49872Y58552D01*
X49834Y58619D01*
X49787Y58690D01*
X49731Y58765D01*
X49594Y58929D01*
X49422Y59110D01*
X50536Y60224D01*
X50628Y60133D01*
D02*
G37*
G36*
X103866Y57717D02*
X103363Y58091D01*
X101225Y59508D01*
X101015Y59606D01*
X100848Y59665D01*
X100722Y59685D01*
Y60866D01*
X100848Y60886D01*
X101015Y60945D01*
X101225Y61043D01*
X101476Y61181D01*
X102105Y61575D01*
X103363Y62460D01*
X103866Y62834D01*
Y57717D01*
D02*
G37*
G36*
X117291Y819D02*
X111732D01*
X111268Y905D01*
X111268Y1319D01*
Y2980D01*
X108898D01*
X106527D01*
X106527Y905D01*
X106063Y819D01*
X99919D01*
X99767Y1319D01*
X99989Y1467D01*
X100384Y2059D01*
X100523Y2756D01*
X100384Y3453D01*
X99989Y4045D01*
X99398Y4440D01*
X99091Y4501D01*
X98978Y4572D01*
X98882Y4589D01*
X98810Y4605D01*
X98742Y4625D01*
X98679Y4649D01*
X98619Y4676D01*
X98563Y4705D01*
X98509Y4738D01*
X98457Y4775D01*
X98407Y4817D01*
X98343Y4877D01*
X98283Y4899D01*
X97544Y5638D01*
Y6691D01*
X98006Y6882D01*
X98625Y6263D01*
X99021Y5999D01*
X99488Y5906D01*
X106527D01*
Y3965D01*
X108898D01*
X111268D01*
Y6039D01*
X110069D01*
X109862Y6539D01*
X111999Y8677D01*
X115030D01*
Y13827D01*
X113872D01*
Y33411D01*
X113779Y33878D01*
X113514Y34274D01*
X110325Y37464D01*
X110317Y37498D01*
X110278Y37552D01*
X110241Y37628D01*
X110190Y37769D01*
X109694Y40219D01*
X109605Y40822D01*
X109540Y40929D01*
X109496Y41269D01*
X109112Y42195D01*
X108502Y42990D01*
X107707Y43600D01*
X106781Y43984D01*
X105787Y44115D01*
X104794Y43984D01*
X103868Y43600D01*
X103073Y42990D01*
X102463Y42195D01*
X102079Y41269D01*
X101948Y40276D01*
X102079Y39282D01*
X102463Y38356D01*
X103073Y37561D01*
X103868Y36951D01*
X104794Y36567D01*
X105134Y36522D01*
X105241Y36458D01*
X105853Y36368D01*
X107343Y36109D01*
X108030Y35952D01*
X108267Y35882D01*
X108435Y35822D01*
X108511Y35785D01*
X108565Y35746D01*
X108599Y35738D01*
X111431Y32906D01*
Y27011D01*
X110969Y26819D01*
X110325Y27463D01*
X110317Y27498D01*
X110278Y27552D01*
X110241Y27628D01*
X110190Y27770D01*
X109694Y30219D01*
X109605Y30822D01*
X109540Y30929D01*
X109496Y31269D01*
X109112Y32195D01*
X108502Y32990D01*
X107707Y33600D01*
X106781Y33984D01*
X105787Y34115D01*
X104794Y33984D01*
X103868Y33600D01*
X103073Y32990D01*
X102463Y32195D01*
X102079Y31269D01*
X101948Y30276D01*
X102079Y29282D01*
X102463Y28356D01*
X103073Y27561D01*
X103868Y26951D01*
X104794Y26567D01*
X105134Y26522D01*
X105241Y26458D01*
X105853Y26368D01*
X107343Y26109D01*
X108030Y25951D01*
X108267Y25882D01*
X108435Y25822D01*
X108511Y25785D01*
X108565Y25746D01*
X108599Y25738D01*
X109488Y24849D01*
Y24082D01*
X101981D01*
Y16469D01*
X107785D01*
X107976Y16007D01*
X105796Y13827D01*
X102766D01*
Y10403D01*
X102497Y10134D01*
X100734D01*
X97732Y13136D01*
Y39906D01*
X97639Y40372D01*
X97375Y40768D01*
X89193Y48950D01*
Y51444D01*
X89285Y51582D01*
X89394Y52126D01*
Y58819D01*
X89285Y59363D01*
X88977Y59824D01*
X88516Y60132D01*
X87972Y60240D01*
X87429Y60132D01*
X86968Y59824D01*
X86943Y59786D01*
X86443D01*
X86418Y59824D01*
X85957Y60132D01*
X85413Y60240D01*
X84869Y60132D01*
X84408Y59824D01*
X84384Y59787D01*
X83884D01*
X83859Y59824D01*
X83398Y60132D01*
X82854Y60240D01*
X82310Y60132D01*
X81849Y59824D01*
X81429Y59988D01*
X81614Y60518D01*
X81813Y60557D01*
X82274Y60865D01*
X83909Y62500D01*
X89446D01*
X89497Y62478D01*
X89726Y62472D01*
X89897Y62457D01*
X89952Y62449D01*
X89998Y62439D01*
X90027Y62431D01*
X90030Y62430D01*
X90038Y62425D01*
X90045Y62423D01*
X90063Y62415D01*
X90105Y62413D01*
X90157Y62403D01*
X90405Y62238D01*
X91102Y62099D01*
X91800Y62238D01*
X92391Y62633D01*
X92786Y63224D01*
X92925Y63921D01*
X92786Y64619D01*
X92713Y64728D01*
X92946Y65279D01*
X93155Y65318D01*
X99061Y59413D01*
X99457Y59148D01*
X99924Y59055D01*
X100590D01*
X100621Y59037D01*
X100687Y59026D01*
X100766Y58998D01*
X100902Y58934D01*
X102985Y57554D01*
X103474Y57190D01*
X103596Y57160D01*
X103868Y56951D01*
X104794Y56567D01*
X105787Y56437D01*
X106781Y56567D01*
X107707Y56951D01*
X108502Y57561D01*
X109112Y58356D01*
X109496Y59282D01*
X109626Y60276D01*
X109496Y61269D01*
X109112Y62195D01*
X108502Y62990D01*
X107707Y63600D01*
X106781Y63984D01*
X105787Y64115D01*
X104794Y63984D01*
X103868Y63600D01*
X103596Y63392D01*
X103474Y63361D01*
X102978Y62992D01*
X101741Y62121D01*
X101144Y61747D01*
X100927Y61629D01*
X100766Y61553D01*
X100687Y61525D01*
X100621Y61515D01*
X100590Y61496D01*
X100429D01*
X94291Y67634D01*
X93895Y67899D01*
X93428Y67992D01*
X90567D01*
Y72851D01*
X89210D01*
Y73370D01*
X91945D01*
Y79307D01*
X86008D01*
Y73370D01*
X86971D01*
Y72851D01*
X85614D01*
Y67992D01*
X84071D01*
Y72851D01*
X79118D01*
Y69710D01*
X77600Y68193D01*
X75370D01*
Y72851D01*
X74014D01*
Y73370D01*
X76669D01*
Y79307D01*
X70732D01*
Y73370D01*
X71774D01*
Y72851D01*
X70417D01*
Y68874D01*
X69917Y68667D01*
X68874Y69710D01*
Y72851D01*
X63921D01*
Y72462D01*
X63459Y72271D01*
X62860Y72870D01*
X63067Y73370D01*
X68402D01*
Y79307D01*
X67513D01*
X67321Y79769D01*
X68290Y80738D01*
X68325Y80746D01*
X68379Y80786D01*
X68455Y80822D01*
X68596Y80873D01*
X71046Y81370D01*
X71649Y81458D01*
X71756Y81523D01*
X72096Y81567D01*
X73022Y81951D01*
X73817Y82561D01*
X74427Y83356D01*
X74811Y84282D01*
X74941Y85276D01*
X74811Y86269D01*
X74427Y87195D01*
X73817Y87990D01*
X73022Y88600D01*
X72096Y88984D01*
X71102Y89115D01*
X70109Y88984D01*
X69183Y88600D01*
X68388Y87990D01*
X67778Y87195D01*
X67394Y86269D01*
X67349Y85929D01*
X67285Y85822D01*
X67195Y85210D01*
X66936Y83720D01*
X66778Y83033D01*
X66709Y82796D01*
X66649Y82628D01*
X66612Y82552D01*
X66573Y82498D01*
X66565Y82464D01*
X64609Y80509D01*
X64345Y80113D01*
X64252Y79646D01*
Y79307D01*
X62523D01*
Y80149D01*
X62542Y80184D01*
X62554Y80297D01*
X62585Y80411D01*
X62652Y80585D01*
X62748Y80787D01*
X63865Y82526D01*
X64189Y82964D01*
X64219Y83085D01*
X64427Y83356D01*
X64811Y84282D01*
X64941Y85276D01*
X64811Y86269D01*
X64427Y87195D01*
X63817Y87990D01*
X63022Y88600D01*
X62096Y88984D01*
X61102Y89115D01*
X60109Y88984D01*
X59183Y88600D01*
X58388Y87990D01*
X57778Y87195D01*
X57394Y86269D01*
X57263Y85276D01*
X57394Y84282D01*
X57778Y83356D01*
X57986Y83085D01*
X58016Y82964D01*
X58347Y82516D01*
X58899Y81724D01*
X59304Y81070D01*
X59446Y80809D01*
X59552Y80585D01*
X59619Y80411D01*
X59650Y80297D01*
X59662Y80184D01*
X59681Y80149D01*
Y73207D01*
X57516Y71041D01*
X57016Y71249D01*
Y73524D01*
X53268D01*
X49520D01*
Y71311D01*
X49520Y70957D01*
X49080Y70811D01*
X47664D01*
Y75866D01*
X47472Y76330D01*
X47181Y76621D01*
Y77083D01*
X46719D01*
X46527Y77275D01*
X46063Y77467D01*
X40276Y77467D01*
X39812Y77275D01*
X37642Y75105D01*
X37214D01*
X36740Y75169D01*
X36740Y75605D01*
Y77146D01*
X32000D01*
Y75605D01*
X31527Y75105D01*
X26969D01*
X26504Y74913D01*
X26292Y74701D01*
X26067D01*
Y74475D01*
X25796Y74204D01*
X25604Y73740D01*
Y65709D01*
X25796Y65245D01*
X28871Y62169D01*
X28871Y53026D01*
X29063Y52562D01*
X30435Y51190D01*
X30900Y50997D01*
X35350Y50997D01*
X35814Y51190D01*
X36143Y51518D01*
X36604Y51327D01*
Y50858D01*
X36001Y50255D01*
X35966Y50245D01*
X35878Y50176D01*
X35769Y50117D01*
X35579Y50038D01*
X35338Y49957D01*
X33059Y49482D01*
X33014Y49475D01*
X30591Y49475D01*
X30127Y49283D01*
X17115Y36271D01*
X16654Y36518D01*
X16771Y37106D01*
X16602Y37957D01*
X16120Y38679D01*
X15398Y39161D01*
X14547Y39330D01*
X13696Y39161D01*
X12975Y38679D01*
X12493Y37957D01*
X12323Y37106D01*
X12493Y36255D01*
X12975Y35534D01*
X13696Y35052D01*
X14547Y34883D01*
X15287Y35030D01*
X15560Y34797D01*
X15664Y34634D01*
X15604Y34488D01*
Y18465D01*
X15796Y18000D01*
X15837Y17960D01*
Y17693D01*
X16103D01*
X16150Y17646D01*
X16614Y17454D01*
X19803Y17454D01*
X20267Y17646D01*
X20314Y17693D01*
X20593D01*
Y17971D01*
X20621Y18000D01*
X20814Y18465D01*
Y22878D01*
X21566Y23630D01*
X21758Y24094D01*
X21758Y32484D01*
X30311Y41037D01*
X35590D01*
X36055Y41229D01*
X37078Y42252D01*
X37270Y42717D01*
X37270Y45481D01*
X37333Y45883D01*
X37521Y46843D01*
X37708Y47568D01*
X37794Y47823D01*
X37873Y48013D01*
X37932Y48122D01*
X38001Y48210D01*
X38011Y48245D01*
X39030Y49265D01*
X39338Y49726D01*
X39446Y50270D01*
Y52290D01*
X39946Y52452D01*
X40419Y51804D01*
X40965Y50993D01*
X41345Y50348D01*
X41381Y50276D01*
X41352Y50217D01*
X40076Y48269D01*
X39705Y47768D01*
X39675Y47647D01*
X39445Y47346D01*
X39031Y46348D01*
X38890Y45276D01*
X39031Y44204D01*
X39445Y43205D01*
X39674Y42906D01*
X39702Y42787D01*
X40419Y41804D01*
X40965Y40993D01*
X41345Y40348D01*
X41465Y40107D01*
X41544Y39917D01*
X41562Y39857D01*
X41561Y39849D01*
X41531Y39668D01*
X41495Y39532D01*
X41459Y39444D01*
X41438Y39410D01*
X41388Y39404D01*
X41346Y39382D01*
X38925D01*
Y31169D01*
X44141D01*
X44190Y31139D01*
X44243Y31152D01*
X44292Y31131D01*
X44384Y31169D01*
X44887D01*
X45011Y31099D01*
X45217Y30955D01*
X45756Y30499D01*
X46064Y30202D01*
X46116Y30181D01*
X47325Y28972D01*
X47118Y28472D01*
X45650D01*
Y26594D01*
X47626D01*
Y27964D01*
X48126Y28172D01*
X50823Y25474D01*
Y20638D01*
X50801Y20588D01*
X50795Y20359D01*
X50780Y20187D01*
X50771Y20132D01*
X50762Y20087D01*
X50754Y20058D01*
X50753Y20054D01*
X50748Y20046D01*
X50746Y20040D01*
X50738Y20022D01*
X50735Y19979D01*
X50726Y19928D01*
X50560Y19680D01*
X50422Y18982D01*
X50560Y18285D01*
X50955Y17694D01*
X51547Y17299D01*
X52244Y17160D01*
X52941Y17299D01*
X53533Y17694D01*
X53928Y18285D01*
X54066Y18982D01*
X53928Y19680D01*
X53762Y19928D01*
X53753Y19979D01*
X53750Y20022D01*
X53742Y20040D01*
X53741Y20046D01*
X53736Y20054D01*
X53734Y20058D01*
X53726Y20087D01*
X53717Y20132D01*
X53709Y20181D01*
X53689Y20469D01*
X53688Y20579D01*
X53665Y20632D01*
Y23378D01*
X54161Y23648D01*
X54705Y23540D01*
X55248Y23648D01*
X55674Y23932D01*
X55825Y23993D01*
X56144D01*
X56295Y23932D01*
X56720Y23648D01*
X57264Y23540D01*
X57807Y23648D01*
X58233Y23932D01*
X58384Y23993D01*
X58703D01*
X58854Y23932D01*
X59279Y23648D01*
X59823Y23540D01*
X60367Y23648D01*
X60798Y23936D01*
X60941Y24000D01*
X61357D01*
X61383Y23962D01*
X61841Y23655D01*
X61890Y23646D01*
Y28307D01*
Y32969D01*
X61841Y32959D01*
X61383Y32653D01*
X61357Y32614D01*
X60941D01*
X60798Y32678D01*
X60367Y32967D01*
X59823Y33075D01*
X59279Y32967D01*
X58854Y32682D01*
X58703Y32621D01*
X58384D01*
X58233Y32682D01*
X57807Y32967D01*
X57701Y32988D01*
Y33736D01*
X57728Y33875D01*
Y38302D01*
X58193Y38395D01*
X58785Y38790D01*
X59157Y39348D01*
X59249Y39424D01*
X59663Y39549D01*
X59996Y39216D01*
X60392Y38951D01*
X60859Y38858D01*
X64016D01*
X64483Y38951D01*
X64879Y39216D01*
X68363Y42700D01*
X68627Y43096D01*
X68720Y43563D01*
Y50789D01*
X68722Y50790D01*
X69220Y51010D01*
X69515Y50813D01*
X70059Y50705D01*
X70603Y50813D01*
X71035Y51101D01*
X71177Y51165D01*
X71593D01*
X71619Y51127D01*
X72077Y50820D01*
X72126Y50811D01*
Y55472D01*
X73110D01*
Y50811D01*
X73159Y50820D01*
X73457Y51020D01*
X73947Y50808D01*
X73957Y50798D01*
Y49251D01*
X73931Y49194D01*
X73928Y49106D01*
X73922Y49041D01*
X73911Y48979D01*
X73896Y48917D01*
X73878Y48856D01*
X73854Y48795D01*
X73826Y48734D01*
X73792Y48672D01*
X73753Y48608D01*
X73697Y48529D01*
X73667Y48399D01*
X73493Y48138D01*
X73355Y47441D01*
X73493Y46744D01*
X73888Y46152D01*
X74480Y45757D01*
X75177Y45619D01*
X75875Y45757D01*
X76016Y45852D01*
X76516Y45584D01*
Y41509D01*
X76281Y41317D01*
X76043Y41224D01*
X75875Y41336D01*
X75177Y41475D01*
X74480Y41336D01*
X74338Y41242D01*
X73838Y41509D01*
Y41811D01*
X73865Y41869D01*
X73867Y41957D01*
X73874Y42022D01*
X73884Y42084D01*
X73899Y42146D01*
X73918Y42207D01*
X73941Y42268D01*
X73969Y42329D01*
X74003Y42391D01*
X74042Y42454D01*
X74098Y42534D01*
X74128Y42664D01*
X74302Y42925D01*
X74440Y43622D01*
X74302Y44319D01*
X73907Y44911D01*
X73316Y45306D01*
X72618Y45445D01*
X71921Y45306D01*
X71329Y44911D01*
X70934Y44319D01*
X70796Y43622D01*
X70934Y42925D01*
X71108Y42664D01*
X71138Y42534D01*
X71194Y42454D01*
X71233Y42391D01*
X71267Y42329D01*
X71295Y42268D01*
X71319Y42207D01*
X71337Y42146D01*
X71352Y42084D01*
X71363Y42022D01*
X71369Y41957D01*
X71372Y41869D01*
X71398Y41811D01*
Y32982D01*
X71388Y32972D01*
X70898Y32760D01*
X70600Y32959D01*
X70551Y32969D01*
Y28307D01*
Y23646D01*
X70600Y23655D01*
X71058Y23962D01*
X71084Y24000D01*
X71500D01*
X71643Y23936D01*
X72074Y23648D01*
X72618Y23540D01*
X73162Y23648D01*
X73587Y23932D01*
X73738Y23993D01*
X74057D01*
X74208Y23932D01*
X74633Y23648D01*
X75177Y23540D01*
X75721Y23648D01*
X76146Y23932D01*
X76297Y23993D01*
X76616D01*
X76767Y23932D01*
X77192Y23648D01*
X77736Y23540D01*
X78280Y23648D01*
X78712Y23936D01*
X78854Y24000D01*
X79271D01*
X79296Y23962D01*
X79755Y23655D01*
X79803Y23646D01*
Y28307D01*
Y32969D01*
X79755Y32959D01*
X79296Y32653D01*
X79271Y32614D01*
X78854D01*
X78712Y32678D01*
X78280Y32967D01*
X77736Y33075D01*
X77192Y32967D01*
X76897Y32769D01*
X76399Y32989D01*
X76397Y32991D01*
Y37842D01*
X76424Y37900D01*
X76426Y37988D01*
X76433Y38052D01*
X76443Y38115D01*
X76458Y38177D01*
X76477Y38238D01*
X76500Y38298D01*
X76528Y38360D01*
X76562Y38422D01*
X76601Y38485D01*
X76657Y38564D01*
X76687Y38695D01*
X76861Y38955D01*
X76999Y39653D01*
X76985Y39727D01*
X77446Y39974D01*
X81058Y36362D01*
X81453Y36097D01*
X81920Y36004D01*
X90932D01*
X93504Y33432D01*
Y11890D01*
X93561Y11602D01*
X93256Y11102D01*
X60605D01*
X60580Y11133D01*
X60423Y11602D01*
X65345Y16524D01*
X65824Y16379D01*
X65836Y16316D01*
X66231Y15725D01*
X66822Y15330D01*
X67520Y15191D01*
X68217Y15330D01*
X68465Y15496D01*
X68517Y15505D01*
X68559Y15507D01*
X68577Y15516D01*
X68584Y15517D01*
X68591Y15522D01*
X68595Y15524D01*
X68624Y15531D01*
X68669Y15541D01*
X68719Y15549D01*
X69006Y15569D01*
X69117Y15570D01*
X69169Y15593D01*
X84966D01*
X85510Y15701D01*
X85971Y16009D01*
X90936Y20974D01*
X90988Y20994D01*
X91154Y21152D01*
X91286Y21262D01*
X91331Y21295D01*
X91370Y21321D01*
X91395Y21335D01*
X91399Y21337D01*
X91408Y21339D01*
X91414Y21343D01*
X91432Y21349D01*
X91464Y21378D01*
X91507Y21408D01*
X91800Y21466D01*
X92391Y21861D01*
X92786Y22452D01*
X92925Y23150D01*
X92786Y23847D01*
X92391Y24438D01*
X91800Y24833D01*
X91102Y24972D01*
X90405Y24833D01*
X89814Y24438D01*
X89793Y24408D01*
X89322Y24603D01*
X89394Y24961D01*
Y31654D01*
X89285Y32197D01*
X88977Y32658D01*
X88516Y32967D01*
X87972Y33075D01*
X87429Y32967D01*
X87003Y32682D01*
X86853Y32621D01*
X86533D01*
X86382Y32682D01*
X85957Y32967D01*
X85413Y33075D01*
X84869Y32967D01*
X84438Y32678D01*
X84295Y32614D01*
X83879D01*
X83853Y32653D01*
X83395Y32959D01*
X83346Y32969D01*
Y28307D01*
Y23646D01*
X83395Y23655D01*
X83853Y23962D01*
X83879Y24000D01*
X84295D01*
X84438Y23936D01*
X84869Y23648D01*
X85413Y23540D01*
X85957Y23648D01*
X86382Y23932D01*
X86533Y23993D01*
X86853D01*
X87003Y23932D01*
X87429Y23648D01*
X87972Y23540D01*
X88516Y23648D01*
X88623Y23719D01*
X88651Y23724D01*
X88753Y23717D01*
X89151Y23471D01*
X89144Y23252D01*
X89029Y23120D01*
X88952Y23041D01*
X88931Y22988D01*
X84378Y18435D01*
X69176D01*
X69125Y18457D01*
X68896Y18463D01*
X68725Y18478D01*
X68669Y18487D01*
X68624Y18496D01*
X68595Y18504D01*
X68591Y18505D01*
X68584Y18510D01*
X68577Y18511D01*
X68559Y18520D01*
X68517Y18522D01*
X68465Y18532D01*
X68217Y18698D01*
X68154Y18710D01*
X68009Y19188D01*
X68505Y19684D01*
X68813Y20145D01*
X68921Y20689D01*
Y23453D01*
X69421Y23720D01*
X69518Y23655D01*
X69567Y23646D01*
Y28307D01*
Y32969D01*
X69518Y32959D01*
X69060Y32653D01*
X69034Y32614D01*
X68618D01*
X68476Y32678D01*
X68044Y32967D01*
X67500Y33075D01*
X66956Y32967D01*
X66531Y32682D01*
X66380Y32621D01*
X66061D01*
X65910Y32682D01*
X65485Y32967D01*
X64941Y33075D01*
X64397Y32967D01*
X63965Y32678D01*
X63823Y32614D01*
X63407D01*
X63381Y32653D01*
X62923Y32959D01*
X62874Y32969D01*
Y28307D01*
Y23646D01*
X62923Y23655D01*
X63381Y23962D01*
X63407Y24000D01*
X63823D01*
X63965Y23936D01*
X64397Y23648D01*
X64941Y23540D01*
X65485Y23648D01*
X65579Y23711D01*
X66079Y23444D01*
Y21277D01*
X58711Y13909D01*
X54654D01*
X54110Y13801D01*
X53649Y13493D01*
X52482Y12326D01*
X44711D01*
Y14606D01*
X44519Y15070D01*
X43968Y15621D01*
X43504Y15814D01*
X9055Y15814D01*
X9055Y15814D01*
X8591Y15621D01*
X8158Y15189D01*
X7966Y14724D01*
X7966Y10590D01*
X8158Y10126D01*
X8591Y9693D01*
X8860Y9582D01*
X8761Y9082D01*
X7296D01*
Y1469D01*
X14909D01*
Y9001D01*
X14909Y9082D01*
X15104Y9501D01*
X20207D01*
X20239Y9001D01*
X20109Y8984D01*
X19183Y8601D01*
X18388Y7990D01*
X17777Y7195D01*
X17394Y6269D01*
X17263Y5276D01*
X17394Y4282D01*
X17777Y3356D01*
X18388Y2561D01*
X19183Y1951D01*
X20109Y1567D01*
X21102Y1437D01*
X22096Y1567D01*
X23022Y1951D01*
X23817Y2561D01*
X24427Y3356D01*
X24811Y4282D01*
X24941Y5276D01*
X24811Y6269D01*
X24427Y7195D01*
X23817Y7990D01*
X23022Y8601D01*
X22096Y8984D01*
X21965Y9001D01*
X21998Y9501D01*
X40207D01*
X40239Y9001D01*
X40109Y8984D01*
X39183Y8601D01*
X38388Y7990D01*
X37778Y7195D01*
X37394Y6269D01*
X37263Y5276D01*
X37394Y4282D01*
X37778Y3356D01*
X38388Y2561D01*
X39183Y1951D01*
X40109Y1567D01*
X41102Y1437D01*
X42096Y1567D01*
X43022Y1951D01*
X43817Y2561D01*
X44427Y3356D01*
X44811Y4282D01*
X44941Y5276D01*
X44811Y6269D01*
X44427Y7195D01*
X43817Y7990D01*
X43022Y8601D01*
X42096Y8984D01*
X41965Y9001D01*
X41998Y9501D01*
X43543D01*
X43557Y9507D01*
X43669Y9484D01*
X50080D01*
X50112Y8985D01*
X50109Y8984D01*
X49183Y8601D01*
X48388Y7990D01*
X47778Y7195D01*
X47394Y6269D01*
X47263Y5276D01*
X47394Y4282D01*
X47778Y3356D01*
X48388Y2561D01*
X49183Y1951D01*
X50109Y1567D01*
X51102Y1437D01*
X52096Y1567D01*
X53022Y1951D01*
X53817Y2561D01*
X54427Y3356D01*
X54811Y4282D01*
X54855Y4622D01*
X54920Y4730D01*
X55010Y5341D01*
X55268Y6831D01*
X55426Y7518D01*
X55496Y7756D01*
X55556Y7923D01*
X55593Y7999D01*
X55632Y8053D01*
X55640Y8088D01*
X56214Y8662D01*
X58441D01*
X58611Y8162D01*
X58388Y7990D01*
X57778Y7195D01*
X57394Y6269D01*
X57263Y5276D01*
X57394Y4282D01*
X57778Y3356D01*
X58388Y2561D01*
X59183Y1951D01*
X60109Y1567D01*
X61102Y1437D01*
X62096Y1567D01*
X63022Y1951D01*
X63817Y2561D01*
X64427Y3356D01*
X64811Y4282D01*
X64941Y5276D01*
X64811Y6269D01*
X64427Y7195D01*
X63817Y7990D01*
X63594Y8162D01*
X63764Y8662D01*
X68441D01*
X68611Y8162D01*
X68388Y7990D01*
X67778Y7195D01*
X67394Y6269D01*
X67263Y5276D01*
X67394Y4282D01*
X67778Y3356D01*
X68388Y2561D01*
X69183Y1951D01*
X70109Y1567D01*
X71102Y1437D01*
X72096Y1567D01*
X73022Y1951D01*
X73817Y2561D01*
X74427Y3356D01*
X74811Y4282D01*
X74941Y5276D01*
X74811Y6269D01*
X74427Y7195D01*
X73817Y7990D01*
X73594Y8162D01*
X73764Y8662D01*
X78441D01*
X78611Y8162D01*
X78388Y7990D01*
X77777Y7195D01*
X77394Y6269D01*
X77263Y5276D01*
X77394Y4282D01*
X77777Y3356D01*
X78388Y2561D01*
X79183Y1951D01*
X80109Y1567D01*
X81102Y1437D01*
X82096Y1567D01*
X83022Y1951D01*
X83817Y2561D01*
X84427Y3356D01*
X84811Y4282D01*
X84941Y5276D01*
X84811Y6269D01*
X84427Y7195D01*
X83817Y7990D01*
X83594Y8162D01*
X83764Y8662D01*
X88441D01*
X88611Y8162D01*
X88388Y7990D01*
X87778Y7195D01*
X87394Y6269D01*
X87263Y5276D01*
X87394Y4282D01*
X87778Y3356D01*
X88388Y2561D01*
X89183Y1951D01*
X90109Y1567D01*
X91102Y1437D01*
X92096Y1567D01*
X93022Y1951D01*
X93817Y2561D01*
X94427Y3356D01*
X94811Y4282D01*
X94817Y4333D01*
X95338Y4455D01*
X95461Y4270D01*
X96558Y3173D01*
X96580Y3114D01*
X96640Y3050D01*
X96681Y3000D01*
X96718Y2948D01*
X96751Y2894D01*
X96781Y2838D01*
X96808Y2778D01*
X96831Y2715D01*
X96851Y2647D01*
X96868Y2575D01*
X96885Y2479D01*
X96956Y2365D01*
X97017Y2059D01*
X97412Y1467D01*
X97634Y1319D01*
X97483Y819D01*
X819D01*
Y89732D01*
X117291D01*
Y819D01*
D02*
G37*
G36*
X86007Y50441D02*
X86018Y50333D01*
X86036Y50227D01*
X86061Y50122D01*
X86092Y50019D01*
X86131Y49918D01*
X86177Y49818D01*
X86230Y49720D01*
X86291Y49623D01*
X86358Y49528D01*
X84469D01*
X84536Y49623D01*
X84596Y49720D01*
X84649Y49818D01*
X84695Y49918D01*
X84734Y50019D01*
X84766Y50122D01*
X84791Y50227D01*
X84809Y50333D01*
X84819Y50441D01*
X84823Y50550D01*
X86004D01*
X86007Y50441D01*
D02*
G37*
G36*
X37485Y48615D02*
X37382Y48484D01*
X37280Y48297D01*
X37179Y48053D01*
X37079Y47754D01*
X36881Y46988D01*
X36687Y45997D01*
X36614Y45532D01*
X36614Y42717D01*
X35590Y41693D01*
X30039D01*
X21102Y32756D01*
X21102Y24094D01*
X20157Y23150D01*
Y18465D01*
X19803Y18110D01*
X16614Y18110D01*
X16260Y18465D01*
Y34488D01*
X30591Y48819D01*
X33063Y48819D01*
X33174Y48836D01*
X35510Y49323D01*
X35809Y49423D01*
X36053Y49524D01*
X36240Y49626D01*
X36371Y49729D01*
X37485Y48615D01*
D02*
G37*
G36*
X75771Y49063D02*
X75782Y48955D01*
X75800Y48849D01*
X75824Y48744D01*
X75856Y48641D01*
X75895Y48540D01*
X75941Y48440D01*
X75994Y48342D01*
X76054Y48245D01*
X76122Y48150D01*
X74233D01*
X74300Y48245D01*
X74360Y48342D01*
X74413Y48440D01*
X74459Y48540D01*
X74498Y48641D01*
X74530Y48744D01*
X74555Y48849D01*
X74572Y48955D01*
X74583Y49063D01*
X74587Y49172D01*
X75768D01*
X75771Y49063D01*
D02*
G37*
G36*
X60417D02*
X60428Y48955D01*
X60445Y48849D01*
X60470Y48744D01*
X60502Y48641D01*
X60541Y48540D01*
X60587Y48440D01*
X60640Y48342D01*
X60700Y48245D01*
X60767Y48150D01*
X58878D01*
X58946Y48245D01*
X59006Y48342D01*
X59059Y48440D01*
X59105Y48540D01*
X59144Y48641D01*
X59176Y48744D01*
X59201Y48849D01*
X59218Y48955D01*
X59229Y49063D01*
X59232Y49172D01*
X60413D01*
X60417Y49063D01*
D02*
G37*
G36*
X48927Y58710D02*
X48946Y58658D01*
X49104Y58492D01*
X49215Y58360D01*
X49248Y58315D01*
X49273Y58276D01*
X49288Y58250D01*
X49290Y58247D01*
X49292Y58237D01*
X49296Y58232D01*
X49302Y58213D01*
X49331Y58182D01*
X49360Y58139D01*
X49419Y57846D01*
X49814Y57255D01*
X50405Y56860D01*
X51102Y56721D01*
X51800Y56860D01*
X52391Y57255D01*
X52786Y57846D01*
X53284Y57785D01*
Y52126D01*
X53392Y51582D01*
X53700Y51121D01*
X54161Y50813D01*
X54705Y50705D01*
X55248Y50813D01*
X55709Y51121D01*
X55734Y51158D01*
X56234D01*
X56259Y51121D01*
X56720Y50813D01*
X57264Y50705D01*
X57807Y50813D01*
X58103Y51010D01*
X58601Y50790D01*
X58603Y50789D01*
Y49251D01*
X58577Y49194D01*
X58574Y49106D01*
X58567Y49041D01*
X58557Y48979D01*
X58542Y48917D01*
X58523Y48856D01*
X58500Y48795D01*
X58472Y48734D01*
X58438Y48672D01*
X58399Y48608D01*
X58343Y48529D01*
X58313Y48399D01*
X58139Y48138D01*
X58079Y47835D01*
X58036Y47775D01*
X57522Y47480D01*
X57323Y47519D01*
X50941D01*
X50818Y48138D01*
X50422Y48730D01*
X49831Y49125D01*
X49134Y49263D01*
X48436Y49125D01*
X47845Y48730D01*
X47450Y48138D01*
X47311Y47441D01*
X47450Y46744D01*
X47845Y46152D01*
X48436Y45757D01*
X48849Y45675D01*
X48959Y45459D01*
X48890Y45122D01*
X48752Y44936D01*
X48436Y44873D01*
X47845Y44478D01*
X47450Y43886D01*
X47311Y43189D01*
X47450Y42492D01*
X47845Y41900D01*
X48436Y41505D01*
X49134Y41367D01*
X49831Y41505D01*
X50423Y41900D01*
X50818Y42492D01*
X50880Y42808D01*
X50951Y42922D01*
X50967Y43015D01*
X50983Y43085D01*
X51002Y43150D01*
X51017Y43189D01*
X56023D01*
X56967Y42245D01*
X56841Y41831D01*
X56765Y41740D01*
X56207Y41367D01*
X55816D01*
X55225Y41763D01*
X54528Y41901D01*
X53830Y41763D01*
X53239Y41367D01*
X52844Y40776D01*
X52705Y40079D01*
X52844Y39381D01*
X53239Y38790D01*
X53830Y38395D01*
X54295Y38302D01*
Y34563D01*
X54268Y34424D01*
Y32988D01*
X54161Y32967D01*
X53700Y32658D01*
X53392Y32197D01*
X53284Y31654D01*
Y27740D01*
X52784Y27533D01*
X48133Y32184D01*
X48114Y32234D01*
X47551Y32840D01*
X47357Y33082D01*
X47208Y33297D01*
X47138Y33420D01*
Y33923D01*
X47176Y34015D01*
X47155Y34065D01*
X47168Y34117D01*
X47138Y34166D01*
Y39382D01*
X44717D01*
X44675Y39404D01*
X44625Y39410D01*
X44604Y39444D01*
X44568Y39532D01*
X44532Y39668D01*
X44502Y39849D01*
X44501Y39857D01*
X44519Y39917D01*
X44598Y40107D01*
X44711Y40334D01*
X45987Y42282D01*
X46358Y42783D01*
X46388Y42904D01*
X46618Y43205D01*
X47032Y44204D01*
X47173Y45276D01*
X47032Y46348D01*
X46618Y47346D01*
X46389Y47645D01*
X46360Y47764D01*
X45644Y48747D01*
X45098Y49558D01*
X44718Y50204D01*
X44682Y50276D01*
X44711Y50334D01*
X45987Y52282D01*
X46358Y52783D01*
X46388Y52904D01*
X46618Y53205D01*
X47032Y54204D01*
X47173Y55276D01*
X47032Y56348D01*
X46618Y57346D01*
X45960Y58204D01*
X45657Y58437D01*
X45826Y58937D01*
X48699D01*
X48927Y58710D01*
D02*
G37*
G36*
X45448Y52658D02*
X44141Y50661D01*
X44000Y50379D01*
X43957Y50276D01*
X44000Y50172D01*
X44141Y49890D01*
X44543Y49208D01*
X45106Y48371D01*
X45830Y47377D01*
X40233D01*
X40615Y47894D01*
X41922Y49890D01*
X42063Y50172D01*
X42106Y50276D01*
X42063Y50379D01*
X41922Y50661D01*
X41520Y51343D01*
X40957Y52180D01*
X40233Y53174D01*
X45830D01*
X45448Y52658D01*
D02*
G37*
G36*
X87247Y47445D02*
X91838Y42854D01*
X91823Y42740D01*
X91268Y42341D01*
X91102Y42374D01*
X90405Y42235D01*
X89946Y41928D01*
X89724Y41972D01*
X83620D01*
X82106Y43486D01*
X82353Y43947D01*
X82854Y43847D01*
X83552Y43986D01*
X84143Y44381D01*
X84538Y44972D01*
X84677Y45669D01*
X84538Y46367D01*
X84431Y46527D01*
X84465Y46747D01*
X84950Y47089D01*
X85413Y46996D01*
X86111Y47135D01*
X86702Y47530D01*
X87247Y47445D01*
D02*
G37*
G36*
X83448Y47291D02*
X83459Y47184D01*
X83477Y47077D01*
X83501Y46973D01*
X83533Y46870D01*
X83572Y46768D01*
X83618Y46668D01*
X83671Y46570D01*
X83732Y46474D01*
X83799Y46378D01*
X81910D01*
X81977Y46474D01*
X82037Y46570D01*
X82090Y46668D01*
X82136Y46768D01*
X82175Y46870D01*
X82207Y46973D01*
X82232Y47077D01*
X82250Y47184D01*
X82260Y47291D01*
X82264Y47401D01*
X83445D01*
X83448Y47291D01*
D02*
G37*
G36*
X50315Y47329D02*
X50325Y47270D01*
X50342Y47209D01*
X50368Y47146D01*
X50402Y47080D01*
X50444Y47012D01*
X50494Y46942D01*
X50552Y46869D01*
X50693Y46717D01*
X49858Y45882D01*
X49781Y45956D01*
X49633Y46081D01*
X49563Y46131D01*
X49494Y46173D01*
X49429Y46207D01*
X49365Y46233D01*
X49305Y46250D01*
X49246Y46260D01*
X49189Y46261D01*
X50314Y47385D01*
X50315Y47329D01*
D02*
G37*
G36*
X62976Y46425D02*
X62987Y46317D01*
X63004Y46211D01*
X63029Y46106D01*
X63061Y46003D01*
X63100Y45902D01*
X63146Y45802D01*
X63199Y45704D01*
X63259Y45607D01*
X63326Y45512D01*
X61437D01*
X61505Y45607D01*
X61565Y45704D01*
X61618Y45802D01*
X61664Y45902D01*
X61703Y46003D01*
X61735Y46106D01*
X61760Y46211D01*
X61777Y46317D01*
X61788Y46425D01*
X61791Y46535D01*
X62972D01*
X62976Y46425D01*
D02*
G37*
G36*
X50772Y43992D02*
X50697Y43912D01*
X50629Y43829D01*
X50566Y43742D01*
X50510Y43651D01*
X50460Y43556D01*
X50416Y43458D01*
X50379Y43357D01*
X50348Y43251D01*
X50323Y43142D01*
X50304Y43030D01*
X48974Y44359D01*
X49087Y44378D01*
X49196Y44403D01*
X49301Y44434D01*
X49403Y44472D01*
X49501Y44515D01*
X49596Y44565D01*
X49686Y44621D01*
X49773Y44684D01*
X49857Y44752D01*
X49937Y44827D01*
X50772Y43992D01*
D02*
G37*
G36*
X73495Y42818D02*
X73435Y42721D01*
X73382Y42623D01*
X73336Y42523D01*
X73297Y42422D01*
X73265Y42319D01*
X73241Y42214D01*
X73223Y42108D01*
X73212Y42000D01*
X73209Y41890D01*
X72028D01*
X72024Y42000D01*
X72013Y42108D01*
X71996Y42214D01*
X71971Y42319D01*
X71939Y42422D01*
X71900Y42523D01*
X71854Y42623D01*
X71801Y42721D01*
X71741Y42818D01*
X71674Y42913D01*
X73563D01*
X73495Y42818D01*
D02*
G37*
G36*
X45448Y42658D02*
X44141Y40661D01*
X44000Y40379D01*
X43899Y40135D01*
X43839Y39931D01*
X43837Y39917D01*
X43850Y39767D01*
X43890Y39529D01*
X43945Y39323D01*
X44016Y39148D01*
X44102Y39006D01*
X44205Y38894D01*
X44323Y38815D01*
X44457Y38767D01*
X44606Y38752D01*
X41457D01*
X41606Y38767D01*
X41740Y38815D01*
X41858Y38894D01*
X41961Y39006D01*
X42047Y39148D01*
X42118Y39323D01*
X42173Y39529D01*
X42213Y39767D01*
X42226Y39917D01*
X42224Y39931D01*
X42164Y40135D01*
X42063Y40379D01*
X41922Y40661D01*
X41520Y41343D01*
X40957Y42180D01*
X40233Y43174D01*
X45830D01*
X45448Y42658D01*
D02*
G37*
G36*
X57390Y38902D02*
X57371Y38901D01*
X57348Y38892D01*
X57320Y38877D01*
X57287Y38855D01*
X57249Y38827D01*
X57159Y38751D01*
X56987Y38587D01*
X56430Y39144D01*
X56461Y39176D01*
X56486Y39206D01*
X56507Y39236D01*
X56524Y39264D01*
X56536Y39291D01*
X56543Y39317D01*
X56546Y39341D01*
X56543Y39364D01*
X56537Y39386D01*
X56525Y39406D01*
X57390Y38902D01*
D02*
G37*
G36*
X55487Y39386D02*
X55480Y39364D01*
X55478Y39341D01*
X55481Y39317D01*
X55488Y39291D01*
X55500Y39264D01*
X55516Y39236D01*
X55537Y39206D01*
X55563Y39176D01*
X55593Y39144D01*
X55037Y38587D01*
X54974Y38648D01*
X54737Y38855D01*
X54704Y38877D01*
X54676Y38892D01*
X54652Y38901D01*
X54634Y38902D01*
X55498Y39406D01*
X55487Y39386D01*
D02*
G37*
G36*
X76054Y38848D02*
X75994Y38752D01*
X75941Y38653D01*
X75895Y38554D01*
X75856Y38452D01*
X75824Y38349D01*
X75800Y38245D01*
X75782Y38138D01*
X75771Y38030D01*
X75768Y37921D01*
X74587D01*
X74583Y38030D01*
X74572Y38138D01*
X74555Y38245D01*
X74530Y38349D01*
X74498Y38452D01*
X74459Y38554D01*
X74413Y38653D01*
X74360Y38752D01*
X74300Y38848D01*
X74233Y38943D01*
X76122D01*
X76054Y38848D01*
D02*
G37*
G36*
X109047Y40106D02*
X109556Y37592D01*
X109635Y37374D01*
X109712Y37214D01*
X109786Y37112D01*
X108951Y36277D01*
X108849Y36351D01*
X108688Y36428D01*
X108471Y36507D01*
X108196Y36587D01*
X107473Y36753D01*
X105957Y37016D01*
X105337Y37108D01*
X108956Y40726D01*
X109047Y40106D01*
D02*
G37*
G36*
X46430Y33892D02*
X46386Y33747D01*
Y33580D01*
X46430Y33391D01*
X46520Y33180D01*
X46653Y32946D01*
X46831Y32690D01*
X47054Y32411D01*
X47633Y31788D01*
X46520Y30674D01*
X46197Y30986D01*
X45617Y31476D01*
X45361Y31654D01*
X45127Y31788D01*
X44916Y31877D01*
X44727Y31921D01*
X44560D01*
X44415Y31877D01*
X44292Y31788D01*
X46520Y34015D01*
X46430Y33892D01*
D02*
G37*
G36*
X109047Y30106D02*
X109556Y27592D01*
X109635Y27375D01*
X109712Y27214D01*
X109786Y27112D01*
X108951Y26276D01*
X108849Y26351D01*
X108688Y26428D01*
X108471Y26507D01*
X108196Y26587D01*
X107473Y26753D01*
X105957Y27016D01*
X105337Y27108D01*
X108956Y30726D01*
X109047Y30106D01*
D02*
G37*
G36*
X91269Y21980D02*
X91215Y21969D01*
X91156Y21948D01*
X91094Y21919D01*
X91027Y21881D01*
X90956Y21834D01*
X90880Y21779D01*
X90716Y21641D01*
X90535Y21469D01*
X89422Y22583D01*
X89512Y22675D01*
X89731Y22928D01*
X89787Y23003D01*
X89833Y23074D01*
X89872Y23141D01*
X89901Y23204D01*
X89921Y23262D01*
X89933Y23316D01*
X91269Y21980D01*
D02*
G37*
G36*
X53033Y20442D02*
X53057Y20109D01*
X53071Y20016D01*
X53088Y19933D01*
X53108Y19859D01*
X53132Y19794D01*
X53159Y19738D01*
X53189Y19692D01*
X51300D01*
X51329Y19738D01*
X51356Y19794D01*
X51380Y19859D01*
X51400Y19933D01*
X51417Y20016D01*
X51432Y20109D01*
X51450Y20322D01*
X51457Y20571D01*
X53031D01*
X53033Y20442D01*
D02*
G37*
G36*
X68275Y17928D02*
X68331Y17902D01*
X68396Y17878D01*
X68470Y17858D01*
X68553Y17840D01*
X68646Y17826D01*
X68859Y17808D01*
X69109Y17801D01*
Y16226D01*
X68979Y16225D01*
X68646Y16201D01*
X68553Y16187D01*
X68470Y16170D01*
X68396Y16149D01*
X68331Y16126D01*
X68275Y16099D01*
X68229Y16069D01*
Y17958D01*
X68275Y17928D01*
D02*
G37*
G36*
X44055Y14606D02*
Y10669D01*
X43543Y10158D01*
X9055D01*
X8622Y10590D01*
X8622Y14724D01*
X9055Y15157D01*
X43504Y15157D01*
X44055Y14606D01*
D02*
G37*
G36*
X55101Y8440D02*
X55027Y8337D01*
X54950Y8177D01*
X54871Y7959D01*
X54791Y7684D01*
X54625Y6961D01*
X54362Y5445D01*
X54270Y4825D01*
X50652Y8444D01*
X51272Y8535D01*
X53786Y9045D01*
X54003Y9123D01*
X54164Y9200D01*
X54266Y9275D01*
X55101Y8440D01*
D02*
G37*
G36*
X97974Y4323D02*
X98058Y4254D01*
X98145Y4192D01*
X98237Y4135D01*
X98332Y4085D01*
X98431Y4041D01*
X98535Y4003D01*
X98642Y3971D01*
X98752Y3945D01*
X98867Y3925D01*
X97531Y2590D01*
X97512Y2704D01*
X97486Y2815D01*
X97454Y2922D01*
X97416Y3025D01*
X97372Y3125D01*
X97321Y3220D01*
X97265Y3311D01*
X97202Y3399D01*
X97134Y3483D01*
X97059Y3563D01*
X97894Y4398D01*
X97974Y4323D01*
D02*
G37*
%LPC*%
G36*
X14909Y89082D02*
X7296D01*
Y81469D01*
X14909D01*
Y89082D01*
D02*
G37*
G36*
X91102Y89115D02*
X90109Y88984D01*
X89183Y88600D01*
X88388Y87990D01*
X87778Y87195D01*
X87394Y86269D01*
X87263Y85276D01*
X87394Y84282D01*
X87778Y83356D01*
X88388Y82561D01*
X89183Y81951D01*
X90109Y81567D01*
X91102Y81437D01*
X92096Y81567D01*
X93022Y81951D01*
X93817Y82561D01*
X94427Y83356D01*
X94811Y84282D01*
X94941Y85276D01*
X94811Y86269D01*
X94427Y87195D01*
X93817Y87990D01*
X93022Y88600D01*
X92096Y88984D01*
X91102Y89115D01*
D02*
G37*
G36*
X51102D02*
X50109Y88984D01*
X49183Y88600D01*
X48388Y87990D01*
X47778Y87195D01*
X47394Y86269D01*
X47263Y85276D01*
X47394Y84282D01*
X47778Y83356D01*
X48388Y82561D01*
X49183Y81951D01*
X50109Y81567D01*
X51102Y81437D01*
X52096Y81567D01*
X53022Y81951D01*
X53817Y82561D01*
X54427Y83356D01*
X54811Y84282D01*
X54941Y85276D01*
X54811Y86269D01*
X54427Y87195D01*
X53817Y87990D01*
X53022Y88600D01*
X52096Y88984D01*
X51102Y89115D01*
D02*
G37*
G36*
X41102D02*
X40109Y88984D01*
X39183Y88600D01*
X38388Y87990D01*
X37778Y87195D01*
X37394Y86269D01*
X37263Y85276D01*
X37394Y84282D01*
X37778Y83356D01*
X38388Y82561D01*
X39183Y81951D01*
X40109Y81567D01*
X41102Y81437D01*
X42096Y81567D01*
X43022Y81951D01*
X43817Y82561D01*
X44427Y83356D01*
X44811Y84282D01*
X44941Y85276D01*
X44811Y86269D01*
X44427Y87195D01*
X43817Y87990D01*
X43022Y88600D01*
X42096Y88984D01*
X41102Y89115D01*
D02*
G37*
G36*
X31102D02*
X30109Y88984D01*
X29183Y88600D01*
X28388Y87990D01*
X27777Y87195D01*
X27394Y86269D01*
X27263Y85276D01*
X27394Y84282D01*
X27777Y83356D01*
X28388Y82561D01*
X29183Y81951D01*
X30109Y81567D01*
X31102Y81437D01*
X32096Y81567D01*
X33022Y81951D01*
X33817Y82561D01*
X34427Y83356D01*
X34811Y84282D01*
X34941Y85276D01*
X34811Y86269D01*
X34427Y87195D01*
X33817Y87990D01*
X33022Y88600D01*
X32096Y88984D01*
X31102Y89115D01*
D02*
G37*
G36*
X21102D02*
X20109Y88984D01*
X19183Y88600D01*
X18388Y87990D01*
X17777Y87195D01*
X17394Y86269D01*
X17263Y85276D01*
X17394Y84282D01*
X17777Y83356D01*
X18388Y82561D01*
X19183Y81951D01*
X20109Y81567D01*
X21102Y81437D01*
X22096Y81567D01*
X23022Y81951D01*
X23817Y82561D01*
X24427Y83356D01*
X24811Y84282D01*
X24941Y85276D01*
X24811Y86269D01*
X24427Y87195D01*
X23817Y87990D01*
X23022Y88600D01*
X22096Y88984D01*
X21102Y89115D01*
D02*
G37*
G36*
X36740Y80106D02*
X34862D01*
Y78130D01*
X36740D01*
Y80106D01*
D02*
G37*
G36*
X33878D02*
X32000D01*
Y78130D01*
X33878D01*
Y80106D01*
D02*
G37*
G36*
X17842D02*
X15965D01*
Y78130D01*
X17842D01*
Y80106D01*
D02*
G37*
G36*
X14980D02*
X13102D01*
Y78130D01*
X14980D01*
Y80106D01*
D02*
G37*
G36*
X57016Y77075D02*
X53760D01*
Y74508D01*
X57016D01*
Y77075D01*
D02*
G37*
G36*
X52776D02*
X49520D01*
Y74508D01*
X52776D01*
Y77075D01*
D02*
G37*
G36*
X81102Y89115D02*
X80109Y88984D01*
X79183Y88600D01*
X78388Y87990D01*
X77777Y87195D01*
X77394Y86269D01*
X77263Y85276D01*
X77394Y84282D01*
X77777Y83356D01*
X77986Y83084D01*
X78017Y82963D01*
X78386Y82466D01*
X79256Y81230D01*
X79631Y80632D01*
X79749Y80415D01*
X79825Y80254D01*
X79853Y80175D01*
X79863Y80109D01*
X79882Y80079D01*
Y79307D01*
X77740D01*
Y73370D01*
X83677D01*
Y79307D01*
X82323D01*
Y80079D01*
X82341Y80109D01*
X82351Y80175D01*
X82380Y80254D01*
X82443Y80391D01*
X83824Y82474D01*
X84188Y82963D01*
X84218Y83084D01*
X84427Y83356D01*
X84811Y84282D01*
X84941Y85276D01*
X84811Y86269D01*
X84427Y87195D01*
X83817Y87990D01*
X83022Y88600D01*
X82096Y88984D01*
X81102Y89115D01*
D02*
G37*
G36*
X17842Y77146D02*
X13102D01*
Y75573D01*
X13102Y75188D01*
X12716Y74913D01*
X12711Y74907D01*
X12016Y74213D01*
X11824Y73749D01*
Y65748D01*
X12016Y65284D01*
X16312Y60988D01*
X16312Y55490D01*
X15812Y55223D01*
X15398Y55499D01*
X14547Y55669D01*
X13696Y55499D01*
X12975Y55017D01*
X12493Y54296D01*
X12323Y53445D01*
X12493Y52594D01*
X12677Y52318D01*
X12442Y51877D01*
X11929D01*
X11465Y51684D01*
X11111Y51330D01*
X10919Y50866D01*
X10919Y50159D01*
X10532Y49841D01*
X10429Y49862D01*
X9732Y49723D01*
X9140Y49328D01*
X8745Y48737D01*
X8607Y48039D01*
X8745Y47342D01*
X9140Y46751D01*
X9261Y46670D01*
Y46170D01*
X9144Y46092D01*
X8749Y45500D01*
X8611Y44803D01*
X8749Y44106D01*
X9144Y43514D01*
X9736Y43119D01*
X10433Y42981D01*
X11130Y43119D01*
X11669Y43479D01*
X11907Y43419D01*
X12169Y43284D01*
Y41323D01*
X18697D01*
Y43882D01*
Y48674D01*
X18779D01*
X19243Y48867D01*
X24086Y53709D01*
X24278Y54173D01*
X24278Y73701D01*
X24086Y74165D01*
X23736Y74515D01*
Y74701D01*
X23550D01*
X23338Y74913D01*
X22874Y75105D01*
X18316D01*
X17842Y75605D01*
Y77146D01*
D02*
G37*
G36*
X105787Y54115D02*
X104794Y53984D01*
X103868Y53600D01*
X103073Y52990D01*
X102463Y52195D01*
X102079Y51269D01*
X101948Y50276D01*
X102079Y49282D01*
X102463Y48356D01*
X103073Y47561D01*
X103868Y46951D01*
X104794Y46567D01*
X105787Y46437D01*
X106781Y46567D01*
X107707Y46951D01*
X108502Y47561D01*
X109112Y48356D01*
X109496Y49282D01*
X109626Y50276D01*
X109496Y51269D01*
X109112Y52195D01*
X108502Y52990D01*
X107707Y53600D01*
X106781Y53984D01*
X105787Y54115D01*
D02*
G37*
G36*
X82362Y32969D02*
X82314Y32959D01*
X81883Y32671D01*
X81742Y32607D01*
X81407D01*
X81266Y32671D01*
X80836Y32959D01*
X80787Y32969D01*
Y28307D01*
Y23646D01*
X80836Y23655D01*
X81266Y23943D01*
X81407Y24007D01*
X81742D01*
X81883Y23943D01*
X82314Y23655D01*
X82362Y23646D01*
Y28307D01*
Y32969D01*
D02*
G37*
G36*
X27626Y28472D02*
X25650D01*
Y26594D01*
X27626D01*
Y28472D01*
D02*
G37*
G36*
X44665D02*
X42689D01*
Y26594D01*
X44665D01*
Y28472D01*
D02*
G37*
G36*
X24665D02*
X22689D01*
Y26594D01*
X24665D01*
Y28472D01*
D02*
G37*
G36*
X47626Y25610D02*
X45650D01*
Y23732D01*
X47626D01*
Y25610D01*
D02*
G37*
G36*
X44665D02*
X42689D01*
Y23732D01*
X44665D01*
Y25610D01*
D02*
G37*
G36*
X27626D02*
X25650D01*
Y23732D01*
X27626D01*
Y25610D01*
D02*
G37*
G36*
X24665D02*
X22689D01*
Y23732D01*
X24665D01*
Y25610D01*
D02*
G37*
G36*
X28093Y22835D02*
X26215D01*
Y20760D01*
X28093D01*
Y22835D01*
D02*
G37*
G36*
X48211D02*
X46333D01*
Y20760D01*
X48211D01*
Y22835D01*
D02*
G37*
G36*
X45348D02*
X43470D01*
Y20760D01*
X45348D01*
Y22835D01*
D02*
G37*
G36*
X25230D02*
X23352D01*
Y20760D01*
X25230D01*
Y22835D01*
D02*
G37*
G36*
X34417Y21996D02*
X32539D01*
Y20020D01*
X34417D01*
Y21996D01*
D02*
G37*
G36*
X14457D02*
X12579D01*
Y20020D01*
X14457D01*
Y21996D01*
D02*
G37*
G36*
X11594D02*
X9717D01*
Y20020D01*
X11594D01*
Y21996D01*
D02*
G37*
G36*
X31555D02*
X29677D01*
Y20020D01*
X31555D01*
Y21996D01*
D02*
G37*
G36*
X48211Y19776D02*
X46333D01*
Y17701D01*
X48211D01*
Y19776D01*
D02*
G37*
G36*
X45348D02*
X43470D01*
Y17701D01*
X45348D01*
Y19776D01*
D02*
G37*
G36*
X28093D02*
X26215D01*
Y17701D01*
X28093D01*
Y19776D01*
D02*
G37*
G36*
X25230D02*
X23352D01*
Y17701D01*
X25230D01*
Y19776D01*
D02*
G37*
G36*
X35328Y39522D02*
X30624D01*
X30160Y39329D01*
X29063Y38233D01*
X28871Y37769D01*
Y30512D01*
X29063Y30048D01*
X35722Y23390D01*
X35722Y18425D01*
X35914Y17961D01*
X35955Y17920D01*
Y17693D01*
X36182D01*
X36229Y17646D01*
X36693Y17454D01*
X40079D01*
X40543Y17646D01*
X40589Y17693D01*
X40711D01*
Y17814D01*
X40976Y18079D01*
X41168Y18543D01*
Y23232D01*
X41566Y23630D01*
X41758Y24094D01*
Y28228D01*
X41566Y28692D01*
X40897Y29362D01*
X40433Y29554D01*
X37713Y29554D01*
X37270Y29996D01*
Y37579D01*
X37078Y38043D01*
X35792Y39329D01*
X35328Y39522D01*
D02*
G37*
G36*
X34417Y19035D02*
X32539D01*
Y17059D01*
X34417D01*
Y19035D01*
D02*
G37*
G36*
X31555D02*
X29677D01*
Y17059D01*
X31555D01*
Y19035D01*
D02*
G37*
G36*
X14457D02*
X12579D01*
Y17059D01*
X14457D01*
Y19035D01*
D02*
G37*
G36*
X11594D02*
X9717D01*
Y17059D01*
X11594D01*
Y19035D01*
D02*
G37*
%LPD*%
G36*
X83287Y82851D02*
X81870Y80713D01*
X81772Y80504D01*
X81713Y80336D01*
X81693Y80211D01*
X80512D01*
X80492Y80336D01*
X80433Y80504D01*
X80335Y80713D01*
X80197Y80964D01*
X79803Y81593D01*
X78917Y82851D01*
X78544Y83354D01*
X83661D01*
X83287Y82851D01*
D02*
G37*
G36*
X23622Y73701D02*
X23622Y54173D01*
X18779Y49331D01*
X11890Y49331D01*
X11575Y49646D01*
X11575Y50866D01*
X11929Y51221D01*
X15551Y51221D01*
X16969Y52638D01*
X16969Y61260D01*
X12480Y65748D01*
Y73749D01*
X13181Y74449D01*
X22874Y74449D01*
X23622Y73701D01*
D02*
G37*
G36*
X11853Y45580D02*
X11799Y45522D01*
X11751Y45462D01*
X11710Y45401D01*
X11676Y45339D01*
X11648Y45276D01*
X11626Y45211D01*
X11611Y45145D01*
X11603Y45077D01*
X11602Y45008D01*
X11606Y44938D01*
X10688Y45956D01*
X10757Y45944D01*
X10825Y45939D01*
X10890Y45940D01*
X10954Y45948D01*
X11015Y45963D01*
X11075Y45984D01*
X11133Y46012D01*
X11190Y46047D01*
X11244Y46088D01*
X11296Y46137D01*
X11853Y45580D01*
D02*
G37*
G36*
X36614Y37579D02*
Y29724D01*
X37441Y28898D01*
X40433Y28898D01*
X41102Y28228D01*
Y24094D01*
X40512Y23504D01*
Y18543D01*
X40079Y18110D01*
X36693D01*
X36378Y18425D01*
X36378Y23661D01*
X29528Y30512D01*
Y37769D01*
X30624Y38865D01*
X35328D01*
X36614Y37579D01*
D02*
G37*
D11*
X88091Y75453D02*
X88976Y76339D01*
X88091Y70276D02*
Y75453D01*
X72894Y75532D02*
X73701Y76339D01*
X72894Y70276D02*
Y75532D01*
D13*
X57496Y39653D02*
Y40079D01*
X56709Y38865D02*
X57496Y39653D01*
X57264Y28307D02*
Y31867D01*
X56709Y33875D02*
Y38865D01*
X56681Y33847D02*
X56709Y33875D01*
X56681Y32449D02*
X57264Y31867D01*
X56681Y32449D02*
Y33847D01*
X15433Y47835D02*
X15827Y47441D01*
X10429Y48039D02*
X10787D01*
X15039Y47441D02*
X15433Y47835D01*
X12897Y47441D02*
X15039D01*
X10787Y48039D02*
X11575Y47252D01*
X12708D02*
X12897Y47441D01*
X11575Y47252D02*
X12708D01*
X54528Y39653D02*
X55315Y38865D01*
Y34452D02*
Y38865D01*
X55287Y34424D02*
X55315Y34452D01*
X55287Y32449D02*
Y34424D01*
X54528Y39653D02*
Y40079D01*
X54705Y28307D02*
Y31867D01*
X55287Y32449D01*
X12708Y45858D02*
X12897Y45669D01*
X11575Y45858D02*
X12708D01*
X15039Y45669D02*
X15433Y45276D01*
X12897Y45669D02*
X15039D01*
X10520Y44803D02*
X11575Y45858D01*
X10433Y44803D02*
X10520D01*
D16*
X112652Y11252D02*
D03*
X105144D02*
D03*
X108898Y3472D02*
D03*
X25722Y20268D02*
D03*
X18215D02*
D03*
X21969Y12488D02*
D03*
X45840Y20268D02*
D03*
X38333D02*
D03*
X42087Y12488D02*
D03*
D17*
X88976Y76339D02*
D03*
X80709D02*
D03*
X73701D02*
D03*
X65433D02*
D03*
D18*
X66398Y70276D02*
D03*
X72894D02*
D03*
X81595D02*
D03*
X88091D02*
D03*
D19*
X12087Y13228D02*
D03*
Y19527D02*
D03*
X34370Y77638D02*
D03*
Y71339D02*
D03*
X15473Y77638D02*
D03*
Y71339D02*
D03*
X32047Y13228D02*
D03*
Y19527D02*
D03*
D20*
X38858Y26102D02*
D03*
X45158D02*
D03*
X18858D02*
D03*
X25157D02*
D03*
D21*
X15433Y50394D02*
D03*
Y40157D02*
D03*
Y42717D02*
D03*
Y45276D02*
D03*
Y47835D02*
D03*
D22*
X4902Y29528D02*
D03*
Y61024D02*
D03*
D23*
Y40551D02*
D03*
Y50000D02*
D03*
D24*
X53268Y74016D02*
D03*
X43425D02*
D03*
D25*
X28346Y71339D02*
D03*
X21457D02*
D03*
D26*
X54705Y28307D02*
D03*
X57264D02*
D03*
X59823D02*
D03*
X62382D02*
D03*
X64941D02*
D03*
X67500D02*
D03*
X70059D02*
D03*
X72618D02*
D03*
X75177D02*
D03*
X77736D02*
D03*
X80295D02*
D03*
X82854D02*
D03*
X85413D02*
D03*
X87972D02*
D03*
X54705Y55472D02*
D03*
X57264D02*
D03*
X59823D02*
D03*
X62382D02*
D03*
X64941D02*
D03*
X67500D02*
D03*
X70059D02*
D03*
X72618D02*
D03*
X75177D02*
D03*
X77736D02*
D03*
X80295D02*
D03*
X82854D02*
D03*
X85413D02*
D03*
X87972D02*
D03*
D43*
X45158Y69724D02*
X45492Y69390D01*
X57874D01*
X61102Y72618D01*
X49288Y60358D02*
X51102Y58543D01*
X40279Y60358D02*
X49288D01*
X38026Y58104D02*
X40279Y60358D01*
X38026Y50270D02*
Y58104D01*
X33031Y45276D02*
X38026Y50270D01*
X78189Y66772D02*
X81595Y70177D01*
X69803Y66772D02*
X78189D01*
X66398Y70177D02*
X69803Y66772D01*
X73701Y61870D02*
X81269D01*
X83321Y63921D01*
X91102D01*
X83031Y40551D02*
X89724D01*
X80279Y43303D02*
X83031Y40551D01*
X80279Y43303D02*
Y48357D01*
X63445Y70276D02*
X66398D01*
X61102Y72618D02*
X63445Y70276D01*
X61102Y72618D02*
Y85276D01*
X81595Y70177D02*
Y70276D01*
X66398Y70177D02*
Y70276D01*
X54654Y12488D02*
X59299D01*
X53071Y10905D02*
X54654Y12488D01*
X43669Y10905D02*
X53071D01*
X67500Y20689D02*
Y28307D01*
X59299Y12488D02*
X67500Y20689D01*
X42087Y12488D02*
X43669Y10905D01*
X84966Y17014D02*
X91102Y23150D01*
X67520Y17014D02*
X84966D01*
X52244Y18982D02*
Y26063D01*
X43031Y35276D02*
X52244Y26063D01*
X80279Y48357D02*
X80295Y48372D01*
Y55472D01*
X43031Y45276D02*
Y55276D01*
Y35276D02*
Y45276D01*
X60528Y63622D02*
X60709D01*
D44*
X49134Y43189D02*
X50354Y44409D01*
X50275Y46299D02*
X57323D01*
X49134Y47441D02*
X50275Y46299D01*
X93428Y66772D02*
X99924Y60276D01*
X105787D01*
X82293Y66772D02*
X93428D01*
X79769Y64248D02*
X82293Y66772D01*
X65606Y64248D02*
X79769D01*
X62457Y61099D02*
X65606Y64248D01*
X62457Y55548D02*
Y61099D01*
X62382Y55472D02*
X62457Y55548D01*
X81920Y37224D02*
X91437D01*
X77736Y41408D02*
X81920Y37224D01*
X77736Y41408D02*
Y55472D01*
X65472Y79646D02*
X71102Y85276D01*
X65472Y76378D02*
Y79646D01*
X80709Y76339D02*
X81102Y76732D01*
Y85276D01*
X55708Y9882D02*
X94173D01*
X51102Y5276D02*
X55708Y9882D01*
X94173D02*
X96324Y7731D01*
Y5133D02*
Y7731D01*
Y5133D02*
X98701Y2756D01*
X94724Y11890D02*
Y33937D01*
X91437Y37224D02*
X94724Y33937D01*
X96512Y12630D02*
Y39906D01*
X87972Y48445D02*
X96512Y39906D01*
X87972Y48445D02*
Y55472D01*
X75177Y28307D02*
Y39653D01*
X72618Y28307D02*
Y43622D01*
X85413Y48819D02*
Y55472D01*
X82854Y45669D02*
Y55472D01*
X96512Y12630D02*
X100229Y8913D01*
X103002D01*
X105144Y11055D01*
Y11252D01*
X99488Y7126D02*
X108722D01*
X112652Y11055D01*
Y11252D01*
X94724Y11890D02*
X99488Y7126D01*
X112652Y11252D02*
Y33411D01*
X105787Y40276D02*
X112652Y33411D01*
X105144Y11449D02*
X110709Y17014D01*
X105144Y11252D02*
Y11449D01*
X110709Y17014D02*
Y25354D01*
X105787Y30276D02*
X110709Y25354D01*
X75177Y47441D02*
Y55472D01*
X56528Y44409D02*
X60859Y40079D01*
X50354Y44409D02*
X56528D01*
X57323Y46299D02*
X61417Y42205D01*
X64016Y40079D02*
X67500Y43563D01*
Y55472D01*
X60859Y40079D02*
X64016D01*
X61417Y42205D02*
X63346D01*
X64941Y43799D02*
Y55472D01*
X63346Y42205D02*
X64941Y43799D01*
X62382Y44803D02*
Y55472D01*
X59823Y47441D02*
Y55472D01*
X57264Y60358D02*
X60528Y63622D01*
X57264Y55472D02*
Y60358D01*
X54705Y62917D02*
X57496Y65709D01*
X54705Y55472D02*
Y62917D01*
D45*
X33031Y55276D02*
D03*
X43031D02*
D03*
X33031Y35276D02*
D03*
X43031Y45276D02*
D03*
X33031D02*
D03*
D46*
X43031Y35276D02*
D03*
D47*
X14547Y53445D02*
D03*
Y37106D02*
D03*
D48*
X105787Y20276D02*
D03*
D49*
Y30276D02*
D03*
Y40276D02*
D03*
Y50276D02*
D03*
Y60276D02*
D03*
Y70276D02*
D03*
X91102Y85276D02*
D03*
X81102D02*
D03*
X61102D02*
D03*
X41102D02*
D03*
X31102D02*
D03*
X21102D02*
D03*
X51102D02*
D03*
X71102D02*
D03*
X91102Y5276D02*
D03*
X81102D02*
D03*
X61102D02*
D03*
X41102D02*
D03*
X31102D02*
D03*
X21102D02*
D03*
X51102D02*
D03*
X71102D02*
D03*
D50*
X11102Y85276D02*
D03*
Y5276D02*
D03*
D51*
X115748Y86496D02*
D03*
X113780Y82559D02*
D03*
X115748Y78622D02*
D03*
X113780Y74685D02*
D03*
X115748Y70748D02*
D03*
X113780Y66811D02*
D03*
X115748Y62874D02*
D03*
X113780Y58937D02*
D03*
X115748Y55000D02*
D03*
X113780Y51063D02*
D03*
X115748Y47126D02*
D03*
X113780Y43189D02*
D03*
X115748Y39252D02*
D03*
X111811Y86496D02*
D03*
X109843Y82559D02*
D03*
X111811Y78622D02*
D03*
X109843Y74685D02*
D03*
X111811Y70748D02*
D03*
Y62874D02*
D03*
Y55000D02*
D03*
Y47126D02*
D03*
Y39252D02*
D03*
X107874Y86496D02*
D03*
X105906Y82559D02*
D03*
X107874Y78622D02*
D03*
Y55000D02*
D03*
X103937Y86496D02*
D03*
X101969Y82559D02*
D03*
X103937Y78622D02*
D03*
X101969Y74685D02*
D03*
X103937Y55000D02*
D03*
X101969Y35315D02*
D03*
X100000Y86496D02*
D03*
X98032Y82559D02*
D03*
X100000Y78622D02*
D03*
X98032Y74685D02*
D03*
X100000Y70748D02*
D03*
X98032Y66811D02*
D03*
X100000Y55000D02*
D03*
X98032Y43189D02*
D03*
X100000Y39252D02*
D03*
Y31378D02*
D03*
Y23504D02*
D03*
Y15630D02*
D03*
X96063Y86496D02*
D03*
Y78622D02*
D03*
X94095Y74685D02*
D03*
X96063Y70748D02*
D03*
X94095Y58937D02*
D03*
X96063Y55000D02*
D03*
X94095Y51063D02*
D03*
X92126Y55000D02*
D03*
Y15630D02*
D03*
X86221Y82559D02*
D03*
X88189Y15630D02*
D03*
X86221Y3819D02*
D03*
X62599Y19567D02*
D03*
X52756Y15630D02*
D03*
X48819D02*
D03*
X21260Y78622D02*
D03*
X11417Y58937D02*
D03*
Y35315D02*
D03*
X13386Y31378D02*
D03*
X11417Y27441D02*
D03*
X9449Y78622D02*
D03*
X7480Y74685D02*
D03*
X9449Y70748D02*
D03*
X7480Y66811D02*
D03*
Y19567D02*
D03*
X5512Y86496D02*
D03*
X3543Y82559D02*
D03*
X5512Y78622D02*
D03*
X3543Y74685D02*
D03*
X5512Y70748D02*
D03*
X3543Y66811D02*
D03*
X5512Y23504D02*
D03*
X3543Y19567D02*
D03*
X5512Y15630D02*
D03*
X3543Y11693D02*
D03*
X5512Y7756D02*
D03*
X3543Y3819D02*
D03*
X49134Y47441D02*
D03*
X51102Y58543D02*
D03*
X73701Y61870D02*
D03*
X91102Y63921D02*
D03*
X98701Y2756D02*
D03*
X91102Y23150D02*
D03*
X67520Y17014D02*
D03*
X52244Y18982D02*
D03*
X91102Y40551D02*
D03*
X75177Y39653D02*
D03*
X72618Y43622D02*
D03*
X85413Y48819D02*
D03*
X82854Y45669D02*
D03*
X75177Y47441D02*
D03*
X49134Y43189D02*
D03*
X62382Y44803D02*
D03*
X59823Y47441D02*
D03*
X60709Y63622D02*
D03*
X57496Y65709D02*
D03*
X25161Y12807D02*
D03*
X18500Y12657D02*
D03*
X15646D02*
D03*
X57496Y40079D02*
D03*
X54528D02*
D03*
X10433Y44803D02*
D03*
X10429Y48039D02*
D03*
M02*
