G04*
G04 #@! TF.GenerationSoftware,Altium Limited,Altium Designer,19.1.7 (138)*
G04*
G04 Layer_Color=65535*
%FSLAX25Y25*%
%MOIN*%
G70*
G01*
G75*
%ADD10C,0.02362*%
%ADD11C,0.00984*%
%ADD12C,0.00197*%
%ADD13C,0.00787*%
%ADD14C,0.00800*%
%ADD15C,0.00394*%
G36*
X70354Y74764D02*
X68780Y76339D01*
X70354Y77913D01*
Y74764D01*
D02*
G37*
G36*
X68780D02*
X68661D01*
Y77913D01*
X68780D01*
Y74764D01*
D02*
G37*
G36*
X85630D02*
X84055Y76339D01*
X85630Y77913D01*
Y74764D01*
D02*
G37*
G36*
X84055D02*
X83937D01*
Y77913D01*
X84055D01*
Y74764D01*
D02*
G37*
G36*
X101496Y65417D02*
Y55417D01*
Y45417D01*
Y35417D01*
Y25417D01*
Y14410D01*
X92835D01*
Y25417D01*
Y35417D01*
Y45417D01*
Y55417D01*
Y65417D01*
Y76181D01*
X101496D01*
Y65417D01*
D02*
G37*
G36*
X91037Y61929D02*
X63150D01*
Y67087D01*
X91037D01*
Y61929D01*
D02*
G37*
G36*
X28189Y52520D02*
X28189D01*
Y41614D01*
X28189D01*
Y29803D01*
X20315D01*
Y40787D01*
X20315D01*
Y52598D01*
X20315D01*
Y60624D01*
X28189D01*
Y52520D01*
D02*
G37*
G36*
X48583Y60630D02*
X20315D01*
Y65787D01*
X48583D01*
Y60630D01*
D02*
G37*
%LPC*%
G36*
X95207Y72050D02*
X95167D01*
X95065Y72046D01*
X94967Y72035D01*
X94876Y72017D01*
X94792Y71995D01*
X94712Y71969D01*
X94639Y71937D01*
X94570Y71908D01*
X94512Y71875D01*
X94457Y71838D01*
X94410Y71809D01*
X94370Y71780D01*
X94337Y71751D01*
X94308Y71729D01*
X94290Y71711D01*
X94279Y71700D01*
X94275Y71697D01*
X94217Y71627D01*
X94166Y71558D01*
X94122Y71482D01*
X94082Y71409D01*
X94053Y71333D01*
X94024Y71256D01*
X94002Y71183D01*
X93984Y71114D01*
X93973Y71045D01*
X93962Y70987D01*
X93955Y70929D01*
X93948Y70881D01*
Y70845D01*
X93944Y70816D01*
Y70790D01*
X93948Y70688D01*
X93959Y70590D01*
X93973Y70499D01*
X93991Y70412D01*
X94013Y70332D01*
X94039Y70259D01*
X94068Y70190D01*
X94097Y70128D01*
X94122Y70073D01*
X94152Y70026D01*
X94177Y69986D01*
X94199Y69949D01*
X94217Y69924D01*
X94232Y69902D01*
X94243Y69891D01*
X94246Y69887D01*
X94304Y69829D01*
X94370Y69775D01*
X94435Y69731D01*
X94505Y69691D01*
X94574Y69658D01*
X94643Y69633D01*
X94708Y69611D01*
X94774Y69593D01*
X94836Y69578D01*
X94890Y69567D01*
X94941Y69560D01*
X94985Y69553D01*
X95021D01*
X95051Y69549D01*
X95072D01*
X95163Y69553D01*
X95251Y69560D01*
X95331Y69571D01*
X95404Y69585D01*
X95465Y69596D01*
X95491Y69604D01*
X95513Y69607D01*
X95531Y69611D01*
X95542Y69614D01*
X95549Y69618D01*
X95553D01*
X95640Y69647D01*
X95717Y69676D01*
X95786Y69709D01*
X95844Y69742D01*
X95891Y69771D01*
X95924Y69793D01*
X95946Y69807D01*
X95953Y69815D01*
Y70899D01*
X95189D01*
Y70532D01*
X95524D01*
Y70055D01*
X95465Y70015D01*
X95400Y69982D01*
X95338Y69960D01*
X95280Y69946D01*
X95225Y69938D01*
X95185Y69935D01*
X95167Y69931D01*
X95145D01*
X95083Y69935D01*
X95021Y69942D01*
X94963Y69953D01*
X94912Y69968D01*
X94861Y69986D01*
X94818Y70004D01*
X94774Y70026D01*
X94737Y70048D01*
X94705Y70066D01*
X94676Y70088D01*
X94650Y70106D01*
X94628Y70124D01*
X94614Y70139D01*
X94603Y70149D01*
X94596Y70157D01*
X94592Y70160D01*
X94555Y70204D01*
X94526Y70251D01*
X94501Y70302D01*
X94475Y70353D01*
X94439Y70455D01*
X94417Y70554D01*
X94410Y70601D01*
X94403Y70641D01*
X94399Y70681D01*
X94395Y70710D01*
X94392Y70739D01*
Y70757D01*
Y70772D01*
Y70776D01*
X94395Y70848D01*
X94399Y70921D01*
X94410Y70987D01*
X94424Y71049D01*
X94439Y71107D01*
X94457Y71161D01*
X94475Y71209D01*
X94494Y71252D01*
X94512Y71293D01*
X94530Y71325D01*
X94548Y71354D01*
X94563Y71380D01*
X94577Y71398D01*
X94588Y71413D01*
X94592Y71420D01*
X94596Y71424D01*
X94636Y71467D01*
X94679Y71504D01*
X94727Y71536D01*
X94770Y71566D01*
X94818Y71587D01*
X94865Y71609D01*
X94956Y71638D01*
X94996Y71646D01*
X95036Y71653D01*
X95072Y71660D01*
X95101Y71664D01*
X95127Y71667D01*
X95160D01*
X95203Y71664D01*
X95251Y71657D01*
X95294Y71646D01*
X95338Y71635D01*
X95375Y71620D01*
X95404Y71609D01*
X95422Y71602D01*
X95429Y71598D01*
X95484Y71573D01*
X95535Y71551D01*
X95575Y71529D01*
X95608Y71507D01*
X95633Y71493D01*
X95651Y71478D01*
X95662Y71471D01*
X95666Y71467D01*
X95848Y71813D01*
X95793Y71853D01*
X95739Y71889D01*
X95680Y71922D01*
X95622Y71951D01*
X95567Y71973D01*
X95509Y71991D01*
X95404Y72021D01*
X95353Y72031D01*
X95309Y72039D01*
X95269Y72042D01*
X95233Y72046D01*
X95207Y72050D01*
D02*
G37*
G36*
X98097Y72010D02*
X97682D01*
Y70550D01*
X96539Y72010D01*
X96332D01*
Y69589D01*
X96747D01*
Y71089D01*
X97922Y69556D01*
X98097D01*
Y72010D01*
D02*
G37*
G36*
X99258Y72028D02*
X99127D01*
X99080Y72024D01*
X99029D01*
X98975Y72021D01*
X98865D01*
X98811Y72017D01*
X98763D01*
X98716Y72013D01*
X98676D01*
X98640Y72010D01*
X98592D01*
Y69589D01*
X99127D01*
X99240Y69593D01*
X99349Y69604D01*
X99451Y69622D01*
X99542Y69644D01*
X99630Y69676D01*
X99710Y69709D01*
X99786Y69749D01*
X99855Y69793D01*
X99921Y69840D01*
X99979Y69891D01*
X100030Y69946D01*
X100081Y70000D01*
X100125Y70059D01*
X100161Y70120D01*
X100198Y70179D01*
X100230Y70240D01*
X100256Y70302D01*
X100281Y70361D01*
X100321Y70481D01*
X100347Y70590D01*
X100358Y70641D01*
X100369Y70688D01*
X100372Y70732D01*
X100380Y70772D01*
X100383Y70808D01*
Y70837D01*
X100387Y70859D01*
Y70892D01*
X100383Y70987D01*
X100372Y71074D01*
X100358Y71158D01*
X100339Y71238D01*
X100314Y71311D01*
X100288Y71380D01*
X100259Y71442D01*
X100230Y71496D01*
X100201Y71547D01*
X100172Y71591D01*
X100147Y71627D01*
X100121Y71660D01*
X100103Y71682D01*
X100088Y71700D01*
X100077Y71711D01*
X100074Y71715D01*
X100012Y71769D01*
X99950Y71817D01*
X99881Y71860D01*
X99812Y71897D01*
X99743Y71926D01*
X99673Y71951D01*
X99604Y71973D01*
X99539Y71988D01*
X99477Y72002D01*
X99419Y72010D01*
X99368Y72017D01*
X99324Y72024D01*
X99287D01*
X99258Y72028D01*
D02*
G37*
G36*
X95613Y61786D02*
X95562D01*
X95453Y61782D01*
X95347Y61768D01*
X95249Y61742D01*
X95158Y61717D01*
X95071Y61680D01*
X94990Y61640D01*
X94918Y61600D01*
X94852Y61560D01*
X94790Y61516D01*
X94739Y61476D01*
X94696Y61436D01*
X94659Y61404D01*
X94630Y61374D01*
X94608Y61349D01*
X94594Y61335D01*
X94590Y61331D01*
X94525Y61243D01*
X94466Y61152D01*
X94419Y61062D01*
X94375Y60967D01*
X94339Y60872D01*
X94310Y60778D01*
X94284Y60690D01*
X94266Y60603D01*
X94252Y60523D01*
X94237Y60446D01*
X94230Y60381D01*
X94226Y60326D01*
X94222Y60279D01*
X94219Y60242D01*
Y60213D01*
X94222Y60137D01*
X94230Y60064D01*
X94241Y59999D01*
X94255Y59933D01*
X94273Y59875D01*
X94295Y59817D01*
X94317Y59766D01*
X94339Y59722D01*
X94361Y59678D01*
X94383Y59646D01*
X94405Y59613D01*
X94423Y59587D01*
X94437Y59566D01*
X94448Y59551D01*
X94455Y59544D01*
X94459Y59540D01*
X94506Y59496D01*
X94557Y59456D01*
X94608Y59424D01*
X94663Y59394D01*
X94714Y59369D01*
X94769Y59347D01*
X94819Y59329D01*
X94870Y59318D01*
X94914Y59307D01*
X94958Y59300D01*
X94998Y59293D01*
X95030Y59289D01*
X95060Y59285D01*
X95096D01*
X95176Y59289D01*
X95253Y59293D01*
X95322Y59303D01*
X95391Y59318D01*
X95449Y59333D01*
X95504Y59351D01*
X95555Y59369D01*
X95602Y59387D01*
X95642Y59405D01*
X95675Y59424D01*
X95704Y59442D01*
X95729Y59456D01*
X95748Y59471D01*
X95762Y59482D01*
X95770Y59485D01*
X95773Y59489D01*
X95784Y59868D01*
X95740Y59831D01*
X95697Y59802D01*
X95649Y59773D01*
X95598Y59751D01*
X95496Y59715D01*
X95402Y59689D01*
X95358Y59682D01*
X95315Y59675D01*
X95278Y59671D01*
X95245Y59667D01*
X95220Y59664D01*
X95183D01*
X95140Y59667D01*
X95096Y59671D01*
X95020Y59689D01*
X94954Y59715D01*
X94899Y59747D01*
X94859Y59777D01*
X94827Y59802D01*
X94809Y59820D01*
X94801Y59828D01*
X94757Y59893D01*
X94725Y59970D01*
X94699Y60042D01*
X94685Y60111D01*
X94674Y60177D01*
X94670Y60202D01*
Y60224D01*
X94666Y60246D01*
Y60261D01*
Y60268D01*
Y60272D01*
X94670Y60352D01*
X94678Y60428D01*
X94688Y60505D01*
X94707Y60574D01*
X94725Y60643D01*
X94747Y60708D01*
X94769Y60767D01*
X94794Y60825D01*
X94816Y60876D01*
X94838Y60920D01*
X94859Y60960D01*
X94878Y60992D01*
X94896Y61018D01*
X94907Y61040D01*
X94914Y61051D01*
X94918Y61054D01*
X94965Y61116D01*
X95016Y61171D01*
X95067Y61218D01*
X95122Y61262D01*
X95173Y61295D01*
X95223Y61324D01*
X95274Y61349D01*
X95322Y61367D01*
X95369Y61382D01*
X95409Y61393D01*
X95446Y61400D01*
X95478Y61407D01*
X95504D01*
X95526Y61411D01*
X95540D01*
X95624Y61404D01*
X95704Y61389D01*
X95777Y61367D01*
X95839Y61345D01*
X95890Y61320D01*
X95926Y61298D01*
X95941Y61287D01*
X95951Y61284D01*
X95955Y61276D01*
X95959D01*
X96083Y61688D01*
X95995Y61720D01*
X95904Y61746D01*
X95817Y61760D01*
X95737Y61775D01*
X95700Y61779D01*
X95667Y61782D01*
X95638D01*
X95613Y61786D01*
D02*
G37*
G36*
X99595D02*
X99548D01*
X99482Y61782D01*
X99420Y61779D01*
X99362Y61768D01*
X99304Y61757D01*
X99253Y61742D01*
X99206Y61724D01*
X99162Y61706D01*
X99122Y61688D01*
X99085Y61669D01*
X99056Y61651D01*
X99027Y61637D01*
X99005Y61618D01*
X98987Y61607D01*
X98976Y61597D01*
X98969Y61593D01*
X98965Y61589D01*
X98925Y61553D01*
X98893Y61509D01*
X98864Y61469D01*
X98838Y61426D01*
X98820Y61378D01*
X98802Y61335D01*
X98776Y61251D01*
X98765Y61214D01*
X98758Y61178D01*
X98754Y61145D01*
X98751Y61116D01*
X98747Y61094D01*
Y61076D01*
Y61065D01*
Y61062D01*
X98751Y61000D01*
X98754Y60970D01*
X98758Y60945D01*
X98761Y60923D01*
X98765Y60909D01*
X98769Y60898D01*
Y60894D01*
X98791Y60836D01*
X98802Y60807D01*
X98813Y60785D01*
X98823Y60763D01*
X98831Y60748D01*
X98834Y60738D01*
X98838Y60734D01*
X98871Y60683D01*
X98900Y60647D01*
X98911Y60632D01*
X98918Y60621D01*
X98925Y60617D01*
Y60614D01*
X98944Y60596D01*
X98969Y60577D01*
X99024Y60530D01*
X99045Y60512D01*
X99067Y60494D01*
X99082Y60483D01*
X99085Y60479D01*
X99344Y60272D01*
X99380Y60242D01*
X99417Y60213D01*
X99442Y60184D01*
X99468Y60155D01*
X99489Y60130D01*
X99508Y60104D01*
X99533Y60061D01*
X99548Y60021D01*
X99555Y59995D01*
X99559Y59977D01*
Y59970D01*
X99555Y59922D01*
X99541Y59878D01*
X99522Y59842D01*
X99501Y59809D01*
X99475Y59787D01*
X99457Y59769D01*
X99442Y59758D01*
X99439Y59755D01*
X99391Y59729D01*
X99344Y59711D01*
X99297Y59700D01*
X99249Y59693D01*
X99209Y59686D01*
X99177Y59682D01*
X99147D01*
X99093Y59686D01*
X99042Y59689D01*
X98944Y59707D01*
X98856Y59737D01*
X98783Y59769D01*
X98751Y59784D01*
X98721Y59798D01*
X98696Y59813D01*
X98674Y59828D01*
X98656Y59838D01*
X98645Y59846D01*
X98638Y59853D01*
X98634D01*
X98496Y59427D01*
X98605Y59380D01*
X98714Y59343D01*
X98816Y59322D01*
X98911Y59303D01*
X98954Y59296D01*
X98991Y59293D01*
X99027Y59289D01*
X99056D01*
X99078Y59285D01*
X99111D01*
X99184Y59289D01*
X99253Y59293D01*
X99318Y59303D01*
X99380Y59314D01*
X99435Y59329D01*
X99489Y59343D01*
X99537Y59362D01*
X99581Y59380D01*
X99621Y59394D01*
X99657Y59413D01*
X99686Y59427D01*
X99712Y59442D01*
X99730Y59453D01*
X99744Y59464D01*
X99752Y59467D01*
X99755Y59471D01*
X99799Y59507D01*
X99839Y59547D01*
X99872Y59587D01*
X99901Y59631D01*
X99926Y59675D01*
X99945Y59715D01*
X99963Y59758D01*
X99974Y59798D01*
X99992Y59875D01*
X99999Y59904D01*
X100003Y59933D01*
X100006Y59955D01*
Y59973D01*
Y59984D01*
Y59988D01*
X100003Y60050D01*
X99999Y60079D01*
X99995Y60104D01*
X99988Y60126D01*
X99985Y60141D01*
X99981Y60151D01*
Y60155D01*
X99959Y60217D01*
X99945Y60242D01*
X99934Y60268D01*
X99923Y60290D01*
X99912Y60304D01*
X99908Y60315D01*
X99905Y60319D01*
X99868Y60374D01*
X99853Y60392D01*
X99839Y60410D01*
X99828Y60425D01*
X99817Y60435D01*
X99813Y60439D01*
X99810Y60443D01*
X99792Y60461D01*
X99766Y60486D01*
X99715Y60534D01*
X99690Y60556D01*
X99672Y60574D01*
X99657Y60585D01*
X99653Y60588D01*
X99402Y60799D01*
X99366Y60832D01*
X99333Y60865D01*
X99308Y60894D01*
X99282Y60923D01*
X99264Y60949D01*
X99246Y60974D01*
X99220Y61018D01*
X99206Y61054D01*
X99198Y61083D01*
X99195Y61098D01*
Y61105D01*
X99198Y61160D01*
X99213Y61203D01*
X99231Y61247D01*
X99257Y61280D01*
X99286Y61309D01*
X99318Y61335D01*
X99355Y61353D01*
X99391Y61371D01*
X99464Y61393D01*
X99497Y61396D01*
X99526Y61404D01*
X99551D01*
X99570Y61407D01*
X99588D01*
X99661Y61400D01*
X99733Y61386D01*
X99799Y61364D01*
X99857Y61338D01*
X99908Y61309D01*
X99945Y61287D01*
X99959Y61280D01*
X99970Y61273D01*
X99974Y61265D01*
X99977D01*
X100112Y61695D01*
X100079Y61706D01*
X100039Y61717D01*
X99952Y61739D01*
X99912Y61746D01*
X99879Y61753D01*
X99857Y61757D01*
X99850D01*
X99784Y61768D01*
X99726Y61775D01*
X99672Y61779D01*
X99628Y61782D01*
X99595Y61786D01*
D02*
G37*
G36*
X98478Y61746D02*
X96508D01*
X96439Y61367D01*
X97211D01*
X96836Y59325D01*
X97269D01*
X97644Y61367D01*
X98409D01*
X98478Y61746D01*
D02*
G37*
G36*
X99717Y51786D02*
X99666D01*
X99557Y51782D01*
X99451Y51768D01*
X99353Y51742D01*
X99262Y51717D01*
X99175Y51680D01*
X99095Y51640D01*
X99022Y51600D01*
X98956Y51560D01*
X98894Y51516D01*
X98843Y51477D01*
X98800Y51436D01*
X98763Y51404D01*
X98734Y51375D01*
X98712Y51349D01*
X98698Y51335D01*
X98694Y51331D01*
X98629Y51244D01*
X98570Y51152D01*
X98523Y51061D01*
X98479Y50967D01*
X98443Y50872D01*
X98414Y50778D01*
X98388Y50690D01*
X98370Y50603D01*
X98356Y50523D01*
X98341Y50446D01*
X98334Y50381D01*
X98330Y50326D01*
X98327Y50279D01*
X98323Y50243D01*
Y50213D01*
X98327Y50137D01*
X98334Y50064D01*
X98345Y49999D01*
X98359Y49933D01*
X98378Y49875D01*
X98399Y49817D01*
X98421Y49766D01*
X98443Y49722D01*
X98465Y49678D01*
X98487Y49646D01*
X98509Y49613D01*
X98527Y49587D01*
X98541Y49566D01*
X98552Y49551D01*
X98559Y49544D01*
X98563Y49540D01*
X98611Y49496D01*
X98661Y49456D01*
X98712Y49424D01*
X98767Y49394D01*
X98818Y49369D01*
X98873Y49347D01*
X98923Y49329D01*
X98975Y49318D01*
X99018Y49307D01*
X99062Y49300D01*
X99102Y49292D01*
X99135Y49289D01*
X99164Y49285D01*
X99200D01*
X99280Y49289D01*
X99357Y49292D01*
X99426Y49303D01*
X99495Y49318D01*
X99553Y49332D01*
X99608Y49351D01*
X99659Y49369D01*
X99706Y49387D01*
X99746Y49405D01*
X99779Y49424D01*
X99808Y49442D01*
X99834Y49456D01*
X99852Y49471D01*
X99866Y49482D01*
X99874Y49485D01*
X99877Y49489D01*
X99888Y49868D01*
X99844Y49831D01*
X99801Y49802D01*
X99753Y49773D01*
X99703Y49751D01*
X99601Y49715D01*
X99506Y49689D01*
X99462Y49682D01*
X99419Y49675D01*
X99382Y49671D01*
X99349Y49667D01*
X99324Y49664D01*
X99287D01*
X99244Y49667D01*
X99200Y49671D01*
X99124Y49689D01*
X99058Y49715D01*
X99004Y49747D01*
X98964Y49777D01*
X98931Y49802D01*
X98913Y49820D01*
X98905Y49828D01*
X98862Y49893D01*
X98829Y49970D01*
X98803Y50042D01*
X98789Y50112D01*
X98778Y50177D01*
X98774Y50203D01*
Y50224D01*
X98771Y50246D01*
Y50261D01*
Y50268D01*
Y50272D01*
X98774Y50352D01*
X98782Y50428D01*
X98792Y50505D01*
X98811Y50574D01*
X98829Y50643D01*
X98851Y50708D01*
X98873Y50767D01*
X98898Y50825D01*
X98920Y50876D01*
X98942Y50920D01*
X98964Y50960D01*
X98982Y50992D01*
X99000Y51018D01*
X99011Y51040D01*
X99018Y51051D01*
X99022Y51054D01*
X99069Y51116D01*
X99120Y51171D01*
X99171Y51218D01*
X99226Y51262D01*
X99277Y51294D01*
X99328Y51324D01*
X99379Y51349D01*
X99426Y51367D01*
X99473Y51382D01*
X99513Y51393D01*
X99550Y51400D01*
X99582Y51407D01*
X99608D01*
X99630Y51411D01*
X99644D01*
X99728Y51404D01*
X99808Y51389D01*
X99881Y51367D01*
X99943Y51345D01*
X99994Y51320D01*
X100030Y51298D01*
X100045Y51287D01*
X100056Y51284D01*
X100059Y51276D01*
X100063D01*
X100187Y51688D01*
X100099Y51720D01*
X100008Y51746D01*
X99921Y51760D01*
X99841Y51775D01*
X99804Y51779D01*
X99772Y51782D01*
X99743D01*
X99717Y51786D01*
D02*
G37*
G36*
X97642D02*
X97591D01*
X97482Y51782D01*
X97377Y51768D01*
X97278Y51742D01*
X97187Y51717D01*
X97100Y51680D01*
X97020Y51640D01*
X96947Y51600D01*
X96882Y51560D01*
X96820Y51516D01*
X96769Y51477D01*
X96725Y51436D01*
X96689Y51404D01*
X96659Y51375D01*
X96638Y51349D01*
X96623Y51335D01*
X96619Y51331D01*
X96554Y51244D01*
X96496Y51152D01*
X96448Y51061D01*
X96405Y50967D01*
X96368Y50872D01*
X96339Y50778D01*
X96314Y50690D01*
X96295Y50603D01*
X96281Y50523D01*
X96266Y50446D01*
X96259Y50381D01*
X96255Y50326D01*
X96252Y50279D01*
X96248Y50243D01*
Y50213D01*
X96252Y50137D01*
X96259Y50064D01*
X96270Y49999D01*
X96285Y49933D01*
X96303Y49875D01*
X96325Y49817D01*
X96346Y49766D01*
X96368Y49722D01*
X96390Y49678D01*
X96412Y49646D01*
X96434Y49613D01*
X96452Y49587D01*
X96466Y49566D01*
X96477Y49551D01*
X96485Y49544D01*
X96488Y49540D01*
X96536Y49496D01*
X96587Y49456D01*
X96638Y49424D01*
X96692Y49394D01*
X96743Y49369D01*
X96798Y49347D01*
X96849Y49329D01*
X96900Y49318D01*
X96943Y49307D01*
X96987Y49300D01*
X97027Y49292D01*
X97060Y49289D01*
X97089Y49285D01*
X97125D01*
X97205Y49289D01*
X97282Y49292D01*
X97351Y49303D01*
X97420Y49318D01*
X97478Y49332D01*
X97533Y49351D01*
X97584Y49369D01*
X97631Y49387D01*
X97671Y49405D01*
X97704Y49424D01*
X97733Y49442D01*
X97759Y49456D01*
X97777Y49471D01*
X97791Y49482D01*
X97799Y49485D01*
X97802Y49489D01*
X97813Y49868D01*
X97770Y49831D01*
X97726Y49802D01*
X97679Y49773D01*
X97628Y49751D01*
X97526Y49715D01*
X97431Y49689D01*
X97387Y49682D01*
X97344Y49675D01*
X97307Y49671D01*
X97275Y49667D01*
X97249Y49664D01*
X97213D01*
X97169Y49667D01*
X97125Y49671D01*
X97049Y49689D01*
X96983Y49715D01*
X96929Y49747D01*
X96889Y49777D01*
X96856Y49802D01*
X96838Y49820D01*
X96830Y49828D01*
X96787Y49893D01*
X96754Y49970D01*
X96729Y50042D01*
X96714Y50112D01*
X96703Y50177D01*
X96700Y50203D01*
Y50224D01*
X96696Y50246D01*
Y50261D01*
Y50268D01*
Y50272D01*
X96700Y50352D01*
X96707Y50428D01*
X96718Y50505D01*
X96736Y50574D01*
X96754Y50643D01*
X96776Y50708D01*
X96798Y50767D01*
X96823Y50825D01*
X96845Y50876D01*
X96867Y50920D01*
X96889Y50960D01*
X96907Y50992D01*
X96925Y51018D01*
X96936Y51040D01*
X96943Y51051D01*
X96947Y51054D01*
X96994Y51116D01*
X97045Y51171D01*
X97096Y51218D01*
X97151Y51262D01*
X97202Y51294D01*
X97253Y51324D01*
X97304Y51349D01*
X97351Y51367D01*
X97398Y51382D01*
X97438Y51393D01*
X97475Y51400D01*
X97508Y51407D01*
X97533D01*
X97555Y51411D01*
X97569D01*
X97653Y51404D01*
X97733Y51389D01*
X97806Y51367D01*
X97868Y51345D01*
X97919Y51320D01*
X97955Y51298D01*
X97970Y51287D01*
X97981Y51284D01*
X97984Y51276D01*
X97988D01*
X98112Y51688D01*
X98024Y51720D01*
X97933Y51746D01*
X97846Y51760D01*
X97766Y51775D01*
X97730Y51779D01*
X97697Y51782D01*
X97668D01*
X97642Y51786D01*
D02*
G37*
G36*
X96223Y51746D02*
X95739D01*
X94894Y50148D01*
X94603Y51746D01*
X94144D01*
X94632Y49292D01*
X94865D01*
X96223Y51746D01*
D02*
G37*
G36*
X99371Y41733D02*
X98869D01*
X98247Y40947D01*
X97904Y41730D01*
X97460Y41733D01*
X97948Y40572D01*
X96951Y39312D01*
X97453D01*
X98126Y40161D01*
X98487Y39312D01*
X98960D01*
X98425Y40539D01*
X99371Y41733D01*
D02*
G37*
G36*
X96070Y41759D02*
X95964D01*
X95920Y41755D01*
X95873D01*
X95768Y41751D01*
X95662Y41748D01*
X95611Y41744D01*
X95564Y41740D01*
X95520D01*
X95480Y41737D01*
X95447D01*
X95425Y41733D01*
X95404D01*
X94960Y39312D01*
X95400D01*
X95589Y40328D01*
X95648Y40324D01*
X95702Y40321D01*
X95749Y40317D01*
X95789D01*
X95822Y40314D01*
X95866D01*
X96328Y39312D01*
X96812D01*
X96274Y40383D01*
X96372Y40415D01*
X96459Y40455D01*
X96536Y40499D01*
X96598Y40546D01*
X96649Y40590D01*
X96685Y40630D01*
X96696Y40641D01*
X96707Y40652D01*
X96714Y40659D01*
Y40663D01*
X96743Y40703D01*
X96769Y40747D01*
X96812Y40834D01*
X96841Y40918D01*
X96860Y40998D01*
X96874Y41067D01*
X96878Y41096D01*
Y41122D01*
X96882Y41140D01*
Y41169D01*
X96878Y41220D01*
X96871Y41271D01*
X96860Y41315D01*
X96845Y41358D01*
X96809Y41431D01*
X96769Y41493D01*
X96725Y41544D01*
X96689Y41577D01*
X96674Y41591D01*
X96663Y41598D01*
X96656Y41606D01*
X96652D01*
X96609Y41631D01*
X96561Y41657D01*
X96459Y41693D01*
X96357Y41722D01*
X96259Y41740D01*
X96212Y41748D01*
X96168Y41751D01*
X96132Y41755D01*
X96099D01*
X96070Y41759D01*
D02*
G37*
G36*
X99351Y31746D02*
X98849D01*
X98226Y30960D01*
X97884Y31742D01*
X97440Y31746D01*
X97928Y30585D01*
X97018Y29436D01*
X96931Y29325D01*
X97433D01*
X98106Y30173D01*
X98467Y29325D01*
X98940D01*
X98405Y30552D01*
X99351Y31746D01*
D02*
G37*
G36*
X97018D02*
X95049D01*
X94980Y31367D01*
X95751D01*
X95376Y29325D01*
X95810D01*
X96184Y31367D01*
X96949D01*
X97018Y31746D01*
D02*
G37*
G36*
X99550Y21306D02*
X99444D01*
X99400Y21303D01*
X99353D01*
X99247Y21299D01*
X99142Y21295D01*
X99091Y21292D01*
X99044Y21288D01*
X99000D01*
X98960Y21284D01*
X98927D01*
X98905Y21281D01*
X98883D01*
X98439Y18860D01*
X98880D01*
X99069Y19876D01*
X99127Y19872D01*
X99182Y19869D01*
X99229Y19865D01*
X99269D01*
X99302Y19861D01*
X99346D01*
X99808Y18860D01*
X100292D01*
X99753Y19930D01*
X99852Y19963D01*
X99939Y20003D01*
X100015Y20047D01*
X100077Y20094D01*
X100128Y20138D01*
X100165Y20178D01*
X100176Y20189D01*
X100187Y20200D01*
X100194Y20207D01*
Y20211D01*
X100223Y20251D01*
X100249Y20294D01*
X100292Y20382D01*
X100321Y20466D01*
X100339Y20546D01*
X100354Y20615D01*
X100358Y20644D01*
Y20669D01*
X100361Y20688D01*
Y20717D01*
X100358Y20768D01*
X100350Y20819D01*
X100339Y20862D01*
X100325Y20906D01*
X100288Y20979D01*
X100249Y21041D01*
X100205Y21092D01*
X100168Y21124D01*
X100154Y21139D01*
X100143Y21146D01*
X100136Y21154D01*
X100132D01*
X100088Y21179D01*
X100041Y21204D01*
X99939Y21241D01*
X99837Y21270D01*
X99739Y21288D01*
X99692Y21295D01*
X99648Y21299D01*
X99612Y21303D01*
X99579D01*
X99550Y21306D01*
D02*
G37*
G36*
X98407Y21281D02*
X96437D01*
X96368Y20902D01*
X97140D01*
X96765Y18860D01*
X97198D01*
X97573Y20902D01*
X98338D01*
X98407Y21281D01*
D02*
G37*
G36*
X94916Y21321D02*
X94781D01*
X94701Y21314D01*
X94625Y21306D01*
X94555Y21299D01*
X94497Y21292D01*
X94472Y21288D01*
X94450Y21284D01*
X94435Y21281D01*
X94421D01*
X94414Y21277D01*
X94410D01*
X93970Y18860D01*
X94552D01*
X94672Y18864D01*
X94788Y18879D01*
X94898Y18897D01*
X95000Y18922D01*
X95094Y18955D01*
X95182Y18988D01*
X95262Y19024D01*
X95335Y19060D01*
X95400Y19097D01*
X95458Y19133D01*
X95506Y19170D01*
X95546Y19199D01*
X95578Y19224D01*
X95600Y19242D01*
X95615Y19257D01*
X95618Y19261D01*
X95688Y19337D01*
X95749Y19421D01*
X95804Y19508D01*
X95851Y19599D01*
X95888Y19687D01*
X95920Y19778D01*
X95946Y19865D01*
X95968Y19949D01*
X95986Y20029D01*
X95997Y20101D01*
X96008Y20167D01*
X96012Y20222D01*
X96015Y20269D01*
X96019Y20305D01*
Y20335D01*
X96015Y20422D01*
X96004Y20502D01*
X95990Y20578D01*
X95972Y20651D01*
X95950Y20717D01*
X95924Y20775D01*
X95895Y20830D01*
X95870Y20880D01*
X95840Y20924D01*
X95811Y20961D01*
X95786Y20993D01*
X95764Y21019D01*
X95746Y21041D01*
X95731Y21055D01*
X95720Y21062D01*
X95717Y21066D01*
X95658Y21110D01*
X95593Y21150D01*
X95527Y21183D01*
X95455Y21215D01*
X95385Y21237D01*
X95313Y21259D01*
X95244Y21277D01*
X95174Y21288D01*
X95112Y21299D01*
X95054Y21306D01*
X95000Y21314D01*
X94952Y21317D01*
X94916Y21321D01*
D02*
G37*
%LPD*%
G36*
X99280Y71642D02*
X99342Y71638D01*
X99400Y71627D01*
X99455Y71613D01*
X99502Y71595D01*
X99550Y71573D01*
X99633Y71525D01*
X99703Y71464D01*
X99761Y71398D01*
X99812Y71329D01*
X99848Y71256D01*
X99877Y71183D01*
X99903Y71114D01*
X99917Y71049D01*
X99928Y70987D01*
X99935Y70939D01*
X99939Y70899D01*
Y70885D01*
Y70874D01*
Y70870D01*
Y70867D01*
X99935Y70790D01*
X99932Y70717D01*
X99921Y70648D01*
X99910Y70583D01*
X99895Y70524D01*
X99881Y70470D01*
X99863Y70419D01*
X99848Y70375D01*
X99830Y70335D01*
X99812Y70302D01*
X99797Y70273D01*
X99783Y70248D01*
X99772Y70230D01*
X99761Y70215D01*
X99757Y70208D01*
X99753Y70204D01*
X99717Y70164D01*
X99677Y70128D01*
X99637Y70095D01*
X99597Y70069D01*
X99553Y70048D01*
X99510Y70029D01*
X99430Y70000D01*
X99357Y69982D01*
X99324Y69978D01*
X99298Y69975D01*
X99277Y69971D01*
X99160D01*
X99120Y69975D01*
X99062D01*
X99040Y69978D01*
X99022D01*
Y71631D01*
X99066Y71635D01*
X99106Y71638D01*
X99138Y71642D01*
X99164Y71646D01*
X99215D01*
X99280Y71642D01*
D02*
G37*
G36*
X96033Y41373D02*
X96113Y41365D01*
X96183Y41355D01*
X96237Y41340D01*
X96281Y41325D01*
X96310Y41315D01*
X96325Y41307D01*
X96332Y41304D01*
X96372Y41274D01*
X96401Y41238D01*
X96423Y41198D01*
X96437Y41158D01*
X96445Y41125D01*
X96452Y41096D01*
Y41074D01*
Y41071D01*
Y41067D01*
Y41031D01*
X96445Y40998D01*
X96426Y40936D01*
X96394Y40885D01*
X96354Y40841D01*
X96306Y40801D01*
X96255Y40769D01*
X96197Y40743D01*
X96139Y40725D01*
X96081Y40707D01*
X96022Y40696D01*
X95972Y40685D01*
X95924Y40681D01*
X95884Y40677D01*
X95851Y40674D01*
X95826D01*
X95768Y40677D01*
X95709Y40681D01*
X95688D01*
X95669Y40685D01*
X95651D01*
X95775Y41362D01*
X95822Y41365D01*
X95859Y41369D01*
X95884Y41373D01*
X95906Y41376D01*
X95986D01*
X96033Y41373D01*
D02*
G37*
G36*
X99513Y20921D02*
X99593Y20913D01*
X99662Y20902D01*
X99717Y20888D01*
X99761Y20873D01*
X99790Y20862D01*
X99804Y20855D01*
X99812Y20851D01*
X99852Y20822D01*
X99881Y20786D01*
X99903Y20746D01*
X99917Y20706D01*
X99924Y20673D01*
X99932Y20644D01*
Y20622D01*
Y20618D01*
Y20615D01*
Y20578D01*
X99924Y20546D01*
X99906Y20484D01*
X99874Y20433D01*
X99834Y20389D01*
X99786Y20349D01*
X99735Y20316D01*
X99677Y20291D01*
X99619Y20273D01*
X99560Y20254D01*
X99502Y20244D01*
X99451Y20233D01*
X99404Y20229D01*
X99364Y20225D01*
X99331Y20222D01*
X99306D01*
X99247Y20225D01*
X99189Y20229D01*
X99167D01*
X99149Y20233D01*
X99131D01*
X99255Y20910D01*
X99302Y20913D01*
X99339Y20917D01*
X99364Y20921D01*
X99386Y20924D01*
X99466D01*
X99513Y20921D01*
D02*
G37*
G36*
X95032Y20939D02*
X95120Y20921D01*
X95200Y20895D01*
X95265Y20866D01*
X95316Y20833D01*
X95338Y20819D01*
X95356Y20808D01*
X95371Y20797D01*
X95382Y20789D01*
X95385Y20786D01*
X95389Y20782D01*
X95422Y20749D01*
X95447Y20717D01*
X95473Y20680D01*
X95491Y20648D01*
X95524Y20575D01*
X95546Y20506D01*
X95556Y20447D01*
X95564Y20418D01*
Y20396D01*
X95567Y20378D01*
Y20364D01*
Y20356D01*
Y20353D01*
X95564Y20262D01*
X95556Y20178D01*
X95542Y20098D01*
X95527Y20021D01*
X95506Y19949D01*
X95484Y19883D01*
X95462Y19821D01*
X95436Y19767D01*
X95411Y19716D01*
X95389Y19672D01*
X95367Y19636D01*
X95345Y19606D01*
X95331Y19581D01*
X95316Y19563D01*
X95309Y19552D01*
X95305Y19548D01*
X95254Y19494D01*
X95200Y19446D01*
X95145Y19406D01*
X95087Y19370D01*
X95029Y19341D01*
X94971Y19315D01*
X94912Y19293D01*
X94858Y19279D01*
X94807Y19264D01*
X94759Y19257D01*
X94716Y19250D01*
X94679Y19242D01*
X94650D01*
X94625Y19239D01*
X94563D01*
X94519Y19242D01*
X94475D01*
X94774Y20928D01*
X94832Y20939D01*
X94858Y20942D01*
X94883D01*
X94901Y20946D01*
X94981D01*
X95032Y20939D01*
D02*
G37*
%LPC*%
G36*
X88835Y66064D02*
X88249D01*
X87572Y65000D01*
X86905Y66059D01*
X86333Y66064D01*
X87274Y64527D01*
X86257Y62919D01*
X86839D01*
X87563Y64063D01*
X88273Y62919D01*
X88883D01*
X87866Y64536D01*
X88835Y66064D01*
D02*
G37*
G36*
X86206D02*
X83599D01*
Y65567D01*
X84602D01*
Y62919D01*
X85160D01*
Y65567D01*
X86206D01*
Y66064D01*
D02*
G37*
G36*
X66226Y66097D02*
X66098D01*
X66013Y66092D01*
X65928D01*
X65847Y66088D01*
X65772Y66083D01*
X65715D01*
X65691Y66078D01*
X65606D01*
X65559Y66074D01*
X65516D01*
X65474Y66069D01*
X65412D01*
X65365Y66064D01*
X65304D01*
Y62919D01*
X65885D01*
Y64233D01*
X65966Y64229D01*
X66037Y64224D01*
X66098D01*
X66145Y64219D01*
X66235D01*
X67082Y62919D01*
X68260D01*
X68984Y64063D01*
X69693Y62919D01*
X70303D01*
X69286Y64536D01*
X70256Y66064D01*
X69669D01*
X68993Y65000D01*
X68326Y66059D01*
X67754Y66064D01*
X68695Y64527D01*
X67701Y62955D01*
X67678Y62990D01*
X66794Y64333D01*
X66883Y64375D01*
X66964Y64423D01*
X67035Y64480D01*
X67096Y64531D01*
X67144Y64579D01*
X67181Y64621D01*
X67200Y64650D01*
X67210Y64654D01*
Y64659D01*
X67266Y64749D01*
X67304Y64839D01*
X67333Y64924D01*
X67356Y65000D01*
X67366Y65071D01*
X67371Y65123D01*
X67375Y65142D01*
Y65156D01*
Y65165D01*
Y65170D01*
X67371Y65255D01*
X67361Y65336D01*
X67347Y65407D01*
X67323Y65478D01*
X67295Y65539D01*
X67266Y65601D01*
X67186Y65705D01*
X67096Y65794D01*
X66997Y65870D01*
X66888Y65932D01*
X66775Y65984D01*
X66661Y66022D01*
X66552Y66050D01*
X66453Y66069D01*
X66363Y66083D01*
X66283Y66092D01*
X66254D01*
X66226Y66097D01*
D02*
G37*
%LPD*%
G36*
X66202Y65586D02*
X66311Y65577D01*
X66406Y65563D01*
X66486Y65544D01*
X66543Y65525D01*
X66585Y65511D01*
X66609Y65501D01*
X66619Y65496D01*
X66675Y65459D01*
X66718Y65407D01*
X66751Y65355D01*
X66770Y65302D01*
X66784Y65255D01*
X66789Y65213D01*
X66794Y65184D01*
Y65180D01*
Y65175D01*
X66789Y65075D01*
X66770Y64990D01*
X66742Y64924D01*
X66713Y64872D01*
X66680Y64834D01*
X66656Y64806D01*
X66637Y64792D01*
X66628Y64787D01*
X66562Y64754D01*
X66481Y64730D01*
X66396Y64716D01*
X66311Y64706D01*
X66235Y64697D01*
X66202D01*
X66174Y64692D01*
X66046D01*
X65970Y64697D01*
X65937D01*
X65909Y64702D01*
X65885D01*
Y65577D01*
X65956Y65586D01*
X66013Y65591D01*
X66070D01*
X66202Y65586D01*
D02*
G37*
%LPC*%
G36*
X26100Y59793D02*
X22420D01*
X26100D01*
Y57757D01*
X22420Y59793D01*
Y59067D01*
X24817Y57800D01*
X22420Y57363D01*
Y56675D01*
X26100Y57407D01*
Y59793D01*
D02*
G37*
G36*
Y55993D02*
X22404D01*
Y54011D01*
X24195Y53700D01*
X24320Y53973D01*
X24271Y54022D01*
X24227Y54071D01*
X24189Y54126D01*
X24156Y54175D01*
X24107Y54273D01*
X24069Y54366D01*
X24053Y54448D01*
X24042Y54508D01*
X24036Y54530D01*
Y54562D01*
X24042Y54650D01*
X24058Y54726D01*
X24080Y54792D01*
X24102Y54846D01*
X24124Y54890D01*
X24146Y54923D01*
X24162Y54945D01*
X24167Y54950D01*
X24222Y54999D01*
X24276Y55037D01*
X24337Y55065D01*
X24391Y55087D01*
X24440Y55098D01*
X24479Y55103D01*
X24506D01*
X24517D01*
X24670Y55092D01*
X24812Y55065D01*
X24937Y55032D01*
X25041Y54988D01*
X25085Y54967D01*
X25128Y54945D01*
X25161Y54928D01*
X25188Y54912D01*
X25210Y54896D01*
X25227Y54885D01*
X25238Y54879D01*
X25243Y54874D01*
X25292Y54830D01*
X25336Y54781D01*
X25379Y54732D01*
X25412Y54683D01*
X25461Y54579D01*
X25494Y54481D01*
X25516Y54393D01*
X25521Y54355D01*
X25527Y54322D01*
X25532Y54295D01*
Y54257D01*
X25527Y54197D01*
X25516Y54137D01*
X25505Y54082D01*
X25489Y54027D01*
X25472Y53984D01*
X25456Y53951D01*
X25450Y53929D01*
X25445Y53918D01*
X25407Y53858D01*
X25368Y53798D01*
X25330Y53749D01*
X25298Y53711D01*
X25265Y53672D01*
X25238Y53651D01*
X25221Y53634D01*
X25216Y53629D01*
X25789Y53350D01*
X25844Y53411D01*
X25893Y53481D01*
X25931Y53547D01*
X25969Y53618D01*
X25996Y53689D01*
X26024Y53754D01*
X26062Y53891D01*
X26073Y53951D01*
X26084Y54006D01*
X26089Y54055D01*
X26095Y54098D01*
X26100Y54137D01*
Y54186D01*
X26095Y54328D01*
X26078Y54464D01*
X26057Y54590D01*
X26029Y54704D01*
X25991Y54814D01*
X25942Y54917D01*
X25893Y55010D01*
X25833Y55098D01*
X25773Y55180D01*
X25707Y55251D01*
X25636Y55316D01*
X25565Y55376D01*
X25489Y55436D01*
X25407Y55485D01*
X25248Y55567D01*
X25090Y55633D01*
X24937Y55682D01*
X24795Y55715D01*
X24670Y55742D01*
X24610Y55747D01*
X24561Y55753D01*
X24511Y55758D01*
X24473D01*
X24446Y55764D01*
X24419D01*
X24408D01*
X24402D01*
X24331Y55758D01*
X24266Y55753D01*
X24140Y55720D01*
X24036Y55676D01*
X23944Y55622D01*
X23867Y55567D01*
X23812Y55524D01*
X23796Y55507D01*
X23780Y55491D01*
X23774Y55485D01*
X23769Y55480D01*
X23725Y55425D01*
X23687Y55371D01*
X23621Y55256D01*
X23578Y55141D01*
X23550Y55037D01*
X23528Y54945D01*
X23523Y54906D01*
Y54874D01*
X23518Y54846D01*
Y54732D01*
X23528Y54661D01*
X23539Y54601D01*
X23550Y54546D01*
X23561Y54502D01*
X23572Y54464D01*
X23578Y54442D01*
X23583Y54437D01*
X22972Y54552D01*
Y55884D01*
X22404Y55993D01*
X26100D01*
D01*
D02*
G37*
G36*
X26125Y51203D02*
X23253D01*
X23176Y51197D01*
X23111Y51192D01*
X22980Y51159D01*
X22871Y51116D01*
X22783Y51061D01*
X22707Y51006D01*
X22658Y50963D01*
X22625Y50930D01*
X22614Y50924D01*
Y50919D01*
X22570Y50864D01*
X22537Y50804D01*
X22477Y50684D01*
X22434Y50559D01*
X22407Y50444D01*
X22390Y50340D01*
X22385Y50296D01*
Y50258D01*
X22379Y50226D01*
Y50253D01*
Y48626D01*
Y50182D01*
X22385Y50078D01*
X22396Y49974D01*
X22412Y49882D01*
X22434Y49794D01*
X22467Y49707D01*
X22494Y49630D01*
X22527Y49559D01*
X22559Y49499D01*
X22598Y49439D01*
X22630Y49390D01*
X22658Y49347D01*
X22685Y49314D01*
X22712Y49286D01*
X22729Y49265D01*
X22739Y49254D01*
X22745Y49248D01*
X23149Y49570D01*
X23084Y49663D01*
X23034Y49756D01*
X22996Y49838D01*
X22974Y49914D01*
X22958Y49980D01*
X22952Y50029D01*
X22947Y50062D01*
Y50073D01*
X22952Y50149D01*
X22963Y50220D01*
X22980Y50280D01*
X23007Y50329D01*
X23034Y50373D01*
X23062Y50411D01*
X23100Y50438D01*
X23133Y50466D01*
X23198Y50498D01*
X23258Y50515D01*
X23286D01*
X23302Y50520D01*
X23313D01*
X23318D01*
X23417Y50509D01*
X23498Y50488D01*
X23570Y50449D01*
X23635Y50400D01*
X23684Y50340D01*
X23733Y50275D01*
X23766Y50204D01*
X23793Y50133D01*
X23821Y50056D01*
X23837Y49985D01*
X23848Y49920D01*
X23853Y49860D01*
X23859Y49811D01*
X23864Y49772D01*
Y49740D01*
X24416Y49641D01*
X24421Y49767D01*
X24432Y49871D01*
X24459Y49964D01*
X24487Y50045D01*
X24520Y50111D01*
X24558Y50171D01*
X24596Y50215D01*
X24640Y50253D01*
X24683Y50280D01*
X24722Y50302D01*
X24760Y50318D01*
X24792Y50329D01*
X24820Y50335D01*
X24842Y50340D01*
X24858D01*
X24863D01*
X24978Y50329D01*
X25076Y50307D01*
X25164Y50275D01*
X25235Y50236D01*
X25295Y50193D01*
X25339Y50160D01*
X25360Y50138D01*
X25371Y50127D01*
X25431Y50045D01*
X25480Y49953D01*
X25513Y49865D01*
X25535Y49778D01*
X25546Y49701D01*
X25551Y49636D01*
X25557Y49614D01*
Y49581D01*
X25551Y49516D01*
X25541Y49450D01*
X25524Y49390D01*
X25502Y49330D01*
X25442Y49226D01*
X25377Y49134D01*
X25311Y49057D01*
X25251Y48997D01*
X25229Y48975D01*
X25213Y48959D01*
X25202Y48953D01*
X25196Y48948D01*
X25759Y48626D01*
X25824Y48691D01*
X25858Y48735D01*
D01*
X25879Y48762D01*
X25928Y48833D01*
X25972Y48910D01*
X26005Y48981D01*
X26037Y49057D01*
X26081Y49194D01*
X26092Y49259D01*
X26103Y49319D01*
X26114Y49368D01*
X26119Y49417D01*
X26125Y49456D01*
Y51203D01*
D02*
G37*
G36*
X22445Y48735D02*
Y48626D01*
Y48009D01*
X24842Y46742D01*
X22445Y46305D01*
Y45617D01*
X26125Y46349D01*
Y45617D01*
D01*
Y48626D01*
D01*
Y46698D01*
X22445Y48735D01*
D02*
G37*
G36*
X26125Y44760D02*
X23253D01*
X23176Y44755D01*
X23111Y44749D01*
X22980Y44716D01*
X22871Y44673D01*
X22783Y44618D01*
X22707Y44563D01*
X22658Y44520D01*
X22625Y44487D01*
X22614Y44482D01*
Y44476D01*
X22570Y44422D01*
X22537Y44361D01*
X22477Y44241D01*
X22434Y44116D01*
X22407Y44001D01*
X22390Y43897D01*
X22385Y43854D01*
Y43815D01*
X22379Y43783D01*
Y43739D01*
X22385Y43635D01*
X22396Y43532D01*
X22412Y43439D01*
X22434Y43351D01*
X22467Y43264D01*
X22494Y43188D01*
X22527Y43117D01*
X22559Y43056D01*
X22598Y42996D01*
X22630Y42947D01*
X22658Y42904D01*
X22685Y42871D01*
X22712Y42844D01*
X22729Y42822D01*
X22739Y42811D01*
X22745Y42805D01*
X23149Y43128D01*
X23084Y43220D01*
X23034Y43313D01*
X22996Y43395D01*
X22974Y43472D01*
X22958Y43537D01*
X22952Y43586D01*
X22947Y43619D01*
Y43630D01*
X22952Y43706D01*
X22963Y43777D01*
X22980Y43837D01*
X23007Y43887D01*
X23034Y43930D01*
X23062Y43968D01*
X23100Y43996D01*
X23133Y44023D01*
X23198Y44056D01*
X23258Y44072D01*
X23286D01*
X23302Y44078D01*
X23313D01*
X23318D01*
X23417Y44067D01*
X23498Y44045D01*
X23570Y44007D01*
X23635Y43957D01*
X23684Y43897D01*
X23733Y43832D01*
X23766Y43761D01*
X23793Y43690D01*
X23821Y43613D01*
X23837Y43543D01*
X23848Y43477D01*
X23853Y43417D01*
X23859Y43368D01*
X23864Y43330D01*
Y43297D01*
X24416Y43198D01*
X24421Y43324D01*
X24432Y43428D01*
X24459Y43521D01*
X24487Y43603D01*
X24520Y43668D01*
X24558Y43728D01*
X24596Y43772D01*
X24640Y43810D01*
X24683Y43837D01*
X24722Y43859D01*
X24760Y43876D01*
X24792Y43887D01*
X24820Y43892D01*
X24842Y43897D01*
X24858D01*
X24863D01*
X24978Y43887D01*
X25076Y43865D01*
X25164Y43832D01*
X25235Y43794D01*
X25295Y43750D01*
X25339Y43717D01*
X25360Y43695D01*
X25371Y43684D01*
X25431Y43603D01*
X25480Y43510D01*
X25513Y43422D01*
X25535Y43335D01*
X25546Y43259D01*
X25551Y43193D01*
X25557Y43171D01*
Y43139D01*
X25551Y43073D01*
X25541Y43007D01*
X25524Y42947D01*
X25502Y42887D01*
X25442Y42784D01*
X25377Y42691D01*
X25311Y42614D01*
X25251Y42554D01*
X25229Y42532D01*
X25213Y42516D01*
X25202Y42511D01*
X25196Y42505D01*
X25759Y42183D01*
X25824Y42248D01*
X25879Y42320D01*
X25928Y42390D01*
X25972Y42467D01*
X26005Y42538D01*
X26037Y42614D01*
X26081Y42751D01*
X26092Y42816D01*
X26103Y42876D01*
X26114Y42926D01*
X26119Y42975D01*
X26125Y43013D01*
Y42691D01*
Y44760D01*
D02*
G37*
G36*
X26125Y39937D02*
X22379D01*
X23171D01*
X23105Y39932D01*
X23045Y39926D01*
X22931Y39894D01*
X22832Y39850D01*
X22750Y39801D01*
X22685Y39746D01*
X22636Y39703D01*
X22609Y39670D01*
X22598Y39664D01*
Y39659D01*
X22527Y39550D01*
X22472Y39435D01*
X22434Y39320D01*
X22407Y39211D01*
X22390Y39113D01*
X22385Y39075D01*
Y39042D01*
X22379Y39009D01*
Y38971D01*
X22385Y38884D01*
X22390Y38796D01*
X22423Y38633D01*
X22467Y38491D01*
X22494Y38425D01*
X22521Y38365D01*
X22548Y38310D01*
X22576Y38267D01*
X22598Y38223D01*
X22619Y38190D01*
X22636Y38163D01*
X22652Y38141D01*
X22658Y38130D01*
X22663Y38125D01*
X22718Y38059D01*
X22772Y38005D01*
X22832Y37955D01*
X22892Y37917D01*
X22952Y37879D01*
X23012Y37852D01*
X23122Y37808D01*
X23220Y37786D01*
X23264Y37775D01*
X23302Y37770D01*
X23329Y37764D01*
X23351D01*
X23367D01*
X23373D01*
X23449Y37770D01*
X23515Y37775D01*
X23586Y37792D01*
X23646Y37813D01*
X23761Y37863D01*
X23859Y37923D01*
X23941Y37977D01*
X23968Y38005D01*
X23995Y38026D01*
X24017Y38048D01*
X24034Y38065D01*
X24039Y38070D01*
X24045Y38076D01*
X24115Y37944D01*
X24197Y37830D01*
X24279Y37732D01*
X24356Y37650D01*
X24427Y37590D01*
X24481Y37541D01*
X24503Y37524D01*
X24520Y37513D01*
X24530Y37502D01*
X24536D01*
X24656Y37437D01*
X24776Y37388D01*
X24879Y37355D01*
X24896Y37349D01*
X25005Y37328D01*
X25098Y37311D01*
X25142Y37306D01*
X25175D01*
D01*
X25202Y37300D01*
X25224D01*
X25235D01*
X25240D01*
X25317Y37306D01*
X25388Y37311D01*
X25519Y37344D01*
X25628Y37393D01*
X25721Y37448D01*
X25792Y37497D01*
X25846Y37546D01*
X25879Y37579D01*
X25885Y37584D01*
X25890Y37590D01*
X25934Y37644D01*
X25966Y37710D01*
X26026Y37835D01*
X26065Y37961D01*
X26097Y38081D01*
X26114Y38185D01*
X26119Y38234D01*
Y38272D01*
X26125Y38305D01*
Y38349D01*
X26119Y38474D01*
X26108Y38594D01*
X26092Y38709D01*
X26070Y38813D01*
X26043Y38911D01*
X26010Y38998D01*
X25977Y39080D01*
X25934Y39162D01*
X25890Y39233D01*
X25841Y39299D01*
X25792Y39353D01*
X25737Y39408D01*
X25628Y39501D01*
X25513Y39577D01*
X25404Y39637D01*
X25295Y39675D01*
X25191Y39708D01*
X25098Y39730D01*
X25022Y39741D01*
X24962Y39752D01*
X24935D01*
X24918D01*
X24913D01*
X24907D01*
X24820Y39746D01*
X24738Y39735D01*
X24661Y39714D01*
X24590Y39686D01*
X24454Y39621D01*
X24339Y39544D01*
X24290Y39506D01*
X24247Y39468D01*
X24208Y39435D01*
X24181Y39402D01*
X24154Y39375D01*
X24137Y39353D01*
X24126Y39342D01*
X24121Y39337D01*
X24061Y39430D01*
X23995Y39517D01*
X23930Y39588D01*
X23864Y39654D01*
X23804Y39703D01*
X23761Y39735D01*
X23728Y39763D01*
X23722Y39768D01*
X23717D01*
X23619Y39823D01*
X23520Y39866D01*
X23427Y39894D01*
X23346Y39916D01*
X23275Y39926D01*
X23220Y39937D01*
X26125D01*
D01*
D02*
G37*
G36*
X22445Y37355D02*
Y37300D01*
Y34237D01*
D01*
X26125Y34969D01*
Y35318D01*
X22543Y37300D01*
D01*
X22445Y37355D01*
D02*
G37*
G36*
X22428Y33085D02*
Y31480D01*
Y32785D01*
X22505Y32719D01*
X22581Y32637D01*
X22658Y32550D01*
X22734Y32457D01*
X22871Y32261D01*
X22991Y32059D01*
X23045Y31966D01*
X23089Y31873D01*
X23133Y31791D01*
X23171Y31720D01*
X23198Y31660D01*
X23220Y31616D01*
X23231Y31589D01*
X23236Y31578D01*
X23892Y31480D01*
X23542Y32206D01*
X26076Y31736D01*
Y31480D01*
Y32408D01*
X22428Y33085D01*
D02*
G37*
%LPD*%
G36*
X26125Y49505D02*
X26119Y49641D01*
X26108Y49772D01*
X26092Y49893D01*
X26070Y50002D01*
X26043Y50105D01*
X26005Y50204D01*
X25966Y50291D01*
X25923Y50378D01*
X25879Y50455D01*
X25830Y50520D01*
X25775Y50586D01*
X25721Y50646D01*
X25661Y50695D01*
X25606Y50744D01*
X25486Y50826D01*
X25366Y50886D01*
X25251Y50930D01*
X25142Y50968D01*
X25049Y50990D01*
X24967Y51001D01*
X24929Y51006D01*
X24902D01*
X24880Y51012D01*
X24863D01*
X24852D01*
X24847D01*
X24760Y51006D01*
X24678Y50995D01*
X24601Y50974D01*
X24530Y50946D01*
X24465Y50919D01*
X24410Y50886D01*
X24356Y50848D01*
X24312Y50810D01*
X24268Y50771D01*
X24236Y50733D01*
X24203Y50700D01*
X24181Y50673D01*
X24159Y50646D01*
X24148Y50624D01*
X24137Y50613D01*
Y50608D01*
X24083Y50700D01*
X24023Y50788D01*
X23963Y50864D01*
X23902Y50924D01*
X23848Y50974D01*
X23804Y51012D01*
X23777Y51034D01*
X23766Y51039D01*
X23673Y51094D01*
X23580Y51132D01*
X23493Y51165D01*
X23417Y51181D01*
X23351Y51192D01*
X23296Y51203D01*
X26125D01*
Y49505D01*
D02*
G37*
G36*
Y43062D02*
X26119Y43198D01*
X26108Y43330D01*
X26092Y43450D01*
X26070Y43559D01*
X26043Y43663D01*
X26005Y43761D01*
X25966Y43848D01*
X25923Y43936D01*
X25879Y44012D01*
X25830Y44078D01*
X25775Y44143D01*
X25721Y44203D01*
X25661Y44252D01*
X25606Y44301D01*
X25486Y44383D01*
X25366Y44443D01*
X25251Y44487D01*
X25142Y44525D01*
X25049Y44547D01*
X24967Y44558D01*
X24929Y44563D01*
X24902D01*
X24880Y44569D01*
X24863D01*
X24852D01*
X24847D01*
X24760Y44563D01*
X24678Y44553D01*
X24601Y44531D01*
X24530Y44503D01*
X24465Y44476D01*
X24410Y44443D01*
X24356Y44405D01*
X24312Y44367D01*
X24268Y44329D01*
X24236Y44291D01*
X24203Y44258D01*
X24181Y44230D01*
X24159Y44203D01*
X24148Y44181D01*
X24137Y44170D01*
Y44165D01*
X24083Y44258D01*
X24023Y44345D01*
X23963Y44422D01*
X23902Y44482D01*
X23848Y44531D01*
X23804Y44569D01*
X23777Y44591D01*
X23766Y44596D01*
X23673Y44651D01*
X23580Y44689D01*
X23493Y44722D01*
X23417Y44738D01*
X23351Y44749D01*
X23296Y44760D01*
X26125D01*
Y43062D01*
D02*
G37*
G36*
X23291Y39271D02*
X23340Y39260D01*
X23389Y39239D01*
X23438Y39211D01*
X23537Y39146D01*
X23624Y39075D01*
X23706Y38998D01*
X23766Y38933D01*
X23788Y38906D01*
X23804Y38884D01*
X23815Y38873D01*
X23821Y38867D01*
X23788Y38791D01*
X23750Y38725D01*
X23711Y38671D01*
X23673Y38622D01*
X23635Y38578D01*
X23602Y38545D01*
X23564Y38518D01*
X23531Y38496D01*
X23466Y38463D01*
X23417Y38447D01*
X23384Y38441D01*
X23378D01*
X23373D01*
X23297Y38447D01*
X23231Y38463D01*
X23176Y38485D01*
X23127Y38512D01*
X23084Y38551D01*
X23051Y38589D01*
X23023Y38627D01*
X23002Y38671D01*
X22969Y38753D01*
X22952Y38829D01*
X22947Y38856D01*
Y38900D01*
X22952Y38955D01*
X22958Y39004D01*
X22974Y39047D01*
X22991Y39086D01*
X23007Y39118D01*
X23018Y39140D01*
X23029Y39157D01*
X23034Y39162D01*
X23067Y39200D01*
X23100Y39228D01*
X23138Y39250D01*
X23171Y39260D01*
X23198Y39271D01*
X23220Y39277D01*
X23236D01*
X23242D01*
X23291Y39271D01*
D02*
G37*
G36*
X25027Y39069D02*
X25126Y39047D01*
X25202Y39020D01*
X25273Y38987D01*
X25322Y38955D01*
X25360Y38927D01*
X25388Y38906D01*
X25393Y38900D01*
X25448Y38829D01*
X25486Y38753D01*
X25519Y38671D01*
X25535Y38600D01*
X25546Y38529D01*
X25551Y38474D01*
X25557Y38452D01*
Y38425D01*
X25551Y38354D01*
X25541Y38289D01*
X25524Y38228D01*
X25502Y38179D01*
X25480Y38141D01*
X25464Y38114D01*
X25453Y38092D01*
X25448Y38087D01*
X25404Y38043D01*
X25355Y38010D01*
X25306Y37988D01*
X25262Y37972D01*
X25218Y37961D01*
X25186Y37955D01*
X25164D01*
X25158D01*
X25060Y37966D01*
X24967Y37988D01*
X24885Y38015D01*
X24814Y38054D01*
X24754Y38092D01*
X24711Y38119D01*
X24683Y38141D01*
X24672Y38152D01*
X24596Y38228D01*
X24536Y38316D01*
X24487Y38398D01*
X24443Y38480D01*
X24416Y38551D01*
X24394Y38611D01*
X24388Y38633D01*
X24383Y38649D01*
X24377Y38654D01*
Y38660D01*
X24421Y38731D01*
X24465Y38796D01*
X24509Y38851D01*
X24552Y38900D01*
X24601Y38938D01*
X24645Y38971D01*
X24689Y39004D01*
X24733Y39026D01*
X24809Y39053D01*
X24869Y39069D01*
X24891Y39075D01*
X24907D01*
X24918D01*
X24924D01*
X25027Y39069D01*
D02*
G37*
G36*
X24842Y35362D02*
X22445Y34925D01*
Y36629D01*
X24842Y35362D01*
D02*
G37*
%LPC*%
G36*
X36965Y64833D02*
X36913D01*
X36838Y64829D01*
X36766Y64824D01*
X36629Y64796D01*
X36511Y64758D01*
X36464Y64734D01*
X36417Y64715D01*
X36374Y64692D01*
X36336Y64668D01*
X36303Y64649D01*
X36275Y64630D01*
X36256Y64616D01*
X36241Y64602D01*
X36232Y64597D01*
X36227Y64592D01*
X36180Y64545D01*
X36142Y64498D01*
X36104Y64446D01*
X36076Y64398D01*
X36029Y64294D01*
X35996Y64200D01*
X35977Y64114D01*
X35972Y64077D01*
X35967Y64048D01*
X35962Y64020D01*
Y64001D01*
Y63991D01*
Y63987D01*
X35967Y63916D01*
X35972Y63850D01*
X35981Y63788D01*
X35996Y63736D01*
X36010Y63693D01*
X36019Y63660D01*
X36024Y63642D01*
X36029Y63632D01*
X36057Y63575D01*
X36085Y63519D01*
X36119Y63471D01*
X36147Y63433D01*
X36175Y63400D01*
X36199Y63372D01*
X36213Y63358D01*
X36218Y63353D01*
X36246Y63329D01*
X36275Y63306D01*
X36350Y63258D01*
X36426Y63206D01*
X36511Y63159D01*
X36587Y63116D01*
X36620Y63102D01*
X36648Y63083D01*
X36672Y63074D01*
X36691Y63064D01*
X36700Y63055D01*
X36705D01*
X36771Y63022D01*
X36828Y62989D01*
X36885Y62960D01*
X36932Y62927D01*
X36979Y62899D01*
X37017Y62875D01*
X37079Y62823D01*
X37126Y62785D01*
X37159Y62752D01*
X37178Y62733D01*
X37183Y62729D01*
X37221Y62672D01*
X37249Y62620D01*
X37273Y62568D01*
X37287Y62520D01*
X37296Y62478D01*
X37301Y62450D01*
Y62431D01*
Y62421D01*
X37296Y62360D01*
X37282Y62308D01*
X37254Y62265D01*
X37225Y62222D01*
X37187Y62189D01*
X37145Y62166D01*
X37102Y62142D01*
X37055Y62123D01*
X36965Y62099D01*
X36923Y62090D01*
X36885Y62085D01*
X36856D01*
X36833Y62081D01*
X36809D01*
X36748Y62085D01*
X36691Y62090D01*
X36573Y62118D01*
X36464Y62156D01*
X36364Y62199D01*
X36284Y62241D01*
X36246Y62260D01*
X36218Y62274D01*
X36194Y62293D01*
X36175Y62303D01*
X36166Y62308D01*
X36161Y62312D01*
X35958Y61811D01*
X36024Y61773D01*
X36090Y61735D01*
X36227Y61678D01*
X36360Y61641D01*
X36483Y61612D01*
X36540Y61603D01*
X36592Y61598D01*
X36634Y61589D01*
X36672D01*
X36705Y61584D01*
X36748D01*
X36842Y61589D01*
X36927Y61593D01*
X37012Y61608D01*
X37088Y61622D01*
X37159Y61641D01*
X37225Y61660D01*
X37287Y61683D01*
X37344Y61707D01*
X37391Y61730D01*
X37433Y61754D01*
X37471Y61773D01*
X37500Y61792D01*
X37523Y61806D01*
X37542Y61820D01*
X37552Y61825D01*
X37556Y61830D01*
X37609Y61877D01*
X37656Y61929D01*
X37698Y61981D01*
X37731Y62033D01*
X37760Y62085D01*
X37784Y62137D01*
X37821Y62237D01*
X37845Y62327D01*
X37850Y62364D01*
X37854Y62397D01*
X37859Y62421D01*
Y62459D01*
X37854Y62535D01*
X37850Y62610D01*
X37835Y62672D01*
X37821Y62729D01*
X37807Y62776D01*
X37798Y62814D01*
X37788Y62833D01*
X37784Y62842D01*
X37755Y62904D01*
X37722Y62965D01*
X37684Y63017D01*
X37651Y63060D01*
X37618Y63098D01*
X37594Y63121D01*
X37575Y63140D01*
X37571Y63145D01*
X37514Y63192D01*
X37443Y63244D01*
X37367Y63291D01*
X37292Y63334D01*
X37225Y63372D01*
X37169Y63400D01*
X37145Y63414D01*
X37131Y63424D01*
X37121Y63429D01*
X37117D01*
X37012Y63485D01*
X36918Y63537D01*
X36842Y63589D01*
X36771Y63642D01*
X36715Y63689D01*
X36667Y63736D01*
X36625Y63779D01*
X36596Y63821D01*
X36573Y63859D01*
X36554Y63892D01*
X36540Y63920D01*
X36530Y63944D01*
X36525Y63963D01*
X36521Y63977D01*
Y63987D01*
Y63991D01*
X36525Y64048D01*
X36535Y64100D01*
X36554Y64148D01*
X36573Y64185D01*
X36592Y64214D01*
X36610Y64237D01*
X36620Y64252D01*
X36625Y64256D01*
X36667Y64289D01*
X36715Y64318D01*
X36766Y64337D01*
X36814Y64346D01*
X36856Y64356D01*
X36889Y64360D01*
X36984D01*
X37046Y64351D01*
X37159Y64327D01*
X37263Y64294D01*
X37358Y64256D01*
X37433Y64214D01*
X37467Y64195D01*
X37495Y64181D01*
X37519Y64166D01*
X37533Y64157D01*
X37542Y64152D01*
X37547Y64148D01*
X37717Y64625D01*
X37665Y64663D01*
X37609Y64696D01*
X37481Y64744D01*
X37348Y64781D01*
X37216Y64810D01*
X37154Y64815D01*
X37098Y64824D01*
X37046Y64829D01*
X37003D01*
X36965Y64833D01*
D02*
G37*
G36*
X33139D02*
X33087D01*
X32973Y64829D01*
X32860Y64815D01*
X32756Y64791D01*
X32661Y64758D01*
X32566Y64725D01*
X32481Y64682D01*
X32405Y64640D01*
X32335Y64597D01*
X32268Y64554D01*
X32212Y64512D01*
X32164Y64469D01*
X32126Y64436D01*
X32093Y64403D01*
X32070Y64379D01*
X32055Y64365D01*
X32051Y64360D01*
X31980Y64271D01*
X31918Y64176D01*
X31866Y64081D01*
X31819Y63982D01*
X31781Y63883D01*
X31748Y63788D01*
X31720Y63693D01*
X31701Y63604D01*
X31682Y63519D01*
X31672Y63443D01*
X31663Y63372D01*
X31653Y63315D01*
Y63263D01*
X31649Y63230D01*
Y63197D01*
X31653Y63060D01*
X31663Y62932D01*
X31682Y62809D01*
X31705Y62695D01*
X31734Y62591D01*
X31762Y62492D01*
X31795Y62407D01*
X31833Y62327D01*
X31866Y62256D01*
X31899Y62189D01*
X31928Y62137D01*
X31956Y62095D01*
X31980Y62062D01*
X31999Y62033D01*
X32008Y62019D01*
X32013Y62014D01*
X32084Y61939D01*
X32160Y61872D01*
X32245Y61816D01*
X32325Y61764D01*
X32410Y61726D01*
X32500Y61688D01*
X32581Y61660D01*
X32661Y61636D01*
X32741Y61622D01*
X32812Y61608D01*
X32874Y61598D01*
X32930Y61589D01*
X32978D01*
X33011Y61584D01*
X33039D01*
X33158Y61589D01*
X33271Y61598D01*
X33375Y61617D01*
X33474Y61641D01*
X33564Y61669D01*
X33645Y61697D01*
X33720Y61730D01*
X33787Y61768D01*
X33848Y61801D01*
X33900Y61835D01*
X33943Y61863D01*
X33976Y61891D01*
X34004Y61915D01*
X34028Y61934D01*
X34037Y61943D01*
X34042Y61948D01*
X33782Y62397D01*
X33730Y62341D01*
X33678Y62293D01*
X33621Y62251D01*
X33564Y62213D01*
X33507Y62185D01*
X33446Y62156D01*
X33337Y62118D01*
X33285Y62109D01*
X33238Y62099D01*
X33191Y62090D01*
X33158Y62085D01*
X33124Y62081D01*
X33082D01*
X33011Y62085D01*
X32945Y62095D01*
X32879Y62109D01*
X32822Y62128D01*
X32718Y62175D01*
X32628Y62227D01*
X32590Y62256D01*
X32557Y62279D01*
X32528Y62308D01*
X32505Y62327D01*
X32486Y62345D01*
X32472Y62360D01*
X32467Y62369D01*
X32462Y62374D01*
X32420Y62431D01*
X32386Y62492D01*
X32353Y62558D01*
X32330Y62625D01*
X32287Y62757D01*
X32259Y62885D01*
X32249Y62946D01*
X32245Y62998D01*
X32240Y63050D01*
X32235Y63088D01*
X32230Y63126D01*
Y63149D01*
Y63169D01*
Y63173D01*
X32235Y63263D01*
X32240Y63353D01*
X32254Y63438D01*
X32268Y63514D01*
X32287Y63589D01*
X32311Y63656D01*
X32335Y63722D01*
X32358Y63779D01*
X32377Y63831D01*
X32401Y63873D01*
X32424Y63916D01*
X32443Y63944D01*
X32458Y63973D01*
X32472Y63991D01*
X32476Y64001D01*
X32481Y64006D01*
X32528Y64062D01*
X32581Y64114D01*
X32632Y64157D01*
X32689Y64200D01*
X32741Y64228D01*
X32793Y64256D01*
X32845Y64280D01*
X32897Y64294D01*
X32987Y64318D01*
X33025Y64327D01*
X33058Y64332D01*
X33087Y64337D01*
X33200D01*
X33266Y64327D01*
X33332Y64318D01*
X33394Y64308D01*
X33446Y64294D01*
X33493Y64275D01*
X33541Y64261D01*
X33579Y64242D01*
X33612Y64223D01*
X33645Y64209D01*
X33687Y64176D01*
X33716Y64157D01*
X33725Y64148D01*
X33957Y64611D01*
X33895Y64649D01*
X33825Y64687D01*
X33683Y64739D01*
X33536Y64781D01*
X33399Y64805D01*
X33337Y64815D01*
X33276Y64824D01*
X33224Y64829D01*
X33176D01*
X33139Y64833D01*
D02*
G37*
G36*
X30447D02*
X30395D01*
X30282Y64829D01*
X30168Y64815D01*
X30064Y64791D01*
X29969Y64758D01*
X29875Y64725D01*
X29790Y64682D01*
X29714Y64640D01*
X29643Y64597D01*
X29577Y64554D01*
X29520Y64512D01*
X29473Y64469D01*
X29435Y64436D01*
X29402Y64403D01*
X29378Y64379D01*
X29364Y64365D01*
X29359Y64360D01*
X29288Y64271D01*
X29227Y64176D01*
X29175Y64081D01*
X29128Y63982D01*
X29090Y63883D01*
X29057Y63788D01*
X29028Y63693D01*
X29009Y63604D01*
X28990Y63519D01*
X28981Y63443D01*
X28971Y63372D01*
X28962Y63315D01*
Y63263D01*
X28957Y63230D01*
Y63197D01*
X28962Y63060D01*
X28971Y62932D01*
X28990Y62809D01*
X29014Y62695D01*
X29042Y62591D01*
X29071Y62492D01*
X29104Y62407D01*
X29142Y62327D01*
X29175Y62256D01*
X29208Y62189D01*
X29236Y62137D01*
X29265Y62095D01*
X29288Y62062D01*
X29307Y62033D01*
X29317Y62019D01*
X29322Y62014D01*
X29392Y61939D01*
X29468Y61872D01*
X29553Y61816D01*
X29634Y61764D01*
X29719Y61726D01*
X29809Y61688D01*
X29889Y61660D01*
X29969Y61636D01*
X30050Y61622D01*
X30121Y61608D01*
X30182Y61598D01*
X30239Y61589D01*
X30286D01*
X30319Y61584D01*
X30348D01*
X30466Y61589D01*
X30580Y61598D01*
X30684Y61617D01*
X30783Y61641D01*
X30873Y61669D01*
X30953Y61697D01*
X31029Y61730D01*
X31095Y61768D01*
X31157Y61801D01*
X31209Y61835D01*
X31251Y61863D01*
X31284Y61891D01*
X31313Y61915D01*
X31337Y61934D01*
X31346Y61943D01*
X31351Y61948D01*
X31091Y62397D01*
X31038Y62341D01*
X30986Y62293D01*
X30930Y62251D01*
X30873Y62213D01*
X30816Y62185D01*
X30755Y62156D01*
X30646Y62118D01*
X30594Y62109D01*
X30547Y62099D01*
X30499Y62090D01*
X30466Y62085D01*
X30433Y62081D01*
X30391D01*
X30319Y62085D01*
X30253Y62095D01*
X30187Y62109D01*
X30130Y62128D01*
X30026Y62175D01*
X29936Y62227D01*
X29899Y62256D01*
X29865Y62279D01*
X29837Y62308D01*
X29813Y62327D01*
X29794Y62345D01*
X29780Y62360D01*
X29776Y62369D01*
X29771Y62374D01*
X29728Y62431D01*
X29695Y62492D01*
X29662Y62558D01*
X29638Y62625D01*
X29596Y62757D01*
X29568Y62885D01*
X29558Y62946D01*
X29553Y62998D01*
X29548Y63050D01*
X29544Y63088D01*
X29539Y63126D01*
Y63149D01*
Y63169D01*
Y63173D01*
X29544Y63263D01*
X29548Y63353D01*
X29563Y63438D01*
X29577Y63514D01*
X29596Y63589D01*
X29620Y63656D01*
X29643Y63722D01*
X29667Y63779D01*
X29686Y63831D01*
X29709Y63873D01*
X29733Y63916D01*
X29752Y63944D01*
X29766Y63973D01*
X29780Y63991D01*
X29785Y64001D01*
X29790Y64006D01*
X29837Y64062D01*
X29889Y64114D01*
X29941Y64157D01*
X29998Y64200D01*
X30050Y64228D01*
X30102Y64256D01*
X30154Y64280D01*
X30206Y64294D01*
X30296Y64318D01*
X30334Y64327D01*
X30367Y64332D01*
X30395Y64337D01*
X30509D01*
X30575Y64327D01*
X30641Y64318D01*
X30703Y64308D01*
X30755Y64294D01*
X30802Y64275D01*
X30849Y64261D01*
X30887Y64242D01*
X30920Y64223D01*
X30953Y64209D01*
X30996Y64176D01*
X31024Y64157D01*
X31034Y64148D01*
X31266Y64611D01*
X31204Y64649D01*
X31133Y64687D01*
X30991Y64739D01*
X30845Y64781D01*
X30707Y64805D01*
X30646Y64815D01*
X30584Y64824D01*
X30532Y64829D01*
X30485D01*
X30447Y64833D01*
D02*
G37*
G36*
X35541Y63164D02*
X34406D01*
Y62658D01*
X35541D01*
Y63164D01*
D02*
G37*
G36*
X28778Y64781D02*
X28177D01*
X27406Y62658D01*
X26677Y64781D01*
X26063D01*
X27240Y61593D01*
X27548D01*
X28778Y64781D01*
D02*
G37*
G36*
X41411D02*
X40853D01*
Y61636D01*
X42835D01*
Y62133D01*
X41411D01*
Y64781D01*
D02*
G37*
G36*
X40338D02*
X38351D01*
Y61636D01*
X40338D01*
Y62133D01*
X38909D01*
Y63074D01*
X39926D01*
Y63547D01*
X38909D01*
Y64285D01*
X40338D01*
Y64781D01*
D02*
G37*
%LPD*%
D10*
X89449Y45827D02*
G03*
X89449Y45827I-1181J0D01*
G01*
D11*
X91516Y55472D02*
G03*
X91516Y55472I-492J0D01*
G01*
X107827Y10315D02*
X109980D01*
X115000Y8402D02*
X115000Y4409D01*
X111811Y4409D02*
X115000Y4409D01*
X102795D02*
X105984Y4409D01*
X102795Y4409D02*
X102795Y8402D01*
X20898Y19331D02*
X23051D01*
X28071Y17417D02*
X28071Y13425D01*
X24882Y13425D02*
X28071Y13425D01*
X15866D02*
X19055Y13425D01*
X15866Y13425D02*
X15866Y17417D01*
X41016Y19331D02*
X43169D01*
X48189Y17417D02*
X48189Y13425D01*
X45000Y13425D02*
X48189Y13425D01*
X35984D02*
X39173Y13425D01*
X35984Y13425D02*
X35984Y17417D01*
D12*
X91929Y79331D02*
X91942Y73347D01*
X87402Y79315D02*
X91929Y79331D01*
X87402Y73362D02*
X91929Y73347D01*
X77756D02*
X82284Y73362D01*
X77756Y79331D02*
X82284Y79315D01*
X77743Y73347D02*
X77756Y79331D01*
X76654D02*
X76666Y73347D01*
X72126Y79315D02*
X76654Y79331D01*
X72126Y73362D02*
X76654Y73347D01*
X62480D02*
X67008Y73362D01*
X62480Y79331D02*
X67008Y79315D01*
X62467Y73347D02*
X62480Y79331D01*
D13*
X69645Y68504D02*
Y72047D01*
X84842Y68504D02*
Y72047D01*
X10315Y16378D02*
X13858D01*
X42008Y24331D02*
Y27874D01*
X22008Y24331D02*
Y27874D01*
X32599Y74488D02*
X36142D01*
X13701D02*
X17244D01*
X30276Y16378D02*
X33819D01*
X50472Y34016D02*
Y49764D01*
X92205Y34016D02*
Y49764D01*
X50472Y34016D02*
X92205D01*
X50472Y49764D02*
X92205D01*
D14*
X28032Y51276D02*
X29032Y50276D01*
X28032Y51276D02*
Y59276D01*
X48031Y51276D02*
Y59276D01*
X47032Y50276D02*
X48031Y51276D01*
X28032Y59276D02*
X29032Y60276D01*
X37031D01*
X38032Y59276D01*
X47032Y60276D02*
X48031Y59276D01*
X39031Y60276D02*
X47032D01*
X38032Y59276D02*
X39031Y60276D01*
X28032Y31276D02*
Y39276D01*
X37031Y30276D02*
X38032Y31276D01*
X29032Y30276D02*
X37031D01*
X28032Y31276D02*
X29032Y30276D01*
X38032Y31276D02*
X39031Y30276D01*
X48031D01*
Y39276D01*
X38032Y31276D02*
Y39276D01*
X28032D02*
X29032Y40276D01*
X37031D01*
X47032D02*
X48031Y39276D01*
X39031Y40276D02*
X47032D01*
X38032Y39276D02*
X39031Y40276D01*
Y50276D02*
X47032D01*
X48031Y49276D01*
X29032Y50276D02*
X37031D01*
X28032Y49276D02*
X29032Y50276D01*
X47032Y40276D02*
X48031Y41276D01*
Y49276D01*
X28032Y41276D02*
Y49276D01*
Y41276D02*
X29032Y40276D01*
X100868Y25229D02*
X110710D01*
X144607Y14783D02*
Y75767D01*
X100868Y14783D02*
Y75767D01*
Y14783D02*
X144607D01*
X110710Y14811D02*
Y25229D01*
X100868Y75767D02*
X144607D01*
D15*
X47657Y70669D02*
X49036D01*
X47657Y77362D02*
X49036D01*
X39291Y71752D02*
Y76280D01*
M02*
