G04*
G04 #@! TF.GenerationSoftware,Altium Limited,Altium Designer,19.1.7 (138)*
G04*
G04 Layer_Color=8388736*
%FSLAX25Y25*%
%MOIN*%
G70*
G01*
G75*
%ADD27R,0.03937X0.04331*%
%ADD28R,0.05524X0.05524*%
%ADD29R,0.04134X0.04331*%
%ADD30R,0.03937X0.04134*%
%ADD31R,0.04134X0.03937*%
%ADD32R,0.05709X0.01968*%
%ADD33R,0.06706X0.07887*%
%ADD34R,0.06706X0.08280*%
%ADD35R,0.07099X0.05721*%
%ADD36R,0.04147X0.06312*%
%ADD37O,0.02375X0.09068*%
%ADD38C,0.07800*%
%ADD39R,0.07800X0.07800*%
%ADD40R,0.07200X0.07200*%
%ADD41C,0.07200*%
%ADD42R,0.07200X0.07200*%
D27*
X112652Y11252D02*
D03*
X105144D02*
D03*
X108898Y3472D02*
D03*
X25722Y20268D02*
D03*
X18215D02*
D03*
X21969Y12488D02*
D03*
X45840Y20268D02*
D03*
X38333D02*
D03*
X42087Y12488D02*
D03*
D28*
X88976Y76339D02*
D03*
X80709D02*
D03*
X73701D02*
D03*
X65433D02*
D03*
D29*
X66398Y70276D02*
D03*
X72894D02*
D03*
X81595D02*
D03*
X88091D02*
D03*
D30*
X12087Y13228D02*
D03*
Y19527D02*
D03*
X34370Y77638D02*
D03*
Y71339D02*
D03*
X15473Y77638D02*
D03*
Y71339D02*
D03*
X32047Y13228D02*
D03*
Y19527D02*
D03*
D31*
X38858Y26102D02*
D03*
X45158D02*
D03*
X18858D02*
D03*
X25157D02*
D03*
D32*
X15433Y50394D02*
D03*
Y40157D02*
D03*
Y42717D02*
D03*
Y45276D02*
D03*
Y47835D02*
D03*
D33*
X4902Y29528D02*
D03*
Y61024D02*
D03*
D34*
Y40551D02*
D03*
Y50000D02*
D03*
D35*
X53268Y74016D02*
D03*
X43425D02*
D03*
D36*
X28346Y71339D02*
D03*
X21457D02*
D03*
D37*
X54705Y28307D02*
D03*
X57264D02*
D03*
X59823D02*
D03*
X62382D02*
D03*
X64941D02*
D03*
X67500D02*
D03*
X70059D02*
D03*
X72618D02*
D03*
X75177D02*
D03*
X77736D02*
D03*
X80295D02*
D03*
X82854D02*
D03*
X85413D02*
D03*
X87972D02*
D03*
X54705Y55472D02*
D03*
X57264D02*
D03*
X59823D02*
D03*
X62382D02*
D03*
X64941D02*
D03*
X67500D02*
D03*
X70059D02*
D03*
X72618D02*
D03*
X75177D02*
D03*
X77736D02*
D03*
X80295D02*
D03*
X82854D02*
D03*
X85413D02*
D03*
X87972D02*
D03*
D38*
X33031Y55276D02*
D03*
X43031D02*
D03*
X33031Y35276D02*
D03*
X43031Y45276D02*
D03*
X33031D02*
D03*
D39*
X43031Y35276D02*
D03*
D40*
X105787Y20276D02*
D03*
D41*
Y30276D02*
D03*
Y40276D02*
D03*
Y50276D02*
D03*
Y60276D02*
D03*
Y70276D02*
D03*
X91102Y85276D02*
D03*
X81102D02*
D03*
X61102D02*
D03*
X41102D02*
D03*
X31102D02*
D03*
X21102D02*
D03*
X51102D02*
D03*
X71102D02*
D03*
X91102Y5276D02*
D03*
X81102D02*
D03*
X61102D02*
D03*
X41102D02*
D03*
X31102D02*
D03*
X21102D02*
D03*
X51102D02*
D03*
X71102D02*
D03*
D42*
X11102Y85276D02*
D03*
Y5276D02*
D03*
M02*
