G04*
G04 #@! TF.GenerationSoftware,Altium Limited,Altium Designer,19.1.7 (138)*
G04*
G04 Layer_Physical_Order=2*
G04 Layer_Color=16711680*
%FSLAX25Y25*%
%MOIN*%
G70*
G01*
G75*
%ADD13C,0.00787*%
%ADD43C,0.01575*%
%ADD44C,0.01181*%
%ADD45C,0.07000*%
%ADD46R,0.07000X0.07000*%
%ADD47C,0.02756*%
%ADD48R,0.06400X0.06400*%
%ADD49C,0.06400*%
%ADD50R,0.06400X0.06400*%
%ADD51C,0.02362*%
G36*
X44362Y85106D02*
X44871Y82592D01*
X44950Y82375D01*
X45027Y82214D01*
X45101Y82112D01*
X44266Y81277D01*
X44164Y81351D01*
X44003Y81428D01*
X43786Y81507D01*
X43511Y81587D01*
X42788Y81753D01*
X41272Y82016D01*
X40652Y82108D01*
X44270Y85726D01*
X44362Y85106D01*
D02*
G37*
G36*
X34362D02*
X34871Y82592D01*
X34950Y82375D01*
X35027Y82214D01*
X35101Y82112D01*
X34266Y81277D01*
X34164Y81351D01*
X34003Y81428D01*
X33786Y81507D01*
X33511Y81587D01*
X32788Y81753D01*
X31272Y82016D01*
X30652Y82108D01*
X34270Y85726D01*
X34362Y85106D01*
D02*
G37*
G36*
X24362D02*
X24871Y82592D01*
X24950Y82375D01*
X25027Y82214D01*
X25101Y82112D01*
X24266Y81277D01*
X24164Y81351D01*
X24003Y81428D01*
X23786Y81507D01*
X23511Y81587D01*
X22788Y81753D01*
X21272Y82016D01*
X20652Y82108D01*
X24270Y85726D01*
X24362Y85106D01*
D02*
G37*
G36*
X14223Y83666D02*
X14190Y83558D01*
Y83432D01*
X14223Y83290D01*
X14290Y83132D01*
X14390Y82956D01*
X14524Y82764D01*
X14691Y82555D01*
X15125Y82088D01*
X14290Y81252D01*
X14048Y81486D01*
X13614Y81854D01*
X13422Y81988D01*
X13246Y82088D01*
X13088Y82155D01*
X12946Y82188D01*
X12820D01*
X12712Y82155D01*
X12620Y82088D01*
X14290Y83758D01*
X14223Y83666D01*
D02*
G37*
G36*
X54355Y85166D02*
X54808Y83084D01*
X54905Y82812D01*
X55005Y82587D01*
X55106Y82410D01*
X55210Y82282D01*
X54096Y81168D01*
X53967Y81272D01*
X53791Y81373D01*
X53566Y81473D01*
X53294Y81570D01*
X52973Y81665D01*
X52188Y81849D01*
X51212Y82023D01*
X50652Y82108D01*
X54270Y85726D01*
X54355Y85166D01*
D02*
G37*
G36*
X83287Y82851D02*
X81870Y80713D01*
X81772Y80504D01*
X81713Y80336D01*
X81693Y80211D01*
X80512D01*
X80492Y80336D01*
X80433Y80504D01*
X80335Y80713D01*
X80197Y80964D01*
X79803Y81593D01*
X78917Y82851D01*
X78544Y83354D01*
X83661D01*
X83287Y82851D01*
D02*
G37*
G36*
X73287D02*
X71870Y80713D01*
X71772Y80504D01*
X71712Y80336D01*
X71693Y80211D01*
X70512D01*
X70492Y80336D01*
X70433Y80504D01*
X70335Y80713D01*
X70197Y80964D01*
X69803Y81593D01*
X68918Y82851D01*
X68543Y83354D01*
X73661D01*
X73287Y82851D01*
D02*
G37*
G36*
X56769Y67276D02*
X56853Y67207D01*
X56941Y67144D01*
X57032Y67088D01*
X57127Y67038D01*
X57227Y66993D01*
X57330Y66955D01*
X57437Y66923D01*
X57548Y66898D01*
X57662Y66878D01*
X56327Y65542D01*
X56307Y65657D01*
X56281Y65768D01*
X56249Y65875D01*
X56211Y65978D01*
X56167Y66077D01*
X56117Y66173D01*
X56060Y66264D01*
X55998Y66352D01*
X55929Y66436D01*
X55854Y66515D01*
X56689Y67351D01*
X56769Y67276D01*
D02*
G37*
G36*
X61153Y65323D02*
X61166Y65220D01*
X61189Y65117D01*
X61220Y65014D01*
X61260Y64912D01*
X61309Y64810D01*
X61366Y64708D01*
X61433Y64606D01*
X61509Y64505D01*
X61593Y64404D01*
X59711Y64254D01*
X59759Y64337D01*
X59803Y64423D01*
X59842Y64514D01*
X59875Y64608D01*
X59903Y64706D01*
X59926Y64807D01*
X59944Y64912D01*
X59965Y65134D01*
X59967Y65250D01*
X61149Y65427D01*
X61153Y65323D01*
D02*
G37*
G36*
X74615Y61114D02*
X74589Y61059D01*
X74565Y60994D01*
X74545Y60920D01*
X74528Y60836D01*
X74513Y60744D01*
X74494Y60531D01*
X74488Y60281D01*
X72913D01*
X72912Y60411D01*
X72888Y60744D01*
X72874Y60836D01*
X72857Y60920D01*
X72837Y60994D01*
X72813Y61059D01*
X72786Y61114D01*
X72756Y61161D01*
X74645D01*
X74615Y61114D01*
D02*
G37*
G36*
X52017Y57788D02*
X51990Y57732D01*
X51967Y57667D01*
X51946Y57593D01*
X51929Y57510D01*
X51915Y57417D01*
X51896Y57204D01*
X51890Y56954D01*
X50315D01*
X50313Y57084D01*
X50290Y57417D01*
X50276Y57510D01*
X50258Y57593D01*
X50238Y57667D01*
X50214Y57732D01*
X50188Y57788D01*
X50158Y57834D01*
X52047D01*
X52017Y57788D01*
D02*
G37*
G36*
X49666Y60057D02*
X49759Y59750D01*
X49419Y59241D01*
X49280Y58543D01*
X49419Y57846D01*
X49584Y57598D01*
X49594Y57546D01*
X49596Y57504D01*
X49605Y57486D01*
X49606Y57479D01*
X49611Y57472D01*
X49612Y57468D01*
X49620Y57439D01*
X49630Y57393D01*
X49637Y57344D01*
X49657Y57057D01*
X49659Y56946D01*
X49681Y56894D01*
Y51330D01*
X49790Y50787D01*
X50098Y50326D01*
X50823Y49600D01*
Y49018D01*
X50679Y48914D01*
X50323Y48796D01*
X49831Y49125D01*
X49524Y49186D01*
X49411Y49257D01*
X49315Y49273D01*
X49243Y49290D01*
X49175Y49311D01*
X49112Y49334D01*
X49052Y49360D01*
X48996Y49390D01*
X48942Y49424D01*
X48890Y49461D01*
X48840Y49502D01*
X48776Y49562D01*
X48717Y49584D01*
X47268Y51032D01*
X46872Y51297D01*
X46406Y51390D01*
X45534D01*
X45364Y51890D01*
X45960Y52347D01*
X46618Y53205D01*
X47032Y54204D01*
X47173Y55276D01*
X47032Y56348D01*
X46618Y57346D01*
X45960Y58204D01*
X45102Y58862D01*
X44103Y59276D01*
X43031Y59417D01*
X41960Y59276D01*
X40961Y58862D01*
X40103Y58204D01*
X39445Y57346D01*
X39031Y56348D01*
X38890Y55276D01*
X39031Y54204D01*
X39445Y53205D01*
X40103Y52347D01*
X40699Y51890D01*
X40529Y51390D01*
X36947D01*
X36756Y51851D01*
X37157Y52253D01*
X37349Y52716D01*
Y57717D01*
X37157Y58181D01*
X35976Y59362D01*
X35512Y59554D01*
X26823Y59554D01*
X26571Y60054D01*
X26717Y60250D01*
X49539D01*
X49666Y60057D01*
D02*
G37*
G36*
X60417Y49063D02*
X60428Y48955D01*
X60445Y48849D01*
X60470Y48744D01*
X60502Y48641D01*
X60541Y48540D01*
X60587Y48440D01*
X60640Y48342D01*
X60700Y48245D01*
X60767Y48150D01*
X58878D01*
X58946Y48245D01*
X59006Y48342D01*
X59059Y48440D01*
X59105Y48540D01*
X59144Y48641D01*
X59176Y48744D01*
X59201Y48849D01*
X59218Y48955D01*
X59229Y49063D01*
X59232Y49172D01*
X60413D01*
X60417Y49063D01*
D02*
G37*
G36*
X103862Y47719D02*
X103409Y48055D01*
X101642Y49205D01*
X101388Y49329D01*
X101168Y49417D01*
X100981Y49470D01*
X100827Y49488D01*
Y51063D01*
X100981Y51081D01*
X101168Y51134D01*
X101388Y51222D01*
X101642Y51346D01*
X101929Y51505D01*
X102603Y51930D01*
X103862Y52832D01*
Y47719D01*
D02*
G37*
G36*
X48407Y49008D02*
X48491Y48939D01*
X48578Y48877D01*
X48670Y48820D01*
X48765Y48770D01*
X48864Y48726D01*
X48967Y48688D01*
X49075Y48656D01*
X49185Y48630D01*
X49300Y48610D01*
X47964Y47275D01*
X47945Y47389D01*
X47919Y47500D01*
X47887Y47607D01*
X47849Y47710D01*
X47805Y47810D01*
X47754Y47905D01*
X47698Y47997D01*
X47635Y48084D01*
X47567Y48168D01*
X47492Y48248D01*
X48327Y49083D01*
X48407Y49008D01*
D02*
G37*
G36*
X86291Y48015D02*
X86230Y47918D01*
X86177Y47820D01*
X86131Y47720D01*
X86092Y47618D01*
X86061Y47515D01*
X86036Y47411D01*
X86018Y47305D01*
X86007Y47197D01*
X86004Y47087D01*
X84823D01*
X84819Y47197D01*
X84809Y47305D01*
X84791Y47411D01*
X84766Y47515D01*
X84734Y47618D01*
X84695Y47720D01*
X84649Y47820D01*
X84596Y47918D01*
X84536Y48015D01*
X84469Y48110D01*
X86358D01*
X86291Y48015D01*
D02*
G37*
G36*
X11615Y48011D02*
X11627Y47942D01*
X11646Y47872D01*
X11671Y47803D01*
X11702Y47735D01*
X11740Y47666D01*
X11785Y47598D01*
X11835Y47531D01*
X11892Y47464D01*
X11956Y47396D01*
X11399Y46840D01*
X11354Y46880D01*
X11307Y46914D01*
X11257Y46940D01*
X11205Y46960D01*
X11151Y46973D01*
X11094Y46979D01*
X11035Y46978D01*
X10974Y46970D01*
X10910Y46955D01*
X10844Y46934D01*
X11609Y48081D01*
X11615Y48011D01*
D02*
G37*
G36*
X74468Y46496D02*
X74373Y46564D01*
X74276Y46624D01*
X74178Y46677D01*
X74078Y46723D01*
X73977Y46762D01*
X73874Y46794D01*
X73769Y46819D01*
X73663Y46836D01*
X73555Y46847D01*
X73446Y46850D01*
Y48031D01*
X73555Y48035D01*
X73663Y48046D01*
X73769Y48063D01*
X73874Y48088D01*
X73977Y48120D01*
X74078Y48159D01*
X74178Y48205D01*
X74276Y48258D01*
X74373Y48318D01*
X74468Y48385D01*
Y46496D01*
D02*
G37*
G36*
X117291Y819D02*
X100333D01*
X100048Y1319D01*
X100133Y1462D01*
X100177Y1475D01*
X100239Y1490D01*
X100301Y1500D01*
X100366Y1507D01*
X100453Y1510D01*
X100511Y1536D01*
X110197D01*
X110664Y1629D01*
X111060Y1893D01*
X114721Y5554D01*
X114986Y5950D01*
X115079Y6417D01*
Y32283D01*
X114986Y32750D01*
X114721Y33146D01*
X110356Y37512D01*
X110347Y37547D01*
X110306Y37603D01*
X110268Y37681D01*
X110215Y37823D01*
X109694Y40263D01*
X109599Y40863D01*
X109536Y40966D01*
X109496Y41269D01*
X109112Y42195D01*
X108502Y42990D01*
X107707Y43600D01*
X106781Y43984D01*
X105787Y44115D01*
X104794Y43984D01*
X103868Y43600D01*
X103073Y42990D01*
X102463Y42195D01*
X102079Y41269D01*
X101948Y40276D01*
X102079Y39282D01*
X102463Y38356D01*
X103073Y37561D01*
X103868Y36951D01*
X104794Y36567D01*
X105171Y36518D01*
X105283Y36452D01*
X105897Y36369D01*
X107393Y36126D01*
X108082Y35975D01*
X108320Y35908D01*
X108487Y35849D01*
X108561Y35815D01*
X108613Y35777D01*
X108647Y35769D01*
X112638Y31778D01*
Y25775D01*
X112138Y25624D01*
X112083Y25705D01*
X110325Y27463D01*
X110317Y27498D01*
X110278Y27552D01*
X110241Y27628D01*
X110190Y27770D01*
X109694Y30219D01*
X109605Y30822D01*
X109540Y30929D01*
X109496Y31269D01*
X109112Y32195D01*
X108502Y32990D01*
X107707Y33600D01*
X106781Y33984D01*
X105787Y34115D01*
X104794Y33984D01*
X103868Y33600D01*
X103073Y32990D01*
X102463Y32195D01*
X102079Y31269D01*
X101948Y30276D01*
X102079Y29282D01*
X102463Y28356D01*
X103073Y27561D01*
X103868Y26951D01*
X104794Y26567D01*
X105134Y26522D01*
X105241Y26458D01*
X105853Y26368D01*
X107343Y26109D01*
X108030Y25951D01*
X108267Y25882D01*
X108435Y25822D01*
X108511Y25785D01*
X108565Y25746D01*
X108599Y25738D01*
X109870Y24468D01*
X109548Y24082D01*
X109500Y24082D01*
X101981D01*
Y21587D01*
X101973Y21584D01*
X101889Y21562D01*
X101766Y21541D01*
X101608Y21528D01*
X101401Y21522D01*
X101342Y21496D01*
X92676D01*
X92481Y21996D01*
X92786Y22452D01*
X92925Y23150D01*
X92786Y23847D01*
X92620Y24095D01*
X92611Y24147D01*
X92609Y24189D01*
X92600Y24207D01*
X92599Y24214D01*
X92594Y24221D01*
X92592Y24225D01*
X92585Y24254D01*
X92575Y24299D01*
X92568Y24349D01*
X92547Y24636D01*
X92546Y24747D01*
X92523Y24799D01*
Y38895D01*
X92546Y38946D01*
X92551Y39175D01*
X92567Y39346D01*
X92575Y39401D01*
X92585Y39447D01*
X92592Y39476D01*
X92594Y39479D01*
X92599Y39487D01*
X92600Y39494D01*
X92609Y39512D01*
X92611Y39554D01*
X92620Y39606D01*
X92786Y39854D01*
X92844Y40146D01*
X92874Y40189D01*
X92902Y40221D01*
X92909Y40240D01*
X92913Y40245D01*
X92915Y40255D01*
X92917Y40258D01*
X92931Y40284D01*
X92957Y40323D01*
X92986Y40363D01*
X93175Y40581D01*
X93252Y40660D01*
X93274Y40713D01*
X101235Y48674D01*
X101318Y48633D01*
X103034Y47516D01*
X103471Y47192D01*
X103593Y47162D01*
X103868Y46951D01*
X104794Y46567D01*
X105787Y46437D01*
X106781Y46567D01*
X107707Y46951D01*
X108502Y47561D01*
X109112Y48356D01*
X109496Y49282D01*
X109626Y50276D01*
X109496Y51269D01*
X109112Y52195D01*
X108502Y52990D01*
X107707Y53600D01*
X106781Y53984D01*
X105787Y54115D01*
X104794Y53984D01*
X103868Y53600D01*
X103597Y53392D01*
X103480Y53365D01*
X102236Y52474D01*
X101595Y52070D01*
X101339Y51928D01*
X101122Y51822D01*
X100956Y51756D01*
X100853Y51727D01*
X100752Y51715D01*
X100659Y51663D01*
X100283Y51588D01*
X99822Y51280D01*
X91268Y42727D01*
X91217Y42707D01*
X91051Y42549D01*
X90919Y42439D01*
X90874Y42406D01*
X90835Y42380D01*
X90809Y42366D01*
X90806Y42364D01*
X90796Y42362D01*
X90791Y42358D01*
X90772Y42351D01*
X90741Y42323D01*
X90697Y42293D01*
X90405Y42235D01*
X89814Y41840D01*
X89419Y41249D01*
X89280Y40551D01*
X89419Y39854D01*
X89584Y39606D01*
X89594Y39554D01*
X89596Y39512D01*
X89605Y39494D01*
X89606Y39487D01*
X89611Y39479D01*
X89612Y39476D01*
X89620Y39447D01*
X89630Y39401D01*
X89637Y39352D01*
X89657Y39064D01*
X89659Y38954D01*
X89681Y38901D01*
Y24806D01*
X89659Y24755D01*
X89653Y24526D01*
X89638Y24354D01*
X89630Y24299D01*
X89620Y24254D01*
X89612Y24225D01*
X89611Y24221D01*
X89606Y24214D01*
X89605Y24207D01*
X89596Y24189D01*
X89594Y24147D01*
X89584Y24095D01*
X89419Y23847D01*
X89280Y23150D01*
X89419Y22452D01*
X89723Y21996D01*
X89529Y21496D01*
X84443D01*
X82362Y23576D01*
Y29967D01*
X86276Y33881D01*
X86541Y34277D01*
X86634Y34744D01*
Y47008D01*
X86660Y47066D01*
X86663Y47154D01*
X86669Y47218D01*
X86679Y47281D01*
X86694Y47343D01*
X86713Y47404D01*
X86736Y47465D01*
X86765Y47526D01*
X86798Y47588D01*
X86837Y47651D01*
X86893Y47731D01*
X86923Y47861D01*
X87097Y48122D01*
X87236Y48819D01*
X87097Y49516D01*
X86702Y50108D01*
X86111Y50503D01*
X85413Y50641D01*
X84716Y50503D01*
X84125Y50108D01*
X83730Y49516D01*
X83591Y48819D01*
X83730Y48122D01*
X83837Y47961D01*
X83802Y47741D01*
X83317Y47400D01*
X82854Y47492D01*
X82157Y47353D01*
X81917Y47193D01*
X81417Y47460D01*
Y72644D01*
X81965Y73192D01*
X82230Y73588D01*
X82323Y74055D01*
Y80079D01*
X82341Y80109D01*
X82351Y80175D01*
X82380Y80254D01*
X82443Y80391D01*
X83824Y82474D01*
X84188Y82963D01*
X84218Y83084D01*
X84427Y83356D01*
X84811Y84282D01*
X84941Y85276D01*
X84811Y86269D01*
X84427Y87195D01*
X83817Y87990D01*
X83022Y88600D01*
X82096Y88984D01*
X81102Y89115D01*
X80109Y88984D01*
X79183Y88600D01*
X78388Y87990D01*
X77777Y87195D01*
X77394Y86269D01*
X77263Y85276D01*
X77394Y84282D01*
X77777Y83356D01*
X77986Y83084D01*
X78017Y82963D01*
X78386Y82466D01*
X79256Y81230D01*
X79631Y80632D01*
X79749Y80415D01*
X79825Y80254D01*
X79853Y80175D01*
X79863Y80109D01*
X79882Y80079D01*
Y74560D01*
X79334Y74013D01*
X79198Y73809D01*
X78637D01*
X78501Y74013D01*
X72350Y80164D01*
X72351Y80175D01*
X72379Y80254D01*
X72443Y80391D01*
X73824Y82474D01*
X74188Y82963D01*
X74218Y83084D01*
X74427Y83356D01*
X74811Y84282D01*
X74941Y85276D01*
X74811Y86269D01*
X74427Y87195D01*
X73817Y87990D01*
X73022Y88600D01*
X72096Y88984D01*
X71102Y89115D01*
X70109Y88984D01*
X69183Y88600D01*
X68388Y87990D01*
X67778Y87195D01*
X67394Y86269D01*
X67263Y85276D01*
X67394Y84282D01*
X67778Y83356D01*
X67986Y83084D01*
X68017Y82963D01*
X68386Y82466D01*
X69256Y81230D01*
X69630Y80632D01*
X69749Y80415D01*
X69825Y80254D01*
X69853Y80175D01*
X69863Y80109D01*
X69882Y80079D01*
Y79685D01*
X69975Y79218D01*
X70239Y78822D01*
X76417Y72644D01*
Y49292D01*
X75977Y49057D01*
X75875Y49125D01*
X75177Y49263D01*
X74480Y49125D01*
X74219Y48951D01*
X74089Y48921D01*
X74010Y48865D01*
X73946Y48826D01*
X73884Y48792D01*
X73823Y48764D01*
X73762Y48741D01*
X73701Y48722D01*
X73639Y48707D01*
X73577Y48697D01*
X73512Y48690D01*
X73424Y48687D01*
X73367Y48661D01*
X71614D01*
X71368Y49122D01*
X74706Y52460D01*
X75014Y52921D01*
X75122Y53465D01*
Y60214D01*
X75144Y60265D01*
X75150Y60494D01*
X75165Y60665D01*
X75174Y60720D01*
X75183Y60766D01*
X75191Y60794D01*
X75192Y60798D01*
X75197Y60806D01*
X75199Y60813D01*
X75207Y60831D01*
X75209Y60873D01*
X75219Y60925D01*
X75384Y61173D01*
X75523Y61870D01*
X75384Y62568D01*
X74989Y63159D01*
X74398Y63554D01*
X73701Y63692D01*
X73003Y63554D01*
X72412Y63159D01*
X72017Y62568D01*
X71878Y61870D01*
X72017Y61173D01*
X72183Y60925D01*
X72192Y60873D01*
X72194Y60831D01*
X72203Y60813D01*
X72204Y60806D01*
X72209Y60798D01*
X72211Y60794D01*
X72219Y60766D01*
X72228Y60720D01*
X72236Y60671D01*
X72256Y60383D01*
X72257Y60273D01*
X72280Y60220D01*
Y54053D01*
X67514Y49287D01*
X66971Y49451D01*
X66961Y49499D01*
X70060Y52598D01*
X70368Y53059D01*
X70476Y53602D01*
Y71339D01*
X70368Y71882D01*
X70060Y72343D01*
X61558Y80845D01*
X61374Y80968D01*
X61496Y81488D01*
X62096Y81567D01*
X63022Y81951D01*
X63817Y82561D01*
X64427Y83356D01*
X64811Y84282D01*
X64941Y85276D01*
X64811Y86269D01*
X64427Y87195D01*
X63817Y87990D01*
X63022Y88600D01*
X62096Y88984D01*
X61102Y89115D01*
X60109Y88984D01*
X59183Y88600D01*
X58388Y87990D01*
X57778Y87195D01*
X57394Y86269D01*
X57263Y85276D01*
X57394Y84282D01*
X57778Y83356D01*
X58388Y82561D01*
X59183Y81951D01*
X59640Y81762D01*
X59540Y81262D01*
X57126D01*
X55732Y82656D01*
X55721Y82693D01*
X55650Y82782D01*
X55591Y82884D01*
X55515Y83055D01*
X55440Y83265D01*
X55000Y85285D01*
X54919Y85824D01*
X54855Y85930D01*
X54811Y86269D01*
X54427Y87195D01*
X53817Y87990D01*
X53022Y88600D01*
X52096Y88984D01*
X51102Y89115D01*
X50109Y88984D01*
X49183Y88600D01*
X48388Y87990D01*
X47778Y87195D01*
X47394Y86269D01*
X47263Y85276D01*
X47394Y84282D01*
X47778Y83356D01*
X48388Y82561D01*
X49183Y81951D01*
X50109Y81567D01*
X50448Y81523D01*
X50554Y81459D01*
X51105Y81376D01*
X52056Y81206D01*
X52805Y81030D01*
X53090Y80946D01*
X53323Y80863D01*
X53494Y80787D01*
X53596Y80729D01*
X53685Y80657D01*
X53723Y80646D01*
X54830Y79539D01*
X54638Y79077D01*
X49027D01*
X45640Y82464D01*
X45632Y82498D01*
X45592Y82552D01*
X45556Y82628D01*
X45505Y82770D01*
X45008Y85219D01*
X44920Y85822D01*
X44855Y85929D01*
X44811Y86269D01*
X44427Y87195D01*
X43817Y87990D01*
X43022Y88600D01*
X42096Y88984D01*
X41102Y89115D01*
X40109Y88984D01*
X39183Y88600D01*
X38388Y87990D01*
X37778Y87195D01*
X37394Y86269D01*
X37263Y85276D01*
X37394Y84282D01*
X37778Y83356D01*
X38388Y82561D01*
X39183Y81951D01*
X40109Y81567D01*
X40449Y81523D01*
X40556Y81458D01*
X41168Y81368D01*
X42658Y81109D01*
X43345Y80952D01*
X43582Y80882D01*
X43750Y80822D01*
X43826Y80786D01*
X43880Y80746D01*
X43914Y80738D01*
X46982Y77670D01*
X46791Y77208D01*
X40896D01*
X35640Y82464D01*
X35632Y82498D01*
X35592Y82552D01*
X35556Y82628D01*
X35505Y82770D01*
X35008Y85219D01*
X34920Y85822D01*
X34855Y85929D01*
X34811Y86269D01*
X34427Y87195D01*
X33817Y87990D01*
X33022Y88600D01*
X32096Y88984D01*
X31102Y89115D01*
X30109Y88984D01*
X29183Y88600D01*
X28388Y87990D01*
X27777Y87195D01*
X27394Y86269D01*
X27263Y85276D01*
X27394Y84282D01*
X27777Y83356D01*
X28388Y82561D01*
X29183Y81951D01*
X30109Y81567D01*
X30449Y81523D01*
X30556Y81458D01*
X31168Y81368D01*
X32658Y81109D01*
X33345Y80952D01*
X33582Y80882D01*
X33750Y80822D01*
X33826Y80786D01*
X33880Y80746D01*
X33914Y80738D01*
X38915Y75737D01*
X38724Y75275D01*
X32828D01*
X25640Y82464D01*
X25632Y82498D01*
X25592Y82552D01*
X25556Y82628D01*
X25505Y82770D01*
X25008Y85219D01*
X24920Y85822D01*
X24855Y85929D01*
X24811Y86269D01*
X24427Y87195D01*
X23817Y87990D01*
X23022Y88600D01*
X22096Y88984D01*
X21102Y89115D01*
X20109Y88984D01*
X19183Y88600D01*
X18388Y87990D01*
X17777Y87195D01*
X17394Y86269D01*
X17263Y85276D01*
X17394Y84282D01*
X17777Y83356D01*
X18388Y82561D01*
X19183Y81951D01*
X20109Y81567D01*
X20449Y81523D01*
X20556Y81458D01*
X21168Y81368D01*
X22658Y81109D01*
X23345Y80952D01*
X23582Y80882D01*
X23750Y80822D01*
X23826Y80786D01*
X23880Y80746D01*
X23914Y80738D01*
X30702Y73950D01*
X30511Y73488D01*
X24616D01*
X15628Y82476D01*
X15606Y82534D01*
X15189Y82984D01*
X15050Y83157D01*
X14946Y83307D01*
X14909Y83372D01*
Y83666D01*
X14946Y83758D01*
X14926Y83808D01*
X14939Y83860D01*
X14909Y83909D01*
Y89082D01*
X7296D01*
Y81469D01*
X12469D01*
X12518Y81440D01*
X12570Y81452D01*
X12620Y81431D01*
X12712Y81469D01*
X13006D01*
X13071Y81432D01*
X13214Y81333D01*
X13608Y80999D01*
X13835Y80780D01*
X13896Y80756D01*
X23247Y71405D01*
X23643Y71140D01*
X24110Y71047D01*
X50432D01*
X55353Y66126D01*
X55375Y66067D01*
X55435Y66003D01*
X55476Y65952D01*
X55513Y65901D01*
X55547Y65847D01*
X55576Y65790D01*
X55603Y65731D01*
X55626Y65667D01*
X55647Y65600D01*
X55664Y65527D01*
X55680Y65431D01*
X55751Y65318D01*
X55812Y65011D01*
X56207Y64420D01*
X56799Y64025D01*
X57496Y63886D01*
X58193Y64025D01*
X58497Y64228D01*
X58947Y63927D01*
X58886Y63622D01*
X59025Y62925D01*
X59420Y62333D01*
X60011Y61938D01*
X60709Y61800D01*
X61406Y61938D01*
X61997Y62333D01*
X62020Y62367D01*
X62520Y62216D01*
Y59443D01*
X58960Y55883D01*
X58696Y55487D01*
X58603Y55020D01*
Y49251D01*
X58577Y49194D01*
X58574Y49106D01*
X58567Y49041D01*
X58557Y48979D01*
X58542Y48917D01*
X58523Y48856D01*
X58500Y48795D01*
X58472Y48734D01*
X58438Y48672D01*
X58399Y48608D01*
X58343Y48529D01*
X58228Y48496D01*
X57728Y48874D01*
Y58215D01*
X57651Y58605D01*
X57430Y58936D01*
X52982Y63384D01*
X52651Y63605D01*
X52261Y63683D01*
X25455D01*
X25065Y63605D01*
X24735Y63384D01*
X17114Y55763D01*
X16893Y55432D01*
X16815Y55042D01*
Y54877D01*
X16315Y54725D01*
X16120Y55017D01*
X15398Y55499D01*
X14547Y55669D01*
X13696Y55499D01*
X12975Y55017D01*
X12493Y54296D01*
X12323Y53445D01*
X12493Y52594D01*
X12975Y51872D01*
X13696Y51390D01*
X14547Y51221D01*
X15398Y51390D01*
X16120Y51872D01*
X16315Y52165D01*
X16815Y52013D01*
Y51355D01*
X13598Y48138D01*
X12739D01*
X12253Y48210D01*
X12203Y48285D01*
X12113Y48737D01*
X11718Y49328D01*
X11127Y49723D01*
X10429Y49862D01*
X9732Y49723D01*
X9140Y49328D01*
X8745Y48737D01*
X8607Y48039D01*
X8745Y47342D01*
X9140Y46751D01*
X9261Y46670D01*
Y46170D01*
X9144Y46092D01*
X8749Y45500D01*
X8611Y44803D01*
X8749Y44106D01*
X9144Y43514D01*
X9736Y43119D01*
X10433Y42981D01*
X11130Y43119D01*
X11722Y43514D01*
X12117Y44106D01*
X12207Y44557D01*
X12257Y44633D01*
X12742Y44705D01*
X14597D01*
X14987Y44782D01*
X15318Y45003D01*
X19670Y49356D01*
X20170Y49149D01*
X20170Y16217D01*
X19689Y15735D01*
X15079Y15735D01*
X14615Y15543D01*
X13809Y14737D01*
X13617Y14273D01*
X13617Y11921D01*
X13809Y11457D01*
X13809Y11457D01*
X14352Y10914D01*
X14440Y10342D01*
X14438Y10337D01*
X13902Y9801D01*
X13843Y9779D01*
X13391Y9359D01*
X13217Y9219D01*
X13066Y9113D01*
X13012Y9082D01*
X12683D01*
X12620Y9108D01*
X12569Y9087D01*
X12516Y9100D01*
X12487Y9082D01*
X7296D01*
Y1469D01*
X14909D01*
Y6661D01*
X14926Y6689D01*
X14913Y6743D01*
X14934Y6793D01*
X14909Y6856D01*
Y7186D01*
X14940Y7239D01*
X15041Y7383D01*
X15377Y7780D01*
X15597Y8008D01*
X15622Y8069D01*
X16316Y8764D01*
X18574D01*
X18744Y8264D01*
X18388Y7990D01*
X17777Y7195D01*
X17394Y6269D01*
X17263Y5276D01*
X17394Y4282D01*
X17777Y3356D01*
X18388Y2561D01*
X19183Y1951D01*
X20109Y1567D01*
X21102Y1437D01*
X22096Y1567D01*
X23022Y1951D01*
X23817Y2561D01*
X24427Y3356D01*
X24698Y4011D01*
X24775Y4100D01*
X25124Y5160D01*
X25563Y6360D01*
X25794Y6888D01*
X25840Y6977D01*
X27264D01*
X27731Y7069D01*
X28127Y7334D01*
X31308Y10515D01*
X31572Y10911D01*
X31665Y11378D01*
Y21838D01*
X31572Y22305D01*
X31308Y22701D01*
X29330Y24679D01*
Y32533D01*
X29830Y32702D01*
X30103Y32347D01*
X30961Y31689D01*
X31960Y31275D01*
X32333Y31226D01*
X32437Y31162D01*
X33639Y30974D01*
X34598Y30786D01*
X35324Y30599D01*
X35579Y30513D01*
X35769Y30434D01*
X35878Y30375D01*
X35966Y30306D01*
X36001Y30296D01*
X40137Y26161D01*
X40598Y25853D01*
X41142Y25744D01*
X60630D01*
X61174Y25853D01*
X61635Y26161D01*
X68520Y33046D01*
X68540Y33045D01*
X69020Y32892D01*
Y30982D01*
X61097Y23059D01*
X45500D01*
X45033Y22966D01*
X44637Y22701D01*
X40239Y18304D01*
X39975Y17908D01*
X39882Y17441D01*
Y10473D01*
X39863Y10442D01*
X39853Y10377D01*
X39825Y10297D01*
X39761Y10161D01*
X38380Y8078D01*
X38017Y7589D01*
X37986Y7467D01*
X37778Y7195D01*
X37394Y6269D01*
X37263Y5276D01*
X37394Y4282D01*
X37778Y3356D01*
X38388Y2561D01*
X39183Y1951D01*
X40109Y1567D01*
X41102Y1437D01*
X42096Y1567D01*
X43022Y1951D01*
X43817Y2561D01*
X44427Y3356D01*
X44811Y4282D01*
X44941Y5276D01*
X44811Y6269D01*
X44427Y7195D01*
X44218Y7467D01*
X44188Y7589D01*
X43819Y8085D01*
X42948Y9322D01*
X42574Y9919D01*
X42455Y10136D01*
X42380Y10297D01*
X42351Y10377D01*
X42341Y10442D01*
X42323Y10473D01*
Y16935D01*
X46005Y20618D01*
X50643D01*
X50853Y20118D01*
X50560Y19680D01*
X50422Y18982D01*
X50560Y18285D01*
X50955Y17694D01*
X51547Y17299D01*
X52244Y17160D01*
X52941Y17299D01*
X53190Y17464D01*
X53241Y17474D01*
X53284Y17476D01*
X53301Y17484D01*
X53308Y17486D01*
X53316Y17491D01*
X53320Y17492D01*
X53348Y17500D01*
X53394Y17510D01*
X53443Y17517D01*
X53731Y17537D01*
X53841Y17539D01*
X53894Y17561D01*
X55411D01*
X59681Y13291D01*
Y10402D01*
X59662Y10368D01*
X59650Y10254D01*
X59619Y10141D01*
X59552Y9966D01*
X59457Y9765D01*
X58340Y8026D01*
X58016Y7587D01*
X57986Y7467D01*
X57778Y7195D01*
X57394Y6269D01*
X57263Y5276D01*
X57394Y4282D01*
X57778Y3356D01*
X58388Y2561D01*
X59183Y1951D01*
X60109Y1567D01*
X61102Y1437D01*
X62096Y1567D01*
X63022Y1951D01*
X63817Y2561D01*
X64427Y3356D01*
X64811Y4282D01*
X64941Y5276D01*
X64811Y6269D01*
X64427Y7195D01*
X64219Y7467D01*
X64189Y7587D01*
X63858Y8036D01*
X63306Y8828D01*
X62900Y9482D01*
X62758Y9743D01*
X62652Y9966D01*
X62585Y10141D01*
X62554Y10254D01*
X62542Y10368D01*
X62523Y10402D01*
Y13291D01*
X64825Y15593D01*
X65864D01*
X65914Y15570D01*
X66143Y15565D01*
X66315Y15549D01*
X66370Y15541D01*
X66415Y15532D01*
X66444Y15524D01*
X66448Y15522D01*
X66456Y15517D01*
X66462Y15516D01*
X66480Y15507D01*
X66523Y15505D01*
X66574Y15496D01*
X66822Y15330D01*
X67520Y15191D01*
X68217Y15330D01*
X68808Y15725D01*
X69203Y16316D01*
X69342Y17014D01*
X69203Y17711D01*
X68808Y18302D01*
X68217Y18698D01*
X67520Y18836D01*
X66822Y18698D01*
X66574Y18532D01*
X66523Y18522D01*
X66480Y18520D01*
X66462Y18511D01*
X66456Y18510D01*
X66448Y18505D01*
X66444Y18504D01*
X66416Y18496D01*
X66370Y18487D01*
X66321Y18479D01*
X66033Y18459D01*
X65923Y18457D01*
X65870Y18435D01*
X64237D01*
X63693Y18327D01*
X63232Y18019D01*
X61102Y15889D01*
X57004Y19987D01*
X56808Y20118D01*
X56960Y20618D01*
X61602D01*
X62069Y20711D01*
X62465Y20975D01*
X71103Y29614D01*
X71368Y30009D01*
X71460Y30476D01*
Y41715D01*
X71842Y41919D01*
X71961Y41930D01*
X72618Y41800D01*
X73316Y41938D01*
X73576Y42112D01*
X73706Y42142D01*
X73786Y42198D01*
X73849Y42237D01*
X73911Y42271D01*
X73972Y42299D01*
X74033Y42322D01*
X74094Y42341D01*
X74156Y42356D01*
X74218Y42366D01*
X74283Y42373D01*
X74371Y42376D01*
X74429Y42402D01*
X74764D01*
X75231Y42495D01*
X75627Y42759D01*
X78217Y45349D01*
X78751Y45177D01*
X78783Y44984D01*
X75595Y41796D01*
X75535Y41773D01*
X75471Y41713D01*
X75421Y41672D01*
X75369Y41635D01*
X75315Y41602D01*
X75259Y41572D01*
X75199Y41546D01*
X75136Y41522D01*
X75068Y41502D01*
X74996Y41485D01*
X74900Y41469D01*
X74787Y41397D01*
X74480Y41336D01*
X73888Y40941D01*
X73493Y40350D01*
X73355Y39653D01*
X73493Y38955D01*
X73888Y38364D01*
X74480Y37969D01*
X75177Y37830D01*
X75875Y37969D01*
X76466Y38364D01*
X76861Y38955D01*
X76922Y39262D01*
X76993Y39375D01*
X77010Y39471D01*
X77026Y39544D01*
X77047Y39611D01*
X77070Y39675D01*
X77097Y39734D01*
X77126Y39791D01*
X77160Y39845D01*
X77197Y39896D01*
X77238Y39946D01*
X77298Y40011D01*
X77320Y40070D01*
X81060Y43810D01*
X81528Y43610D01*
X81634Y43523D01*
Y36942D01*
X70239Y25548D01*
X69975Y25152D01*
X69882Y24685D01*
Y10473D01*
X69863Y10442D01*
X69853Y10377D01*
X69825Y10297D01*
X69761Y10161D01*
X68380Y8078D01*
X68017Y7589D01*
X67986Y7467D01*
X67778Y7195D01*
X67394Y6269D01*
X67263Y5276D01*
X67394Y4282D01*
X67778Y3356D01*
X68388Y2561D01*
X69183Y1951D01*
X70109Y1567D01*
X71102Y1437D01*
X72096Y1567D01*
X73022Y1951D01*
X73817Y2561D01*
X74427Y3356D01*
X74811Y4282D01*
X74941Y5276D01*
X74811Y6269D01*
X74427Y7195D01*
X74218Y7467D01*
X74188Y7589D01*
X73819Y8085D01*
X72948Y9322D01*
X72574Y9919D01*
X72455Y10136D01*
X72379Y10297D01*
X72351Y10377D01*
X72341Y10442D01*
X72323Y10473D01*
Y24180D01*
X83351Y35208D01*
X83891Y35041D01*
X83906Y34962D01*
X80279Y31335D01*
X80014Y30939D01*
X79921Y30472D01*
Y23071D01*
X80014Y22604D01*
X80279Y22208D01*
X82211Y20276D01*
X80239Y18304D01*
X79975Y17908D01*
X79882Y17441D01*
Y10473D01*
X79863Y10442D01*
X79853Y10377D01*
X79825Y10297D01*
X79761Y10161D01*
X78380Y8078D01*
X78017Y7589D01*
X77986Y7467D01*
X77777Y7195D01*
X77394Y6269D01*
X77263Y5276D01*
X77394Y4282D01*
X77777Y3356D01*
X78388Y2561D01*
X79183Y1951D01*
X80109Y1567D01*
X81102Y1437D01*
X82096Y1567D01*
X83022Y1951D01*
X83817Y2561D01*
X84427Y3356D01*
X84811Y4282D01*
X84941Y5276D01*
X84811Y6269D01*
X84427Y7195D01*
X84218Y7467D01*
X84188Y7589D01*
X83819Y8085D01*
X82948Y9322D01*
X82574Y9919D01*
X82455Y10136D01*
X82380Y10297D01*
X82351Y10377D01*
X82341Y10442D01*
X82323Y10473D01*
Y16935D01*
X84443Y19055D01*
X101342D01*
X101401Y19029D01*
X101608Y19024D01*
X101766Y19010D01*
X101889Y18990D01*
X101973Y18967D01*
X101981Y18964D01*
Y16469D01*
X109500D01*
X109594Y16469D01*
X110000Y16243D01*
Y10033D01*
X106463Y6496D01*
X96299D01*
X96269Y6515D01*
X96203Y6525D01*
X96124Y6553D01*
X95987Y6617D01*
X93904Y7998D01*
X93415Y8361D01*
X93294Y8392D01*
X93022Y8601D01*
X92096Y8984D01*
X91102Y9115D01*
X90109Y8984D01*
X89183Y8601D01*
X88388Y7990D01*
X87778Y7195D01*
X87394Y6269D01*
X87263Y5276D01*
X87394Y4282D01*
X87778Y3356D01*
X88388Y2561D01*
X89183Y1951D01*
X90109Y1567D01*
X91102Y1437D01*
X92096Y1567D01*
X93022Y1951D01*
X93294Y2160D01*
X93415Y2190D01*
X93912Y2559D01*
X95148Y3430D01*
X95746Y3804D01*
X95963Y3923D01*
X96124Y3999D01*
X96203Y4027D01*
X96269Y4037D01*
X96299Y4055D01*
X96818D01*
X97085Y3555D01*
X97017Y3453D01*
X96878Y2756D01*
X97017Y2059D01*
X97412Y1467D01*
X97634Y1319D01*
X97483Y819D01*
X819D01*
Y89732D01*
X117291D01*
Y819D01*
D02*
G37*
G36*
X11960Y45446D02*
X11896Y45379D01*
X11839Y45312D01*
X11789Y45244D01*
X11744Y45176D01*
X11706Y45108D01*
X11675Y45039D01*
X11650Y44970D01*
X11631Y44901D01*
X11619Y44831D01*
X11613Y44761D01*
X10848Y45909D01*
X10914Y45887D01*
X10978Y45872D01*
X11039Y45864D01*
X11098Y45863D01*
X11155Y45869D01*
X11209Y45882D01*
X11261Y45902D01*
X11311Y45929D01*
X11358Y45962D01*
X11403Y46003D01*
X11960Y45446D01*
D02*
G37*
G36*
X62976Y46425D02*
X62987Y46317D01*
X63004Y46211D01*
X63029Y46106D01*
X63061Y46003D01*
X63100Y45902D01*
X63146Y45802D01*
X63199Y45704D01*
X63259Y45607D01*
X63326Y45512D01*
X61437D01*
X61505Y45607D01*
X61565Y45704D01*
X61618Y45802D01*
X61664Y45902D01*
X61703Y46003D01*
X61735Y46106D01*
X61760Y46211D01*
X61777Y46317D01*
X61788Y46425D01*
X61791Y46535D01*
X62972D01*
X62976Y46425D01*
D02*
G37*
G36*
X83732Y44865D02*
X83671Y44768D01*
X83618Y44670D01*
X83572Y44570D01*
X83533Y44469D01*
X83501Y44366D01*
X83477Y44261D01*
X83459Y44155D01*
X83448Y44047D01*
X83445Y43938D01*
X82264D01*
X82260Y44047D01*
X82250Y44155D01*
X82232Y44261D01*
X82207Y44366D01*
X82175Y44469D01*
X82136Y44570D01*
X82090Y44670D01*
X82037Y44768D01*
X81977Y44865D01*
X81910Y44960D01*
X83799D01*
X83732Y44865D01*
D02*
G37*
G36*
X73422Y44499D02*
X73519Y44439D01*
X73617Y44386D01*
X73717Y44340D01*
X73819Y44301D01*
X73922Y44269D01*
X74026Y44245D01*
X74132Y44227D01*
X74240Y44216D01*
X74350Y44213D01*
Y43031D01*
X74240Y43028D01*
X74132Y43017D01*
X74026Y43000D01*
X73922Y42975D01*
X73819Y42943D01*
X73717Y42904D01*
X73617Y42858D01*
X73519Y42805D01*
X73422Y42745D01*
X73327Y42678D01*
Y44567D01*
X73422Y44499D01*
D02*
G37*
G36*
X49300Y42020D02*
X49185Y42000D01*
X49075Y41974D01*
X48967Y41942D01*
X48864Y41904D01*
X48765Y41860D01*
X48670Y41810D01*
X48578Y41753D01*
X48491Y41691D01*
X48407Y41622D01*
X48327Y41547D01*
X47492Y42382D01*
X47567Y42462D01*
X47635Y42546D01*
X47698Y42633D01*
X47755Y42725D01*
X47805Y42820D01*
X47849Y42919D01*
X47887Y43023D01*
X47919Y43130D01*
X47945Y43240D01*
X47965Y43355D01*
X49300Y42020D01*
D02*
G37*
G36*
X57049Y41509D02*
X57287Y41302D01*
X57320Y41280D01*
X57348Y41265D01*
X57371Y41257D01*
X57390Y41255D01*
X56525Y40751D01*
X56537Y40772D01*
X56543Y40794D01*
X56546Y40817D01*
X56543Y40841D01*
X56536Y40867D01*
X56524Y40893D01*
X56507Y40922D01*
X56486Y40951D01*
X56461Y40982D01*
X56430Y41014D01*
X56987Y41571D01*
X57049Y41509D01*
D02*
G37*
G36*
X55593Y41014D02*
X55563Y40982D01*
X55537Y40951D01*
X55516Y40922D01*
X55500Y40893D01*
X55488Y40867D01*
X55481Y40841D01*
X55478Y40817D01*
X55480Y40794D01*
X55487Y40772D01*
X55498Y40751D01*
X54634Y41255D01*
X54652Y41257D01*
X54676Y41265D01*
X54704Y41280D01*
X54737Y41302D01*
X54774Y41330D01*
X54865Y41407D01*
X55037Y41571D01*
X55593Y41014D01*
D02*
G37*
G36*
X92783Y41118D02*
X92692Y41025D01*
X92473Y40773D01*
X92418Y40698D01*
X92371Y40626D01*
X92333Y40560D01*
X92304Y40497D01*
X92283Y40439D01*
X92272Y40385D01*
X90936Y41721D01*
X90990Y41732D01*
X91048Y41753D01*
X91111Y41782D01*
X91178Y41820D01*
X91249Y41867D01*
X91324Y41922D01*
X91488Y42059D01*
X91669Y42232D01*
X92783Y41118D01*
D02*
G37*
G36*
X76819Y40459D02*
X76744Y40380D01*
X76675Y40296D01*
X76613Y40208D01*
X76556Y40117D01*
X76506Y40021D01*
X76462Y39922D01*
X76424Y39819D01*
X76392Y39712D01*
X76366Y39601D01*
X76346Y39486D01*
X75011Y40822D01*
X75126Y40842D01*
X75236Y40867D01*
X75343Y40899D01*
X75447Y40937D01*
X75546Y40982D01*
X75641Y41032D01*
X75733Y41088D01*
X75820Y41151D01*
X75904Y41220D01*
X75984Y41295D01*
X76819Y40459D01*
D02*
G37*
G36*
X49904Y41010D02*
X49790Y40839D01*
X49681Y40295D01*
Y36536D01*
X49790Y35992D01*
X50098Y35531D01*
X53011Y32617D01*
X53472Y32309D01*
X54016Y32201D01*
X62949D01*
X62997Y32148D01*
X63189Y31734D01*
X60041Y28586D01*
X41730D01*
X39609Y30707D01*
X39801Y31169D01*
X47138D01*
Y39382D01*
X47138Y39382D01*
X47138D01*
X47421Y39750D01*
X48717Y41046D01*
X48776Y41068D01*
X48840Y41128D01*
X48890Y41169D01*
X48942Y41206D01*
X48996Y41240D01*
X49052Y41269D01*
X49112Y41296D01*
X49175Y41319D01*
X49243Y41340D01*
X49315Y41356D01*
X49411Y41373D01*
X49524Y41444D01*
X49603Y41460D01*
X49904Y41010D01*
D02*
G37*
G36*
X92017Y39796D02*
X91990Y39740D01*
X91967Y39675D01*
X91946Y39601D01*
X91929Y39517D01*
X91915Y39425D01*
X91896Y39212D01*
X91890Y38962D01*
X90315D01*
X90313Y39092D01*
X90290Y39425D01*
X90276Y39517D01*
X90258Y39601D01*
X90238Y39675D01*
X90214Y39740D01*
X90188Y39796D01*
X90158Y39842D01*
X92047D01*
X92017Y39796D01*
D02*
G37*
G36*
X58534Y46152D02*
X59126Y45757D01*
X59823Y45619D01*
X60268Y45707D01*
X60298Y45693D01*
X60657Y45293D01*
X60559Y44803D01*
X60698Y44106D01*
X61093Y43514D01*
X61685Y43119D01*
X62382Y42981D01*
X63079Y43119D01*
X63315Y43277D01*
X63815Y43010D01*
Y36474D01*
X62384Y35043D01*
X54604D01*
X52523Y37124D01*
Y38961D01*
X53023Y39113D01*
X53239Y38790D01*
X53830Y38395D01*
X54528Y38256D01*
X55225Y38395D01*
X55816Y38790D01*
X56207D01*
X56799Y38395D01*
X57496Y38256D01*
X58193Y38395D01*
X58785Y38790D01*
X59180Y39381D01*
X59319Y40079D01*
X59180Y40776D01*
X58785Y41367D01*
X58193Y41763D01*
X57728Y41855D01*
Y46459D01*
X58228Y46610D01*
X58534Y46152D01*
D02*
G37*
G36*
X109048Y40143D02*
X109584Y37639D01*
X109664Y37422D01*
X109742Y37262D01*
X109818Y37159D01*
X108998Y36309D01*
X108896Y36383D01*
X108735Y36458D01*
X108518Y36534D01*
X108242Y36612D01*
X107516Y36770D01*
X105994Y37018D01*
X105371Y37103D01*
X108950Y40761D01*
X109048Y40143D01*
D02*
G37*
G36*
X36591Y35133D02*
X37079Y32797D01*
X37179Y32498D01*
X37280Y32255D01*
X37382Y32067D01*
X37485Y31936D01*
X36371Y30823D01*
X36240Y30925D01*
X36053Y31027D01*
X35809Y31128D01*
X35510Y31228D01*
X34743Y31426D01*
X33753Y31620D01*
X32539Y31811D01*
X36497Y35768D01*
X36591Y35133D01*
D02*
G37*
G36*
X109047Y30106D02*
X109556Y27592D01*
X109635Y27375D01*
X109712Y27214D01*
X109786Y27112D01*
X108951Y26276D01*
X108849Y26351D01*
X108688Y26428D01*
X108471Y26507D01*
X108196Y26587D01*
X107473Y26753D01*
X105957Y27016D01*
X105337Y27108D01*
X108956Y30726D01*
X109047Y30106D01*
D02*
G37*
G36*
X91891Y24609D02*
X91915Y24276D01*
X91929Y24183D01*
X91946Y24100D01*
X91967Y24026D01*
X91990Y23961D01*
X92017Y23905D01*
X92047Y23859D01*
X90158D01*
X90188Y23905D01*
X90214Y23961D01*
X90238Y24026D01*
X90258Y24100D01*
X90276Y24183D01*
X90290Y24276D01*
X90309Y24489D01*
X90315Y24739D01*
X91890D01*
X91891Y24609D01*
D02*
G37*
G36*
X102611Y19094D02*
X102600Y19207D01*
X102564Y19307D01*
X102504Y19396D01*
X102420Y19472D01*
X102313Y19537D01*
X102182Y19590D01*
X102027Y19632D01*
X101848Y19661D01*
X101645Y19679D01*
X101418Y19685D01*
Y20866D01*
X101645Y20872D01*
X101848Y20890D01*
X102027Y20919D01*
X102182Y20961D01*
X102313Y21014D01*
X102420Y21079D01*
X102504Y21156D01*
X102564Y21244D01*
X102600Y21344D01*
X102611Y21457D01*
Y19094D01*
D02*
G37*
G36*
X53000Y19897D02*
X53055Y19870D01*
X53120Y19847D01*
X53194Y19826D01*
X53278Y19809D01*
X53370Y19795D01*
X53583Y19776D01*
X53833Y19770D01*
Y18195D01*
X53703Y18193D01*
X53370Y18170D01*
X53278Y18156D01*
X53194Y18138D01*
X53120Y18118D01*
X53055Y18094D01*
X53000Y18068D01*
X52953Y18038D01*
Y19927D01*
X53000Y19897D01*
D02*
G37*
G36*
X66810Y16069D02*
X66764Y16099D01*
X66708Y16126D01*
X66643Y16149D01*
X66569Y16170D01*
X66486Y16187D01*
X66393Y16201D01*
X66180Y16220D01*
X65931Y16226D01*
Y17801D01*
X66060Y17803D01*
X66393Y17826D01*
X66486Y17840D01*
X66569Y17858D01*
X66643Y17878D01*
X66708Y17902D01*
X66764Y17928D01*
X66810Y17958D01*
Y16069D01*
D02*
G37*
G36*
X36693Y57717D02*
Y52716D01*
X35551Y51575D01*
X28189Y51575D01*
X25118Y48504D01*
X25118Y15984D01*
X26496Y14606D01*
X26496Y12142D01*
X25732Y11378D01*
X14816Y11378D01*
X14273Y11921D01*
X14273Y14273D01*
X15079Y15079D01*
X19961Y15079D01*
X20827Y15945D01*
X20827Y53740D01*
X25984Y58898D01*
X35512Y58898D01*
X36693Y57717D01*
D02*
G37*
G36*
X25496Y7645D02*
X25408Y7538D01*
X25310Y7380D01*
X25202Y7172D01*
X24954Y6604D01*
X24504Y5376D01*
X24151Y4305D01*
X21188Y8475D01*
X21832Y8460D01*
X24717Y8572D01*
X24795Y8614D01*
X25496Y7645D01*
D02*
G37*
G36*
X15125Y8464D02*
X14890Y8220D01*
X14521Y7785D01*
X14386Y7592D01*
X14284Y7417D01*
X14216Y7258D01*
X14182Y7117D01*
X14180Y6992D01*
X14213Y6884D01*
X14278Y6793D01*
X12620Y8452D01*
X12711Y8386D01*
X12819Y8354D01*
X12943Y8355D01*
X13085Y8390D01*
X13243Y8458D01*
X13419Y8559D01*
X13611Y8694D01*
X13821Y8862D01*
X14290Y9299D01*
X15125Y8464D01*
D02*
G37*
G36*
X81713Y10215D02*
X81772Y10048D01*
X81870Y9838D01*
X82008Y9587D01*
X82401Y8958D01*
X83287Y7700D01*
X83661Y7197D01*
X78544D01*
X78917Y7700D01*
X80335Y9838D01*
X80433Y10048D01*
X80492Y10215D01*
X80512Y10341D01*
X81693D01*
X81713Y10215D01*
D02*
G37*
G36*
X71712D02*
X71772Y10048D01*
X71870Y9838D01*
X72008Y9587D01*
X72401Y8958D01*
X73287Y7700D01*
X73661Y7197D01*
X68543D01*
X68918Y7700D01*
X70335Y9838D01*
X70433Y10048D01*
X70492Y10215D01*
X70512Y10341D01*
X71693D01*
X71712Y10215D01*
D02*
G37*
G36*
X61907Y10133D02*
X61961Y9936D01*
X62049Y9707D01*
X62173Y9445D01*
X62332Y9152D01*
X62758Y8467D01*
X63324Y7653D01*
X63661Y7197D01*
X58543D01*
X58880Y7653D01*
X60031Y9445D01*
X60155Y9707D01*
X60244Y9936D01*
X60297Y10133D01*
X60315Y10297D01*
X61890D01*
X61907Y10133D01*
D02*
G37*
G36*
X41712Y10215D02*
X41772Y10048D01*
X41870Y9838D01*
X42008Y9587D01*
X42401Y8958D01*
X43287Y7700D01*
X43661Y7197D01*
X38543D01*
X38917Y7700D01*
X40335Y9838D01*
X40433Y10048D01*
X40492Y10215D01*
X40512Y10341D01*
X41693D01*
X41712Y10215D01*
D02*
G37*
G36*
X93527Y7461D02*
X95665Y6043D01*
X95874Y5945D01*
X96042Y5886D01*
X96167Y5866D01*
Y4685D01*
X96042Y4665D01*
X95874Y4606D01*
X95665Y4508D01*
X95414Y4370D01*
X94785Y3977D01*
X93527Y3091D01*
X93024Y2717D01*
Y7835D01*
X93527Y7461D01*
D02*
G37*
G36*
X99505Y3633D02*
X99602Y3573D01*
X99700Y3520D01*
X99800Y3474D01*
X99901Y3435D01*
X100004Y3403D01*
X100109Y3378D01*
X100215Y3361D01*
X100323Y3350D01*
X100432Y3347D01*
Y2165D01*
X100323Y2162D01*
X100215Y2151D01*
X100109Y2134D01*
X100004Y2109D01*
X99901Y2077D01*
X99800Y2038D01*
X99700Y1992D01*
X99602Y1939D01*
X99505Y1879D01*
X99410Y1812D01*
Y3700D01*
X99505Y3633D01*
D02*
G37*
%LPC*%
G36*
X91102Y89115D02*
X90109Y88984D01*
X89183Y88600D01*
X88388Y87990D01*
X87778Y87195D01*
X87394Y86269D01*
X87263Y85276D01*
X87394Y84282D01*
X87778Y83356D01*
X87986Y83085D01*
X88016Y82964D01*
X88347Y82516D01*
X88898Y81724D01*
X89304Y81070D01*
X89446Y80809D01*
X89552Y80585D01*
X89619Y80411D01*
X89650Y80297D01*
X89662Y80184D01*
X89681Y80149D01*
Y65577D01*
X89659Y65527D01*
X89653Y65298D01*
X89638Y65126D01*
X89630Y65071D01*
X89620Y65026D01*
X89612Y64997D01*
X89611Y64993D01*
X89606Y64985D01*
X89605Y64979D01*
X89596Y64961D01*
X89594Y64918D01*
X89584Y64867D01*
X89419Y64619D01*
X89280Y63921D01*
X89419Y63224D01*
X89814Y62633D01*
X90405Y62238D01*
X91102Y62099D01*
X91800Y62238D01*
X92391Y62633D01*
X92786Y63224D01*
X92925Y63921D01*
X92786Y64619D01*
X92620Y64867D01*
X92611Y64918D01*
X92609Y64961D01*
X92600Y64979D01*
X92599Y64985D01*
X92594Y64993D01*
X92592Y64997D01*
X92585Y65026D01*
X92575Y65071D01*
X92568Y65120D01*
X92547Y65408D01*
X92546Y65518D01*
X92523Y65571D01*
Y80149D01*
X92542Y80184D01*
X92554Y80297D01*
X92585Y80411D01*
X92652Y80585D01*
X92748Y80787D01*
X93865Y82526D01*
X94189Y82964D01*
X94219Y83085D01*
X94427Y83356D01*
X94811Y84282D01*
X94941Y85276D01*
X94811Y86269D01*
X94427Y87195D01*
X93817Y87990D01*
X93022Y88600D01*
X92096Y88984D01*
X91102Y89115D01*
D02*
G37*
G36*
X105787Y64115D02*
X104794Y63984D01*
X103868Y63600D01*
X103073Y62990D01*
X102463Y62195D01*
X102079Y61269D01*
X101948Y60276D01*
X102079Y59282D01*
X102463Y58356D01*
X103073Y57561D01*
X103868Y56951D01*
X104794Y56567D01*
X105787Y56437D01*
X106781Y56567D01*
X107707Y56951D01*
X108502Y57561D01*
X109112Y58356D01*
X109496Y59282D01*
X109626Y60276D01*
X109496Y61269D01*
X109112Y62195D01*
X108502Y62990D01*
X107707Y63600D01*
X106781Y63984D01*
X105787Y64115D01*
D02*
G37*
G36*
X14547Y39330D02*
X13696Y39161D01*
X12975Y38679D01*
X12493Y37957D01*
X12323Y37106D01*
X12493Y36255D01*
X12975Y35534D01*
X13696Y35052D01*
X14547Y34883D01*
X15398Y35052D01*
X16120Y35534D01*
X16602Y36255D01*
X16771Y37106D01*
X16602Y37957D01*
X16120Y38679D01*
X15398Y39161D01*
X14547Y39330D01*
D02*
G37*
G36*
X51102Y9115D02*
X50109Y8984D01*
X49183Y8601D01*
X48388Y7990D01*
X47778Y7195D01*
X47394Y6269D01*
X47263Y5276D01*
X47394Y4282D01*
X47778Y3356D01*
X48388Y2561D01*
X49183Y1951D01*
X50109Y1567D01*
X51102Y1437D01*
X52096Y1567D01*
X53022Y1951D01*
X53817Y2561D01*
X54427Y3356D01*
X54811Y4282D01*
X54941Y5276D01*
X54811Y6269D01*
X54427Y7195D01*
X53817Y7990D01*
X53022Y8601D01*
X52096Y8984D01*
X51102Y9115D01*
D02*
G37*
%LPD*%
G36*
X93325Y82898D02*
X92173Y81106D01*
X92049Y80844D01*
X91961Y80615D01*
X91907Y80418D01*
X91890Y80254D01*
X90315D01*
X90297Y80418D01*
X90244Y80615D01*
X90156Y80844D01*
X90031Y81106D01*
X89872Y81400D01*
X89447Y82084D01*
X88880Y82898D01*
X88543Y83354D01*
X93661D01*
X93325Y82898D01*
D02*
G37*
G36*
X91891Y65381D02*
X91915Y65048D01*
X91929Y64955D01*
X91946Y64872D01*
X91967Y64798D01*
X91990Y64733D01*
X92017Y64677D01*
X92047Y64631D01*
X90158D01*
X90188Y64677D01*
X90214Y64733D01*
X90238Y64798D01*
X90258Y64872D01*
X90276Y64955D01*
X90290Y65048D01*
X90309Y65260D01*
X90315Y65510D01*
X91890D01*
X91891Y65381D01*
D02*
G37*
D13*
X56709Y41292D02*
Y58215D01*
X52261Y62663D02*
X56709Y58215D01*
X25455Y62663D02*
X52261D01*
X55315Y41292D02*
Y57638D01*
X51683Y61269D02*
X55315Y57638D01*
X26033Y61269D02*
X51683D01*
X17835Y55042D02*
X25455Y62663D01*
X17835Y50933D02*
Y55042D01*
X19228Y54465D02*
X26033Y61269D01*
X19228Y50355D02*
Y54465D01*
X57496Y40079D02*
Y40505D01*
X56709Y41292D02*
X57496Y40505D01*
X54528Y40079D02*
Y40505D01*
X55315Y41292D01*
X14020Y47118D02*
X17835Y50933D01*
X11682Y45724D02*
X14597D01*
X19228Y50355D01*
X10429Y48039D02*
X10757D01*
X11678Y47118D01*
X14020D01*
X10433Y44803D02*
X10760D01*
X11682Y45724D01*
D43*
X60553Y79841D02*
X69055Y71339D01*
X56537Y79841D02*
X60553D01*
X51102Y85276D02*
X56537Y79841D01*
X51102Y51330D02*
X52244Y50189D01*
Y41436D02*
Y50189D01*
X51102Y40295D02*
X52244Y41436D01*
X51102Y51330D02*
Y58543D01*
X51102Y36536D02*
Y40295D01*
Y36536D02*
X54016Y33622D01*
X62972D01*
X65236Y35886D01*
Y49783D02*
X69055Y53602D01*
X65236Y35886D02*
Y49783D01*
X69055Y53602D02*
Y71339D01*
X67520Y47283D02*
X73701Y53465D01*
X67520Y34055D02*
Y47283D01*
X60630Y27165D02*
X67520Y34055D01*
X41142Y27165D02*
X60630D01*
X33031Y35276D02*
X41142Y27165D01*
X73701Y53465D02*
Y61870D01*
X91102Y63921D02*
Y85276D01*
X52244Y18982D02*
X55999D01*
X100827Y50276D02*
X105787D01*
X91102Y40551D02*
X100827Y50276D01*
X91102Y23150D02*
Y40551D01*
X64237Y17014D02*
X67520D01*
X61102Y13880D02*
X64237Y17014D01*
X61102Y5276D02*
Y13880D01*
X55999Y18982D02*
X61102Y13880D01*
X60558Y63773D02*
X60709Y63622D01*
D44*
X24110Y72268D02*
X50937D01*
X11102Y85276D02*
X24110Y72268D01*
X50937D02*
X57496Y65709D01*
X53071Y74055D02*
X60558Y66568D01*
X32323Y74055D02*
X53071D01*
X21102Y85276D02*
X32323Y74055D01*
X56060Y75988D02*
X63740Y68307D01*
X40390Y75988D02*
X56060D01*
X31102Y85276D02*
X40390Y75988D01*
X48522Y77856D02*
X57734D01*
X41102Y85276D02*
X48522Y77856D01*
X57734D02*
X66181Y69410D01*
X30484Y40118D02*
X46063D01*
X49134Y43189D01*
X46406Y50169D02*
X49134Y47441D01*
X30445Y50169D02*
X46406D01*
X70240Y46067D02*
X71614Y47441D01*
X70240Y30476D02*
Y46067D01*
X61602Y21838D02*
X70240Y30476D01*
X81102Y74055D02*
Y85276D01*
X80197Y73150D02*
X81102Y74055D01*
X80197Y44672D02*
Y73150D01*
X82854Y36437D02*
Y45669D01*
X71102Y24685D02*
X82854Y36437D01*
X71102Y5276D02*
Y24685D01*
X85413Y34744D02*
Y48819D01*
X81142Y30472D02*
X85413Y34744D01*
X81142Y23071D02*
Y30472D01*
X71614Y47441D02*
X75177D01*
X98701Y2756D02*
X110197D01*
X113858Y6417D01*
Y32283D01*
X105866Y40276D02*
X113858Y32283D01*
X105787Y40276D02*
X105866D01*
X81142Y23071D02*
X83937Y20276D01*
X81102Y5276D02*
Y17441D01*
X83937Y20276D01*
X105787D01*
X91102Y5276D02*
X106969D01*
X111221Y9527D01*
Y24843D01*
X105787Y30276D02*
X111221Y24843D01*
X77638Y46496D02*
Y73150D01*
X71102Y79685D02*
X77638Y73150D01*
X71102Y79685D02*
Y85276D01*
X75177Y39653D02*
X80197Y44672D01*
X74764Y43622D02*
X77638Y46496D01*
X72618Y43622D02*
X74764D01*
X41102Y5276D02*
Y17441D01*
X45500Y21838D01*
X61602D01*
X28110Y37744D02*
X30484Y40118D01*
X28110Y24173D02*
Y37744D01*
Y24173D02*
X30445Y21838D01*
Y11378D02*
Y21838D01*
X26322Y46047D02*
X30445Y50169D01*
X26322Y22614D02*
Y46047D01*
Y22614D02*
X28071Y20866D01*
Y11733D02*
Y20866D01*
X26322Y9984D02*
X28071Y11733D01*
X15811Y9984D02*
X26322D01*
X27264Y8197D02*
X30445Y11378D01*
X25212Y8197D02*
X27264D01*
X22291Y5276D02*
X25212Y8197D01*
X21102Y5276D02*
X22291D01*
X11102D02*
X15811Y9984D01*
X62382Y53760D02*
X66181Y57559D01*
X62382Y44803D02*
Y53760D01*
X66181Y57559D02*
Y69410D01*
X63740Y58937D02*
Y68307D01*
X59823Y55020D02*
X63740Y58937D01*
X59823Y47441D02*
Y55020D01*
X60558Y63773D02*
Y66568D01*
D45*
X33031Y55276D02*
D03*
X43031D02*
D03*
X33031Y35276D02*
D03*
X43031Y45276D02*
D03*
X33031D02*
D03*
D46*
X43031Y35276D02*
D03*
D47*
X14547Y53445D02*
D03*
Y37106D02*
D03*
D48*
X105787Y20276D02*
D03*
D49*
Y30276D02*
D03*
Y40276D02*
D03*
Y50276D02*
D03*
Y60276D02*
D03*
Y70276D02*
D03*
X91102Y85276D02*
D03*
X81102D02*
D03*
X61102D02*
D03*
X41102D02*
D03*
X31102D02*
D03*
X21102D02*
D03*
X51102D02*
D03*
X71102D02*
D03*
X91102Y5276D02*
D03*
X81102D02*
D03*
X61102D02*
D03*
X41102D02*
D03*
X31102D02*
D03*
X21102D02*
D03*
X51102D02*
D03*
X71102D02*
D03*
D50*
X11102Y85276D02*
D03*
Y5276D02*
D03*
D51*
X115748Y86496D02*
D03*
X113780Y82559D02*
D03*
X115748Y78622D02*
D03*
X113780Y74685D02*
D03*
X115748Y70748D02*
D03*
X113780Y66811D02*
D03*
X115748Y62874D02*
D03*
X113780Y58937D02*
D03*
X115748Y55000D02*
D03*
X113780Y51063D02*
D03*
X115748Y47126D02*
D03*
X113780Y43189D02*
D03*
X115748Y39252D02*
D03*
X111811Y86496D02*
D03*
X109843Y82559D02*
D03*
X111811Y78622D02*
D03*
X109843Y74685D02*
D03*
X111811Y70748D02*
D03*
Y62874D02*
D03*
Y55000D02*
D03*
Y47126D02*
D03*
Y39252D02*
D03*
X107874Y86496D02*
D03*
X105906Y82559D02*
D03*
X107874Y78622D02*
D03*
Y55000D02*
D03*
X103937Y86496D02*
D03*
X101969Y82559D02*
D03*
X103937Y78622D02*
D03*
X101969Y74685D02*
D03*
X103937Y55000D02*
D03*
X101969Y35315D02*
D03*
X100000Y86496D02*
D03*
X98032Y82559D02*
D03*
X100000Y78622D02*
D03*
X98032Y74685D02*
D03*
X100000Y70748D02*
D03*
X98032Y66811D02*
D03*
X100000Y55000D02*
D03*
X98032Y43189D02*
D03*
X100000Y39252D02*
D03*
Y31378D02*
D03*
Y23504D02*
D03*
Y15630D02*
D03*
X96063Y86496D02*
D03*
Y78622D02*
D03*
X94095Y74685D02*
D03*
X96063Y70748D02*
D03*
X94095Y58937D02*
D03*
X96063Y55000D02*
D03*
X94095Y51063D02*
D03*
X92126Y55000D02*
D03*
Y15630D02*
D03*
X86221Y82559D02*
D03*
X88189Y15630D02*
D03*
X86221Y3819D02*
D03*
X62599Y19567D02*
D03*
X52756Y15630D02*
D03*
X48819D02*
D03*
X21260Y78622D02*
D03*
X11417Y58937D02*
D03*
Y35315D02*
D03*
X13386Y31378D02*
D03*
X11417Y27441D02*
D03*
X9449Y78622D02*
D03*
X7480Y74685D02*
D03*
X9449Y70748D02*
D03*
X7480Y66811D02*
D03*
Y19567D02*
D03*
X5512Y86496D02*
D03*
X3543Y82559D02*
D03*
X5512Y78622D02*
D03*
X3543Y74685D02*
D03*
X5512Y70748D02*
D03*
X3543Y66811D02*
D03*
X5512Y23504D02*
D03*
X3543Y19567D02*
D03*
X5512Y15630D02*
D03*
X3543Y11693D02*
D03*
X5512Y7756D02*
D03*
X3543Y3819D02*
D03*
X49134Y47441D02*
D03*
X51102Y58543D02*
D03*
X73701Y61870D02*
D03*
X91102Y63921D02*
D03*
X98701Y2756D02*
D03*
X91102Y23150D02*
D03*
X67520Y17014D02*
D03*
X52244Y18982D02*
D03*
X91102Y40551D02*
D03*
X75177Y39653D02*
D03*
X72618Y43622D02*
D03*
X85413Y48819D02*
D03*
X82854Y45669D02*
D03*
X75177Y47441D02*
D03*
X49134Y43189D02*
D03*
X62382Y44803D02*
D03*
X59823Y47441D02*
D03*
X60709Y63622D02*
D03*
X57496Y65709D02*
D03*
X25161Y12807D02*
D03*
X18500Y12657D02*
D03*
X15646D02*
D03*
X57496Y40079D02*
D03*
X54528D02*
D03*
X10433Y44803D02*
D03*
X10429Y48039D02*
D03*
M02*
